SplineFontDB: 3.0
FontName: Dhyana-Bold
FullName: Dhyana Bold
FamilyName: Dhyana
Weight: Bold
Copyright: Copyright (c) 2010-12, Vernon Adams (vern@newtypography.co.uk), with Reserved Font Names "Nobile" and "Dhyana"
Version: 1.002
ItalicAngle: 0
UnderlinePosition: -188
UnderlineWidth: 48
Ascent: 1638
Descent: 410
sfntRevision: 0x00010000
LayerCount: 2
Layer: 0 1 "Back"  1
Layer: 1 1 "Fore"  0
XUID: [1021 723 548469661 8810155]
FSType: 0
OS2Version: 2
OS2_WeightWidthSlopeOnly: 0
OS2_UseTypoMetrics: 1
CreationTime: 1283209859
ModificationTime: 1332927256
PfmFamily: 17
TTFWeight: 700
TTFWidth: 5
LineGap: 0
VLineGap: 0
Panose: 2 0 8 3 5 0 0 2 0 4
OS2TypoAscent: 899
OS2TypoAOffset: 1
OS2TypoDescent: -356
OS2TypoDOffset: 1
OS2TypoLinegap: 0
OS2WinAscent: 19
OS2WinAOffset: 1
OS2WinDescent: 56
OS2WinDOffset: 1
HheadAscent: 19
HheadAOffset: 1
HheadDescent: -56
HheadDOffset: 1
OS2SubXSize: 1331
OS2SubYSize: 1433
OS2SubXOff: 0
OS2SubYOff: 286
OS2SupXSize: 1331
OS2SupYSize: 1433
OS2SupXOff: 0
OS2SupYOff: 983
OS2StrikeYSize: 102
OS2StrikeYPos: 512
OS2Vendor: 'PfEd'
OS2CodePages: 00000001.00000000
OS2UnicodeRanges: 8200006f.1000200a.00000000.00000000
Lookup: 1 0 0 "'liga' Standard Ligatures lookup 0"  {"'liga' Standard Ligatures lookup 0 subtable"  } ['liga' ('lao ' <'dflt' > 'latn' <'dflt' > ) ]
Lookup: 4 0 1 "'liga' Standard Ligatures lookup 1"  {"'liga' Standard Ligatures lookup 1 subtable"  } ['liga' ('lao ' <'dflt' > 'latn' <'dflt' > ) ]
Lookup: 2 0 0 "'ccmp' Glyph Composition/Decomposition in Lao lookup 2"  {"'ccmp' Glyph Composition/Decomposition in Lao lookup 2 subtable"  } ['ccmp' ('lao ' <'dflt' > ) ]
Lookup: 258 0 0 "'kern' Horizontal Kerning in Latin lookup 0"  {"'kern' Horizontal Kerning in Latin lookup 0 subtable"  } ['kern' ('latn' <'dflt' > ) ]
MarkAttachClasses: 1
DEI: 91125
EndMacFeatures
TtTable: prep
PUSHW_1
 511
SCANCTRL
PUSHB_1
 1
SCANTYPE
SVTCA[y-axis]
MPPEM
PUSHB_1
 8
LT
IF
PUSHB_2
 1
 1
INSTCTRL
EIF
PUSHB_2
 70
 6
CALL
IF
POP
PUSHB_1
 16
EIF
MPPEM

StartChar: .notdef
Encoding: 65536 -1 0
Width: 761
Flags: W
LayerCount: 2
Fore
SplineSet
554 69 m 1,0,-1
 554 1320 l 1,1,-1
 138 1320 l 1,2,-1
 138 69 l 1,3,-1
 554 69 l 1,0,-1
69 1390 m 1,4,-1
 623 1390 l 1,5,-1
 623 0 l 1,6,-1
 69 0 l 1,7,-1
 69 1390 l 1,4,-1
EndSplineSet
EndChar

StartChar: exclam
Encoding: 33 33 6
Width: 768
GlyphClass: 2
Flags: W
LayerCount: 2
Fore
SplineSet
560 161 m 0,0,1
 560 -7 560 -7 409 -7 c 0,2,3
 333 -7 333 -7 276 26 c 1,4,5
 243 84 243 84 243 161 c 0,6,7
 243 313 243 313 409 313 c 0,8,9
 560 313 560 313 560 161 c 0,0,1
491 464 m 1,10,-1
 297 464 l 1,11,-1
 228 1607 l 1,12,-1
 557 1607 l 1,13,-1
 491 464 l 1,10,-1
EndSplineSet
EndChar

StartChar: quotedbl
Encoding: 34 34 7
Width: 897
GlyphClass: 2
Flags: W
LayerCount: 2
Fore
SplineSet
874 1607 m 1,0,1
 862 1503 862 1503 845.5 1388.5 c 128,-1,2
 829 1274 829 1274 807.5 1135 c 128,-1,3
 786 996 786 996 775 920 c 1,4,-1
 597 920 l 1,5,-1
 531 1483 l 1,6,-1
 520 1607 l 1,7,-1
 874 1607 l 1,0,1
416 1607 m 1,8,9
 404 1503 404 1503 387.5 1388.5 c 128,-1,10
 371 1274 371 1274 349.5 1135 c 128,-1,11
 328 996 328 996 317 920 c 1,12,-1
 139 920 l 1,13,-1
 71 1498 l 1,14,-1
 62 1607 l 1,15,-1
 416 1607 l 1,8,9
EndSplineSet
EndChar

StartChar: numbersign
Encoding: 35 35 8
Width: 1278
GlyphClass: 2
Flags: W
LayerCount: 2
Fore
SplineSet
749 633 m 1,0,-1
 778 874 l 1,1,-1
 584 874 l 1,2,-1
 553 633 l 1,3,-1
 749 633 l 1,0,-1
537 490 m 1,4,-1
 484 118 l 1,5,-1
 287 118 l 1,6,-1
 340 490 l 1,7,-1
 174 490 l 1,8,-1
 174 633 l 1,9,-1
 354 633 l 1,10,-1
 384 874 l 1,11,-1
 185 874 l 1,12,-1
 185 1019 l 1,13,-1
 403 1019 l 1,14,-1
 452 1395 l 1,15,-1
 646 1395 l 1,16,-1
 599 1019 l 1,17,-1
 801 1019 l 1,18,-1
 845 1395 l 1,19,-1
 1043 1395 l 1,20,-1
 996 1019 l 1,21,-1
 1155 1019 l 1,22,-1
 1155 874 l 1,23,-1
 979 874 l 1,24,-1
 948 633 l 1,25,-1
 1146 633 l 1,26,-1
 1146 490 l 1,27,-1
 931 490 l 1,28,-1
 881 118 l 1,29,-1
 684 118 l 1,30,-1
 736 490 l 1,31,-1
 537 490 l 1,4,-1
EndSplineSet
EndChar

StartChar: dollar
Encoding: 36 36 9
Width: 1306
GlyphClass: 2
Flags: W
LayerCount: 2
Fore
SplineSet
713 209 m 1,0,1
 798 219 798 219 853 269 c 128,-1,2
 908 319 908 319 908 402 c 0,3,4
 908 430 908 430 901.5 454 c 128,-1,5
 895 478 895 478 887.5 494 c 128,-1,6
 880 510 880 510 861 527 c 128,-1,7
 842 544 842 544 831.5 552.5 c 128,-1,8
 821 561 821 561 793 574.5 c 128,-1,9
 765 588 765 588 755.5 592 c 128,-1,10
 746 596 746 596 713 609 c 1,11,-1
 713 209 l 1,0,1
604 1256 m 1,12,13
 491 1254 491 1254 431.5 1219 c 128,-1,14
 372 1184 372 1184 372 1096 c 0,15,16
 372 1073 372 1073 379 1053 c 128,-1,17
 386 1033 386 1033 402.5 1017 c 128,-1,18
 419 1001 419 1001 432.5 990 c 128,-1,19
 446 979 446 979 474 967.5 c 128,-1,20
 502 956 502 956 516 950.5 c 128,-1,21
 530 945 530 945 562.5 934.5 c 128,-1,22
 595 924 595 924 604 921 c 1,23,-1
 604 1256 l 1,12,13
100 1093 m 0,24,25
 100 1180 100 1180 125 1247 c 128,-1,26
 150 1314 150 1314 193.5 1357.5 c 128,-1,27
 237 1401 237 1401 302 1429 c 128,-1,28
 367 1457 367 1457 440 1469 c 128,-1,29
 513 1481 513 1481 604 1484 c 1,30,-1
 604 1614 l 1,31,-1
 713 1614 l 1,32,-1
 713 1479 l 1,33,34
 974 1463 974 1463 1118 1384 c 1,35,-1
 1050 1175 l 1,36,37
 997 1194 997 1194 932 1214 c 1,38,39
 792 1253 792 1253 713 1253 c 1,40,-1
 713 884 l 1,41,42
 894 817 894 817 969 774 c 0,43,44
 1151 670 1151 670 1178 503 c 0,45,46
 1183 471 1183 471 1183 436 c 0,47,48
 1183 217 1183 217 1058.5 102.5 c 128,-1,49
 934 -12 934 -12 713 -28 c 1,50,-1
 713 -162 l 1,51,-1
 604 -162 l 1,52,-1
 604 -30 l 1,53,54
 540 -30 540 -30 479.5 -21 c 128,-1,55
 419 -12 419 -12 354 9 c 128,-1,56
 289 30 289 30 253 43.5 c 128,-1,57
 217 57 217 57 147 86 c 1,58,-1
 207 307 l 1,59,60
 279 275 279 275 328 256 c 128,-1,61
 377 237 377 237 455.5 218.5 c 128,-1,62
 534 200 534 200 604 200 c 1,63,-1
 604 648 l 1,64,65
 582 656 582 656 535.5 672.5 c 128,-1,66
 489 689 489 689 464 698 c 128,-1,67
 439 707 439 707 396 724.5 c 128,-1,68
 353 742 353 742 328 755.5 c 128,-1,69
 303 769 303 769 267.5 790.5 c 128,-1,70
 232 812 232 812 211.5 832.5 c 128,-1,71
 191 853 191 853 167 882 c 128,-1,72
 143 911 143 911 130 941.5 c 128,-1,73
 117 972 117 972 108.5 1011 c 128,-1,74
 100 1050 100 1050 100 1093 c 0,24,25
EndSplineSet
EndChar

StartChar: percent
Encoding: 37 37 10
Width: 1724
GlyphClass: 2
Flags: W
LayerCount: 2
Fore
SplineSet
1216 457 m 0,0,1
 1216 406 1216 406 1219.5 367.5 c 128,-1,2
 1223 329 1223 329 1234.5 291 c 128,-1,3
 1246 253 1246 253 1264.5 228.5 c 128,-1,4
 1283 204 1283 204 1315 189 c 128,-1,5
 1347 174 1347 174 1390 174 c 128,-1,6
 1433 174 1433 174 1465 189 c 128,-1,7
 1497 204 1497 204 1516 228.5 c 128,-1,8
 1535 253 1535 253 1546 291 c 128,-1,9
 1557 329 1557 329 1561 368 c 128,-1,10
 1565 407 1565 407 1565 457 c 0,11,12
 1565 523 1565 523 1557.5 572 c 128,-1,13
 1550 621 1550 621 1532 663 c 128,-1,14
 1514 705 1514 705 1478.5 727 c 128,-1,15
 1443 749 1443 749 1390 749 c 128,-1,16
 1337 749 1337 749 1301.5 727.5 c 128,-1,17
 1266 706 1266 706 1248 663.5 c 128,-1,18
 1230 621 1230 621 1223 572.5 c 128,-1,19
 1216 524 1216 524 1216 457 c 0,0,1
1754 451 m 0,20,21
 1754 358 1754 358 1732 279 c 128,-1,22
 1710 200 1710 200 1666.5 140 c 128,-1,23
 1623 80 1623 80 1553 46 c 128,-1,24
 1483 12 1483 12 1393 12 c 0,25,26
 1273 12 1273 12 1190 71.5 c 128,-1,27
 1107 131 1107 131 1069.5 227.5 c 128,-1,28
 1032 324 1032 324 1032 451 c 0,29,30
 1032 669 1032 669 1120 792.5 c 128,-1,31
 1208 916 1208 916 1393 916 c 0,32,33
 1754 916 1754 916 1754 451 c 0,20,21
213 1070 m 0,34,35
 213 1019 213 1019 216.5 981 c 128,-1,36
 220 943 220 943 231.5 905 c 128,-1,37
 243 867 243 867 261.5 842.5 c 128,-1,38
 280 818 280 818 312 803 c 128,-1,39
 344 788 344 788 387 788 c 128,-1,40
 430 788 430 788 462 803 c 128,-1,41
 494 818 494 818 513 842.5 c 128,-1,42
 532 867 532 867 543 905 c 128,-1,43
 554 943 554 943 558 981.5 c 128,-1,44
 562 1020 562 1020 562 1070 c 0,45,46
 562 1136 562 1136 554.5 1185 c 128,-1,47
 547 1234 547 1234 529 1276 c 128,-1,48
 511 1318 511 1318 475.5 1340 c 128,-1,49
 440 1362 440 1362 387 1362 c 128,-1,50
 334 1362 334 1362 298.5 1340 c 128,-1,51
 263 1318 263 1318 245 1276 c 128,-1,52
 227 1234 227 1234 220 1185.5 c 128,-1,53
 213 1137 213 1137 213 1070 c 0,34,35
752 1064 m 0,54,55
 752 971 752 971 730 892 c 128,-1,56
 708 813 708 813 664.5 753 c 128,-1,57
 621 693 621 693 551 659 c 128,-1,58
 481 625 481 625 391 625 c 0,59,60
 300 625 300 625 230 658.5 c 128,-1,61
 160 692 160 692 116.5 752.5 c 128,-1,62
 73 813 73 813 51 891.5 c 128,-1,63
 29 970 29 970 29 1064 c 0,64,65
 29 1282 29 1282 117 1406 c 128,-1,66
 205 1530 205 1530 391 1530 c 0,67,68
 578 1530 578 1530 665 1407 c 128,-1,69
 752 1284 752 1284 752 1064 c 0,54,55
1136 1527 m 1,70,-1
 1308 1437 l 1,71,-1
 609 -33 l 1,72,-1
 436 49 l 1,73,-1
 1136 1527 l 1,70,-1
EndSplineSet
EndChar

StartChar: ampersand
Encoding: 38 38 11
Width: 1740
GlyphClass: 2
Flags: W
LayerCount: 2
Fore
SplineSet
675 728 m 1,0,1
 555 699 555 699 485.5 635 c 128,-1,2
 416 571 416 571 416 451 c 0,3,4
 416 180 416 180 780 180 c 0,5,6
 1114 180 1114 180 1186 302 c 1,7,-1
 675 728 l 1,0,1
1364 159 m 1,8,9
 1223 -40 1223 -40 780 -40 c 0,10,11
 671 -40 671 -40 579.5 -25 c 128,-1,12
 488 -10 488 -10 407 24.5 c 128,-1,13
 326 59 326 59 270 112 c 128,-1,14
 214 165 214 165 182 245 c 128,-1,15
 150 325 150 325 150 427 c 0,16,17
 150 505 150 505 169 570 c 128,-1,18
 188 635 188 635 219 682 c 128,-1,19
 250 729 250 729 297.5 768 c 128,-1,20
 345 807 345 807 394.5 833 c 128,-1,21
 444 859 444 859 507 883 c 1,22,23
 423 935 423 935 359 1028 c 128,-1,24
 295 1121 295 1121 295 1229 c 0,25,26
 295 1315 295 1315 331.5 1382.5 c 128,-1,27
 368 1450 368 1450 431.5 1491 c 128,-1,28
 495 1532 495 1532 575.5 1553 c 128,-1,29
 656 1574 656 1574 749 1574 c 0,30,31
 873 1574 873 1574 970.5 1538.5 c 128,-1,32
 1068 1503 1068 1503 1130 1424.5 c 128,-1,33
 1192 1346 1192 1346 1192 1233 c 0,34,35
 1192 932 1192 932 873 823 c 1,36,-1
 1270 495 l 1,37,38
 1276 589 1276 589 1276 753 c 0,39,40
 1276 774 1276 774 1275.5 816 c 128,-1,41
 1275 858 1275 858 1275 875 c 1,42,-1
 1518 875 l 1,43,44
 1518 626 1518 626 1480 400 c 1,45,-1
 1467 332 l 1,46,-1
 1721 118 l 1,47,-1
 1596 -36 l 1,48,-1
 1364 159 l 1,8,9
710 982 m 1,49,50
 749 993 749 993 780 1004 c 128,-1,51
 811 1015 811 1015 847.5 1035 c 128,-1,52
 884 1055 884 1055 908.5 1078 c 128,-1,53
 933 1101 933 1101 949.5 1135.5 c 128,-1,54
 966 1170 966 1170 966 1211 c 0,55,56
 966 1297 966 1297 909.5 1339 c 128,-1,57
 853 1381 853 1381 755 1381 c 0,58,59
 546 1381 546 1381 546 1214 c 0,60,61
 546 1140 546 1140 595.5 1079 c 128,-1,62
 645 1018 645 1018 710 982 c 1,49,50
EndSplineSet
EndChar

StartChar: quotesingle
Encoding: 39 39 12
Width: 625
GlyphClass: 2
Flags: W
LayerCount: 2
Fore
SplineSet
489 1607 m 1,0,1
 474 1469 474 1469 436 1218.5 c 128,-1,2
 398 968 398 968 391 920 c 1,3,-1
 212 920 l 1,4,-1
 144 1498 l 1,5,-1
 136 1607 l 1,6,-1
 489 1607 l 1,0,1
EndSplineSet
EndChar

StartChar: parenleft
Encoding: 40 40 13
Width: 859
GlyphClass: 2
Flags: W
LayerCount: 2
Fore
SplineSet
641 -270 m 1,0,1
 440 -124 440 -124 321.5 125 c 128,-1,2
 203 374 203 374 203 698 c 0,3,4
 203 1023 203 1023 319 1275.5 c 128,-1,5
 435 1528 435 1528 634 1675 c 1,6,-1
 777 1504 l 1,7,8
 637 1373 637 1373 555.5 1163.5 c 128,-1,9
 474 954 474 954 474 698 c 0,10,11
 474 441 474 441 553.5 235 c 128,-1,12
 633 29 633 29 773 -97 c 1,13,-1
 641 -270 l 1,0,1
EndSplineSet
EndChar

StartChar: parenright
Encoding: 41 41 14
Width: 857
GlyphClass: 2
Flags: W
LayerCount: 2
Fore
SplineSet
231 1677 m 1,0,1
 433 1528 433 1528 551.5 1281.5 c 128,-1,2
 670 1035 670 1035 670 713 c 0,3,4
 670 383 670 383 553 132 c 128,-1,5
 436 -119 436 -119 233 -270 c 1,6,-1
 95 -98 l 1,7,8
 235 29 235 29 316.5 240 c 128,-1,9
 398 451 398 451 398 707 c 128,-1,10
 398 963 398 963 318 1168.5 c 128,-1,11
 238 1374 238 1374 99 1504 c 1,12,-1
 231 1677 l 1,0,1
EndSplineSet
EndChar

StartChar: asterisk
Encoding: 42 42 15
Width: 998
GlyphClass: 2
Flags: W
LayerCount: 2
Fore
SplineSet
617 1640 m 1,0,-1
 778 1546 l 1,1,-1
 631 1291 l 1,2,-1
 911 1291 l 1,3,-1
 911 1134 l 1,4,-1
 634 1134 l 1,5,-1
 785 883 l 1,6,-1
 622 787 l 1,7,-1
 483 1033 l 1,8,-1
 344 788 l 1,9,-1
 182 883 l 1,10,-1
 333 1134 l 1,11,-1
 44 1134 l 1,12,-1
 44 1291 l 1,13,-1
 336 1291 l 1,14,-1
 188 1548 l 1,15,-1
 349 1639 l 1,16,-1
 481 1392 l 1,17,-1
 617 1640 l 1,0,-1
EndSplineSet
EndChar

StartChar: plus
Encoding: 43 43 16
Width: 1074
GlyphClass: 2
Flags: W
LayerCount: 2
Fore
SplineSet
668 485 m 1,0,-1
 668 130 l 1,1,-1
 434 130 l 1,2,-1
 434 485 l 1,3,-1
 137 485 l 1,4,-1
 137 705 l 1,5,-1
 434 705 l 1,6,-1
 434 1059 l 1,7,-1
 668 1059 l 1,8,-1
 668 705 l 1,9,-1
 966 705 l 1,10,-1
 966 485 l 1,11,-1
 668 485 l 1,0,-1
EndSplineSet
EndChar

StartChar: comma
Encoding: 44 44 17
Width: 661
GlyphClass: 2
Flags: W
LayerCount: 2
Fore
SplineSet
154 373 m 1,0,-1
 516 373 l 1,1,-1
 516 51 l 2,2,3
 516 -11 516 -11 499 -61.5 c 128,-1,4
 482 -112 482 -112 454.5 -147 c 128,-1,5
 427 -182 427 -182 385.5 -210.5 c 128,-1,6
 344 -239 344 -239 302 -257 c 128,-1,7
 260 -275 260 -275 206 -291 c 1,8,-1
 155 -183 l 1,9,10
 195 -169 195 -169 219 -157 c 128,-1,11
 243 -145 243 -145 268 -124 c 128,-1,12
 293 -103 293 -103 304.5 -72.5 c 128,-1,13
 316 -42 316 -42 316 0 c 1,14,-1
 154 0 l 1,15,-1
 154 373 l 1,0,-1
EndSplineSet
EndChar

StartChar: hyphen
Encoding: 45 45 18
Width: 1078
GlyphClass: 2
Flags: W
LayerCount: 2
Fore
SplineSet
159 558 m 1,0,-1
 159 783 l 1,1,-1
 920 783 l 1,2,-1
 920 558 l 1,3,-1
 159 558 l 1,0,-1
EndSplineSet
EndChar

StartChar: period
Encoding: 46 46 19
Width: 714
GlyphClass: 2
Flags: W
LayerCount: 2
Fore
SplineSet
176 373 m 1,0,-1
 539 373 l 1,1,-1
 539 0 l 1,2,-1
 176 0 l 1,3,-1
 176 373 l 1,0,-1
EndSplineSet
EndChar

StartChar: slash
Encoding: 47 47 20
Width: 982
GlyphClass: 2
Flags: W
LayerCount: 2
Fore
SplineSet
733 1723 m 1,0,-1
 974 1643 l 1,1,-1
 368 -162 l 1,2,-1
 130 -84 l 1,3,-1
 733 1723 l 1,0,-1
EndSplineSet
EndChar

StartChar: zero
Encoding: 48 48 21
Width: 1443
GlyphClass: 2
Flags: W
LayerCount: 2
Fore
SplineSet
409 603 m 0,0,1
 409 189 409 189 719 189 c 0,2,3
 805 189 805 189 867.5 220.5 c 128,-1,4
 930 252 930 252 966 310.5 c 128,-1,5
 1002 369 1002 369 1018.5 442.5 c 128,-1,6
 1035 516 1035 516 1035 609 c 0,7,8
 1035 697 1035 697 1017.5 768.5 c 128,-1,9
 1000 840 1000 840 963.5 895.5 c 128,-1,10
 927 951 927 951 865 981.5 c 128,-1,11
 803 1012 803 1012 719 1012 c 128,-1,12
 635 1012 635 1012 574 981 c 128,-1,13
 513 950 513 950 477.5 893 c 128,-1,14
 442 836 442 836 425.5 764.5 c 128,-1,15
 409 693 409 693 409 603 c 0,0,1
131 602 m 128,-1,17
 131 895 131 895 282 1062 c 128,-1,18
 433 1229 433 1229 718 1229 c 128,-1,19
 1003 1229 1003 1229 1156.5 1061 c 128,-1,20
 1310 893 1310 893 1310 602 c 0,21,22
 1310 308 1310 308 1156.5 139.5 c 128,-1,23
 1003 -29 1003 -29 717 -29 c 0,24,25
 435 -29 435 -29 283 140 c 128,-1,16
 131 309 131 309 131 602 c 128,-1,17
EndSplineSet
EndChar

StartChar: one
Encoding: 49 49 22
Width: 861
GlyphClass: 2
Flags: W
LayerCount: 2
Fore
SplineSet
346 974 m 1,0,-1
 167 893 l 1,1,-1
 87 1090 l 1,2,3
 265 1166 265 1166 321 1188 c 1,4,-1
 424 1204 l 1,5,-1
 636 1204 l 1,6,-1
 636 0 l 1,7,-1
 346 0 l 1,8,-1
 346 974 l 1,0,-1
EndSplineSet
EndChar

StartChar: two
Encoding: 50 50 23
Width: 1167
GlyphClass: 2
Flags: W
LayerCount: 2
Fore
SplineSet
575 1215 m 0,0,1
 706 1215 706 1215 806 1178 c 128,-1,2
 906 1141 906 1141 967.5 1057.5 c 128,-1,3
 1029 974 1029 974 1029 853 c 0,4,5
 1029 791 1029 791 1013 734.5 c 128,-1,6
 997 678 997 678 973.5 636.5 c 128,-1,7
 950 595 950 595 912 552.5 c 128,-1,8
 874 510 874 510 842 481 c 128,-1,9
 810 452 810 452 765 414 c 0,10,11
 760 410 760 410 757 407.5 c 128,-1,12
 754 405 754 405 750 401.5 c 128,-1,13
 746 398 746 398 742 395 c 2,14,-1
 541 226 l 1,15,-1
 1009 226 l 1,16,-1
 1009 0 l 1,17,-1
 153 0 l 1,18,-1
 153 193 l 1,19,-1
 578 548 l 2,20,21
 614 578 614 578 631.5 593 c 128,-1,22
 649 608 649 608 678 638 c 128,-1,23
 707 668 707 668 721 692 c 128,-1,24
 735 716 735 716 746.5 751 c 128,-1,25
 758 786 758 786 758 824 c 0,26,27
 758 998 758 998 552 998 c 0,28,29
 415 998 415 998 237 907 c 1,30,-1
 159 1101 l 1,31,32
 244 1150 244 1150 353 1182.5 c 128,-1,33
 462 1215 462 1215 575 1215 c 0,0,1
EndSplineSet
EndChar

StartChar: three
Encoding: 51 51 24
Width: 1183
GlyphClass: 2
Flags: W
LayerCount: 2
Fore
SplineSet
438 660 m 1,0,1
 498 660 498 660 547.5 669 c 128,-1,2
 597 678 597 678 640.5 699 c 128,-1,3
 684 720 684 720 708.5 758.5 c 128,-1,4
 733 797 733 797 733 850 c 0,5,6
 733 1006 733 1006 515 1006 c 0,7,8
 464 1006 464 1006 412 993.5 c 128,-1,9
 360 981 360 981 303.5 961 c 128,-1,10
 247 941 247 941 220 934 c 1,11,-1
 132 1130 l 1,12,13
 324 1225 324 1225 502 1225 c 0,14,15
 609 1225 609 1225 695 1205 c 128,-1,16
 781 1185 781 1185 848.5 1142.5 c 128,-1,17
 916 1100 916 1100 953 1026.5 c 128,-1,18
 990 953 990 953 990 852 c 0,19,20
 990 735 990 735 922.5 654 c 128,-1,21
 855 573 855 573 751 556 c 1,22,23
 871 526 871 526 949.5 437.5 c 128,-1,24
 1028 349 1028 349 1028 214 c 0,25,26
 1028 112 1028 112 989 33.5 c 128,-1,27
 950 -45 950 -45 880 -92.5 c 128,-1,28
 810 -140 810 -140 719.5 -164 c 128,-1,29
 629 -188 629 -188 521 -188 c 0,30,31
 290 -188 290 -188 128 -107 c 1,32,-1
 201 101 l 1,33,34
 349 27 349 27 516 27 c 0,35,36
 634 27 634 27 695 72 c 128,-1,37
 756 117 756 117 756 221 c 0,38,39
 756 280 756 280 729.5 324.5 c 128,-1,40
 703 369 703 369 656 395 c 128,-1,41
 609 421 609 421 555.5 434 c 128,-1,42
 502 447 502 447 438 451 c 1,43,-1
 438 660 l 1,0,1
EndSplineSet
EndChar

StartChar: four
Encoding: 52 52 25
Width: 1271
GlyphClass: 2
Flags: W
LayerCount: 2
Fore
SplineSet
733 276 m 1,0,-1
 733 825 l 1,1,-1
 363 276 l 1,2,-1
 733 276 l 1,0,-1
979 1179 m 1,3,-1
 979 279 l 1,4,-1
 1164 279 l 1,5,-1
 1164 64 l 1,6,-1
 979 64 l 1,7,-1
 979 -238 l 1,8,-1
 733 -238 l 1,9,-1
 733 64 l 1,10,-1
 120 64 l 1,11,-1
 83 243 l 1,12,-1
 758 1236 l 1,13,-1
 979 1179 l 1,3,-1
EndSplineSet
EndChar

StartChar: five
Encoding: 53 53 26
Width: 1168
GlyphClass: 2
Flags: W
LayerCount: 2
Fore
SplineSet
1053 269 m 0,0,1
 1053 50 1053 50 914 -73 c 128,-1,2
 775 -196 775 -196 547 -196 c 0,3,4
 338 -196 338 -196 136 -102 c 1,5,-1
 182 112 l 1,6,7
 349 31 349 31 534 31 c 0,8,9
 800 31 800 31 800 270 c 0,10,11
 800 532 800 532 557 532 c 0,12,13
 438 532 438 532 295 446 c 1,14,-1
 169 554 l 1,15,-1
 169 1190 l 1,16,-1
 966 1190 l 1,17,-1
 966 978 l 1,18,-1
 401 978 l 1,19,-1
 401 681 l 1,20,21
 478 737 478 737 585 737 c 0,22,23
 805 737 805 737 929 613 c 128,-1,24
 1053 489 1053 489 1053 269 c 0,0,1
EndSplineSet
EndChar

StartChar: six
Encoding: 54 54 27
Width: 1258
GlyphClass: 2
Flags: W
LayerCount: 2
Fore
SplineSet
677 857 m 0,0,1
 895 857 895 857 1030.5 723.5 c 128,-1,2
 1166 590 1166 590 1166 373 c 0,3,4
 1166 143 1166 143 1028 9.5 c 128,-1,5
 890 -124 890 -124 656 -124 c 0,6,7
 399 -124 399 -124 256 32 c 128,-1,8
 113 188 113 188 113 452 c 0,9,10
 113 608 113 608 152 741 c 128,-1,11
 191 874 191 874 259.5 973 c 128,-1,12
 328 1072 328 1072 425.5 1151 c 128,-1,13
 523 1230 523 1230 634.5 1282 c 128,-1,14
 746 1334 746 1334 877 1367 c 1,15,-1
 944 1146 l 1,16,17
 830 1122 830 1122 737 1079 c 128,-1,18
 644 1036 644 1036 570 965.5 c 128,-1,19
 496 895 496 895 457 804 c 1,20,21
 572 857 572 857 677 857 c 0,0,1
901 402 m 0,22,23
 901 519 901 519 843 583 c 128,-1,24
 785 647 785 647 673 647 c 0,25,26
 586 647 586 647 512 615.5 c 128,-1,27
 438 584 438 584 388 534 c 1,28,29
 386 505 386 505 386 443 c 0,30,31
 391 93 391 93 655 93 c 0,32,33
 781 93 781 93 841 177.5 c 128,-1,34
 901 262 901 262 901 402 c 0,22,23
EndSplineSet
EndChar

StartChar: seven
Encoding: 55 55 28
Width: 1149
GlyphClass: 2
Flags: W
LayerCount: 2
Fore
SplineSet
1089 1054 m 1,0,-1
 497 -216 l 1,1,-1
 246 -104 l 1,2,-1
 758 992 l 1,3,-1
 138 992 l 1,4,-1
 138 1214 l 1,5,-1
 1015 1214 l 1,6,-1
 1089 1054 l 1,0,-1
EndSplineSet
EndChar

StartChar: eight
Encoding: 56 56 29
Width: 1312
GlyphClass: 2
Flags: W
LayerCount: 2
Fore
SplineSet
659 743 m 0,0,1
 762 743 762 743 822 799 c 128,-1,2
 882 855 882 855 882 956 c 0,3,4
 882 1140 882 1140 659 1140 c 0,5,6
 430 1140 430 1140 430 956 c 0,7,8
 430 854 430 854 492 798.5 c 128,-1,9
 554 743 554 743 659 743 c 0,0,1
659 81 m 0,10,11
 778 81 778 81 835 127.5 c 128,-1,12
 892 174 892 174 892 285 c 0,13,14
 892 402 892 402 831 473.5 c 128,-1,15
 770 545 770 545 659 545 c 0,16,17
 546 545 546 545 482.5 474 c 128,-1,18
 419 403 419 403 419 286 c 0,19,20
 419 175 419 175 477.5 128 c 128,-1,21
 536 81 536 81 659 81 c 0,10,11
659 1351 m 0,22,23
 797 1351 797 1351 904.5 1311 c 128,-1,24
 1012 1271 1012 1271 1079 1182 c 128,-1,25
 1146 1093 1146 1093 1146 965 c 0,26,27
 1146 833 1146 833 1071.5 746.5 c 128,-1,28
 997 660 997 660 879 632 c 1,29,30
 1007 604 1007 604 1085 507 c 128,-1,31
 1163 410 1163 410 1163 262 c 0,32,33
 1163 160 1163 160 1124 82 c 128,-1,34
 1085 4 1085 4 1015.5 -43.5 c 128,-1,35
 946 -91 946 -91 856.5 -114.5 c 128,-1,36
 767 -138 767 -138 659 -138 c 0,37,38
 573 -138 573 -138 497.5 -123.5 c 128,-1,39
 422 -109 422 -109 357.5 -77.5 c 128,-1,40
 293 -46 293 -46 247 0.5 c 128,-1,41
 201 47 201 47 175 114 c 128,-1,42
 149 181 149 181 149 264 c 0,43,44
 149 410 149 410 227.5 508.5 c 128,-1,45
 306 607 306 607 433 632 c 1,46,47
 315 661 315 661 240.5 747.5 c 128,-1,48
 166 834 166 834 166 966 c 0,49,50
 166 1063 166 1063 205 1138 c 128,-1,51
 244 1213 244 1213 312.5 1259 c 128,-1,52
 381 1305 381 1305 468.5 1328 c 128,-1,53
 556 1351 556 1351 659 1351 c 0,22,23
EndSplineSet
EndChar

StartChar: nine
Encoding: 57 57 30
Width: 1285
GlyphClass: 2
Flags: W
LayerCount: 2
Fore
SplineSet
829 355 m 1,0,1
 735 297 735 297 607 297 c 0,2,3
 381 297 381 297 249.5 420.5 c 128,-1,4
 118 544 118 544 118 765 c 0,5,6
 118 990 118 990 255.5 1125 c 128,-1,7
 393 1260 393 1260 620 1260 c 0,8,9
 886 1260 886 1260 1029 1108 c 128,-1,10
 1172 956 1172 956 1172 684 c 0,11,12
 1172 534 1172 534 1132.5 401 c 128,-1,13
 1093 268 1093 268 1023 166.5 c 128,-1,14
 953 65 953 65 856 -16 c 128,-1,15
 759 -97 759 -97 646 -149.5 c 128,-1,16
 533 -202 533 -202 406 -231 c 1,17,-1
 341 -9 l 1,18,19
 517 27 517 27 646.5 119.5 c 128,-1,20
 776 212 776 212 829 355 c 1,0,1
634 1042 m 0,21,22
 384 1042 384 1042 384 752 c 0,23,24
 384 640 384 640 442 572.5 c 128,-1,25
 500 505 500 505 605 505 c 0,26,27
 682 505 682 505 766.5 522 c 128,-1,28
 851 539 851 539 891 569 c 1,29,30
 901 674 901 674 902 703 c 1,31,32
 897 1042 897 1042 634 1042 c 0,21,22
EndSplineSet
EndChar

StartChar: colon
Encoding: 58 58 31
Width: 701
GlyphClass: 2
Flags: W
LayerCount: 2
Fore
SplineSet
190 379 m 1,0,-1
 556 379 l 1,1,-1
 556 0 l 1,2,-1
 190 0 l 1,3,-1
 190 379 l 1,0,-1
190 1067 m 1,4,-1
 556 1067 l 1,5,-1
 556 688 l 1,6,-1
 190 688 l 1,7,-1
 190 1067 l 1,4,-1
EndSplineSet
EndChar

StartChar: semicolon
Encoding: 59 59 32
Width: 692
GlyphClass: 2
Flags: W
LayerCount: 2
Fore
SplineSet
186 1067 m 1,0,-1
 549 1067 l 1,1,-1
 549 688 l 1,2,-1
 186 688 l 1,3,-1
 186 1067 l 1,0,-1
188 373 m 1,4,-1
 550 373 l 1,5,-1
 550 51 l 2,6,7
 550 -11 550 -11 533 -61.5 c 128,-1,8
 516 -112 516 -112 488.5 -147 c 128,-1,9
 461 -182 461 -182 419.5 -210.5 c 128,-1,10
 378 -239 378 -239 336 -257 c 128,-1,11
 294 -275 294 -275 240 -291 c 1,12,-1
 189 -183 l 1,13,14
 229 -169 229 -169 253 -157 c 128,-1,15
 277 -145 277 -145 302 -124 c 128,-1,16
 327 -103 327 -103 338.5 -72.5 c 128,-1,17
 350 -42 350 -42 350 0 c 1,18,-1
 188 0 l 1,19,-1
 188 373 l 1,4,-1
EndSplineSet
EndChar

StartChar: less
Encoding: 60 60 33
Width: 1238
GlyphClass: 2
Flags: W
LayerCount: 2
Fore
SplineSet
216 739 m 1,0,-1
 960 1264 l 1,1,-1
 1001 1015 l 1,2,-1
 444 632 l 1,3,-1
 1001 250 l 1,4,-1
 960 1 l 1,5,-1
 179 559 l 1,6,-1
 216 739 l 1,0,-1
EndSplineSet
EndChar

StartChar: equal
Encoding: 61 61 34
Width: 1112
GlyphClass: 2
Flags: W
LayerCount: 2
Fore
SplineSet
162 278 m 1,0,-1
 162 475 l 1,1,-1
 951 475 l 1,2,-1
 951 278 l 1,3,-1
 162 278 l 1,0,-1
162 601 m 1,4,-1
 162 797 l 1,5,-1
 951 797 l 1,6,-1
 951 601 l 1,7,-1
 162 601 l 1,4,-1
EndSplineSet
EndChar

StartChar: greater
Encoding: 62 62 35
Width: 1217
GlyphClass: 2
Flags: W
LayerCount: 2
Fore
SplineSet
289 1 m 1,0,-1
 248 256 l 1,1,-1
 800 632 l 1,2,-1
 247 1009 l 1,3,-1
 288 1264 l 1,4,-1
 1026 745 l 1,5,-1
 1070 559 l 1,6,-1
 289 1 l 1,0,-1
EndSplineSet
EndChar

StartChar: question
Encoding: 63 63 36
Width: 1148
GlyphClass: 2
Flags: W
LayerCount: 2
Fore
SplineSet
369 -43 m 1,0,1
 316 -20 316 -20 284 36 c 128,-1,2
 252 92 252 92 252 165 c 1,3,4
 274 218 274 218 326.5 251.5 c 128,-1,5
 379 285 379 285 449 285 c 1,6,7
 502 262 502 262 534 206 c 128,-1,8
 566 150 566 150 566 77 c 1,9,10
 545 24 545 24 492 -9.5 c 128,-1,11
 439 -43 439 -43 369 -43 c 1,0,1
264 823 m 1,12,13
 284 830 284 830 336.5 846 c 128,-1,14
 389 862 389 862 418.5 872 c 128,-1,15
 448 882 448 882 498.5 902 c 128,-1,16
 549 922 549 922 580 938.5 c 128,-1,17
 611 955 611 955 648.5 982 c 128,-1,18
 686 1009 686 1009 707 1036 c 128,-1,19
 728 1063 728 1063 743 1100 c 128,-1,20
 758 1137 758 1137 758 1178 c 0,21,22
 758 1222 758 1222 744 1255 c 128,-1,23
 730 1288 730 1288 706.5 1307.5 c 128,-1,24
 683 1327 683 1327 647 1339 c 128,-1,25
 611 1351 611 1351 573 1355 c 128,-1,26
 535 1359 535 1359 486 1359 c 0,27,28
 429 1359 429 1359 284.5 1330.5 c 128,-1,29
 140 1302 140 1302 140 1280 c 1,30,-1
 65 1495 l 1,31,32
 259 1593 259 1593 505 1593 c 0,33,34
 596 1593 596 1593 674 1580.5 c 128,-1,35
 752 1568 752 1568 821 1538.5 c 128,-1,36
 890 1509 890 1509 938.5 1464.5 c 128,-1,37
 987 1420 987 1420 1015 1352.5 c 128,-1,38
 1043 1285 1043 1285 1043 1199 c 0,39,40
 1043 840 1043 840 534 686 c 1,41,-1
 534 378 l 1,42,-1
 264 378 l 1,43,-1
 264 823 l 1,12,13
EndSplineSet
EndChar

StartChar: at
Encoding: 64 64 37
Width: 1982
GlyphClass: 2
Flags: W
LayerCount: 2
Fore
SplineSet
1446 -19 m 1,0,1
 1290 -144 1290 -144 989 -144 c 0,2,3
 798 -144 798 -144 641 -93.5 c 128,-1,4
 484 -43 484 -43 371 53 c 128,-1,5
 258 149 258 149 196 296 c 128,-1,6
 134 443 134 443 134 628 c 0,7,8
 134 896 134 896 248.5 1101 c 128,-1,9
 363 1306 363 1306 570.5 1417.5 c 128,-1,10
 778 1529 778 1529 1049 1529 c 0,11,12
 1226 1529 1226 1529 1376.5 1480 c 128,-1,13
 1527 1431 1527 1431 1637.5 1340 c 128,-1,14
 1748 1249 1748 1249 1810.5 1109.5 c 128,-1,15
 1873 970 1873 970 1873 797 c 0,16,17
 1873 676 1873 676 1844 576.5 c 128,-1,18
 1815 477 1815 477 1758 403 c 128,-1,19
 1701 329 1701 329 1609.5 288 c 128,-1,20
 1518 247 1518 247 1400 247 c 0,21,22
 1254 247 1254 247 1254 420 c 2,23,-1
 1254 482 l 2,24,25
 1254 503 1254 503 1256 545 c 1,26,27
 1235 477 1235 477 1208 425.5 c 128,-1,28
 1181 374 1181 374 1139 329.5 c 128,-1,29
 1097 285 1097 285 1035.5 262 c 128,-1,30
 974 239 974 239 895 239 c 0,31,32
 721 239 721 239 620 350.5 c 128,-1,33
 519 462 519 462 519 643 c 0,34,35
 519 871 519 871 676 1021 c 128,-1,36
 833 1171 833 1171 1065 1171 c 0,37,38
 1138 1171 1138 1171 1196.5 1163.5 c 128,-1,39
 1255 1156 1255 1156 1309.5 1137 c 128,-1,40
 1364 1118 1364 1118 1398 1080 c 128,-1,41
 1432 1042 1432 1042 1440 987 c 1,42,43
 1440 959 1440 959 1438 903 c 1,44,-1
 1388 415 l 1,45,46
 1524 430 1524 430 1583.5 518 c 128,-1,47
 1643 606 1643 606 1643 772 c 0,48,49
 1643 1047 1643 1047 1482.5 1186 c 128,-1,50
 1322 1325 1322 1325 1036 1325 c 0,51,52
 728 1325 728 1325 549.5 1134.5 c 128,-1,53
 371 944 371 944 371 628 c 0,54,55
 371 341 371 341 542 196.5 c 128,-1,56
 713 52 713 52 1018 52 c 0,57,58
 1084 52 1084 52 1148 65.5 c 128,-1,59
 1212 79 1212 79 1253.5 95 c 128,-1,60
 1295 111 1295 111 1356 137 c 0,61,62
 1360 139 1360 139 1362.5 140 c 128,-1,63
 1365 141 1365 141 1369 143 c 128,-1,64
 1373 145 1373 145 1376 146 c 1,65,-1
 1446 -19 l 1,0,1
1254 993 m 1,66,67
 1136 1013 1136 1013 1075 1013 c 0,68,69
 911 1013 911 1013 822 906 c 128,-1,70
 733 799 733 799 733 622 c 0,71,72
 733 528 733 528 777 470 c 128,-1,73
 821 412 821 412 906 412 c 0,74,75
 984 412 984 412 1044.5 448.5 c 128,-1,76
 1105 485 1105 485 1141 540.5 c 128,-1,77
 1177 596 1177 596 1202 677.5 c 128,-1,78
 1227 759 1227 759 1237.5 831.5 c 128,-1,79
 1248 904 1248 904 1254 993 c 1,66,67
EndSplineSet
EndChar

StartChar: A
Encoding: 65 65 38
Width: 1513
GlyphClass: 2
Flags: W
LayerCount: 2
Fore
SplineSet
937 1607 m 1,0,-1
 1469 0 l 1,1,-1
 1162 0 l 1,2,-1
 1044 369 l 1,3,-1
 468 369 l 1,4,-1
 351 0 l 1,5,-1
 43 0 l 1,6,-1
 571 1607 l 1,7,-1
 937 1607 l 1,0,-1
509 516 m 1,8,-1
 1004 516 l 1,9,-1
 760 1285 l 1,10,-1
 509 516 l 1,8,-1
EndSplineSet
EndChar

StartChar: B
Encoding: 66 66 39
Width: 1441
GlyphClass: 2
Flags: W
LayerCount: 2
Fore
SplineSet
1358 453 m 0,0,1
 1358 359 1358 359 1333.5 286 c 128,-1,2
 1309 213 1309 213 1261.5 164 c 128,-1,3
 1214 115 1214 115 1153.5 82 c 128,-1,4
 1093 49 1093 49 1009.5 31.5 c 128,-1,5
 926 14 926 14 843.5 7 c 128,-1,6
 761 0 761 0 656 0 c 2,7,-1
 156 0 l 1,8,-1
 156 1607 l 1,9,-1
 558 1607 l 2,10,11
 642 1607 642 1607 712 1603.5 c 128,-1,12
 782 1600 782 1600 859.5 1589 c 128,-1,13
 937 1578 937 1578 997.5 1560 c 128,-1,14
 1058 1542 1058 1542 1115 1511 c 128,-1,15
 1172 1480 1172 1480 1209 1438.5 c 128,-1,16
 1246 1397 1246 1397 1268.5 1338 c 128,-1,17
 1291 1279 1291 1279 1291 1205 c 0,18,19
 1291 900 1291 900 949 859 c 1,20,21
 1045 846 1045 846 1116 820 c 128,-1,22
 1187 794 1187 794 1243.5 748 c 128,-1,23
 1300 702 1300 702 1329 628 c 128,-1,24
 1358 554 1358 554 1358 453 c 0,0,1
1060 470 m 0,25,26
 1060 540 1060 540 1040 591 c 128,-1,27
 1020 642 1020 642 987 672 c 128,-1,28
 954 702 954 702 899.5 719.5 c 128,-1,29
 845 737 845 737 787.5 743 c 128,-1,30
 730 749 730 749 651 749 c 2,31,-1
 462 749 l 1,32,-1
 462 202 l 1,33,-1
 625 202 l 2,34,35
 687 202 687 202 729.5 203.5 c 128,-1,36
 772 205 772 205 821.5 211.5 c 128,-1,37
 871 218 871 218 903 229 c 128,-1,38
 935 240 935 240 967.5 259.5 c 128,-1,39
 1000 279 1000 279 1018.5 307.5 c 128,-1,40
 1037 336 1037 336 1048.5 376.5 c 128,-1,41
 1060 417 1060 417 1060 470 c 0,25,26
1023 1186 m 0,42,43
 1023 1235 1023 1235 1008 1272 c 128,-1,44
 993 1309 993 1309 963 1332.5 c 128,-1,45
 933 1356 933 1356 899 1371 c 128,-1,46
 865 1386 865 1386 814.5 1393 c 128,-1,47
 764 1400 764 1400 720.5 1402.5 c 128,-1,48
 677 1405 677 1405 617 1405 c 2,49,-1
 462 1405 l 1,50,-1
 462 940 l 1,51,-1
 651 940 l 2,52,53
 737 940 737 940 799 950 c 128,-1,54
 861 960 861 960 914.5 985.5 c 128,-1,55
 968 1011 968 1011 995.5 1061 c 128,-1,56
 1023 1111 1023 1111 1023 1186 c 0,42,43
EndSplineSet
EndChar

StartChar: C
Encoding: 67 67 40
Width: 1319
GlyphClass: 2
Flags: W
LayerCount: 2
Fore
SplineSet
823 1411 m 0,0,1
 727 1411 727 1411 654 1378 c 128,-1,2
 581 1345 581 1345 536 1290 c 128,-1,3
 491 1235 491 1235 462.5 1153.5 c 128,-1,4
 434 1072 434 1072 423 984.5 c 128,-1,5
 412 897 412 897 412 790 c 0,6,7
 412 191 412 191 823 191 c 0,8,9
 1028 191 1028 191 1186 302 c 1,10,-1
 1270 86 l 1,11,12
 1201 29 1201 29 1070.5 -2.5 c 128,-1,13
 940 -34 940 -34 801 -34 c 0,14,15
 623 -34 623 -34 488 26 c 128,-1,16
 353 86 353 86 270 197.5 c 128,-1,17
 187 309 187 309 146 459 c 128,-1,18
 105 609 105 609 105 796 c 0,19,20
 105 980 105 980 147 1131.5 c 128,-1,21
 189 1283 189 1283 272.5 1396.5 c 128,-1,22
 356 1510 356 1510 491.5 1573 c 128,-1,23
 627 1636 627 1636 804 1636 c 0,24,25
 941 1636 941 1636 1062.5 1609.5 c 128,-1,26
 1184 1583 1184 1583 1259 1531 c 1,27,-1
 1179 1312 l 1,28,29
 1027 1411 1027 1411 823 1411 c 0,0,1
EndSplineSet
EndChar

StartChar: D
Encoding: 68 68 41
Width: 1557
GlyphClass: 2
Flags: W
LayerCount: 2
Fore
SplineSet
661 202 m 2,0,1
 793 202 793 202 887.5 244 c 128,-1,2
 982 286 982 286 1037 366.5 c 128,-1,3
 1092 447 1092 447 1117 553.5 c 128,-1,4
 1142 660 1142 660 1142 801 c 0,5,6
 1142 948 1142 948 1120 1053.5 c 128,-1,7
 1098 1159 1098 1159 1046 1241 c 128,-1,8
 994 1323 994 1323 900.5 1364 c 128,-1,9
 807 1405 807 1405 671 1405 c 2,10,-1
 462 1405 l 1,11,-1
 462 202 l 1,12,-1
 661 202 l 2,0,1
676 1607 m 2,13,14
 1070 1607 1070 1607 1261 1406 c 128,-1,15
 1452 1205 1452 1205 1452 801 c 0,16,17
 1452 0 1452 0 683 0 c 2,18,-1
 157 0 l 1,19,-1
 157 1607 l 1,20,-1
 676 1607 l 2,13,14
EndSplineSet
EndChar

StartChar: E
Encoding: 69 69 42
Width: 1281
GlyphClass: 2
Flags: W
LayerCount: 2
Fore
SplineSet
156 0 m 1,0,-1
 156 1607 l 1,1,-1
 1205 1607 l 1,2,-1
 1205 1405 l 1,3,-1
 461 1405 l 1,4,-1
 461 931 l 1,5,-1
 1110 931 l 1,6,-1
 1110 745 l 1,7,-1
 461 745 l 1,8,-1
 461 199 l 1,9,-1
 1216 199 l 1,10,-1
 1216 0 l 1,11,-1
 156 0 l 1,0,-1
EndSplineSet
EndChar

StartChar: F
Encoding: 70 70 43
Width: 1219
GlyphClass: 2
Flags: W
LayerCount: 2
Fore
SplineSet
461 0 m 1,0,-1
 156 0 l 1,1,-1
 156 1607 l 1,2,-1
 1192 1607 l 1,3,-1
 1192 1405 l 1,4,-1
 461 1405 l 1,5,-1
 461 925 l 1,6,-1
 1114 925 l 1,7,-1
 1114 739 l 1,8,-1
 461 739 l 1,9,-1
 461 0 l 1,0,-1
EndSplineSet
EndChar

StartChar: G
Encoding: 71 71 44
Width: 1561
GlyphClass: 2
Flags: W
LayerCount: 2
Fore
SplineSet
804 191 m 0,0,1
 1083 191 1083 191 1150 347 c 1,2,-1
 1150 679 l 1,3,-1
 764 679 l 1,4,-1
 764 867 l 1,5,-1
 1420 867 l 1,6,-1
 1420 0 l 1,7,-1
 1238 0 l 1,8,-1
 1187 163 l 1,9,10
 1149 64 1149 64 1039.5 15 c 128,-1,11
 930 -34 930 -34 777 -34 c 0,12,13
 639 -34 639 -34 527 6 c 128,-1,14
 415 46 415 46 337 118.5 c 128,-1,15
 259 191 259 191 206.5 294.5 c 128,-1,16
 154 398 154 398 129.5 521.5 c 128,-1,17
 105 645 105 645 105 790 c 0,18,19
 105 984 105 984 150.5 1138.5 c 128,-1,20
 196 1293 196 1293 286.5 1404.5 c 128,-1,21
 377 1516 377 1516 520 1576 c 128,-1,22
 663 1636 663 1636 850 1636 c 0,23,24
 1141 1636 1141 1636 1325 1504 c 1,25,-1
 1233 1298 l 1,26,27
 1038 1411 1038 1411 850 1411 c 0,28,29
 732 1411 732 1411 646 1364.5 c 128,-1,30
 560 1318 560 1318 510 1232.5 c 128,-1,31
 460 1147 460 1147 436.5 1038 c 128,-1,32
 413 929 413 929 413 791 c 0,33,34
 413 191 413 191 804 191 c 0,0,1
EndSplineSet
EndChar

StartChar: H
Encoding: 72 72 45
Width: 1601
GlyphClass: 2
Flags: W
LayerCount: 2
Fore
SplineSet
1139 741 m 1,0,-1
 462 741 l 1,1,-1
 462 0 l 1,2,-1
 156 0 l 1,3,-1
 156 1607 l 1,4,-1
 462 1607 l 1,5,-1
 462 926 l 1,6,-1
 1139 926 l 1,7,-1
 1139 1607 l 1,8,-1
 1444 1607 l 1,9,-1
 1444 0 l 1,10,-1
 1139 0 l 1,11,-1
 1139 741 l 1,0,-1
EndSplineSet
EndChar

StartChar: I
Encoding: 73 73 46
Width: 846
GlyphClass: 2
Flags: W
LayerCount: 2
Fore
SplineSet
273 150 m 1,0,-1
 273 1454 l 1,1,-1
 87 1454 l 1,2,-1
 87 1607 l 1,3,-1
 763 1607 l 1,4,-1
 763 1454 l 1,5,-1
 574 1454 l 1,6,-1
 574 150 l 1,7,-1
 763 150 l 1,8,-1
 763 0 l 1,9,-1
 87 0 l 1,10,-1
 87 150 l 1,11,-1
 273 150 l 1,0,-1
EndSplineSet
EndChar

StartChar: J
Encoding: 74 74 47
Width: 826
GlyphClass: 2
Flags: W
LayerCount: 2
Fore
SplineSet
39 109 m 1,0,1
 164 129 164 129 231.5 168 c 128,-1,2
 299 207 299 207 332 286.5 c 128,-1,3
 365 366 365 366 365 504 c 2,4,-1
 365 1607 l 1,5,-1
 670 1607 l 1,6,-1
 670 519 l 2,7,8
 670 214 670 214 539 70 c 128,-1,9
 408 -74 408 -74 117 -89 c 1,10,-1
 39 109 l 1,0,1
EndSplineSet
EndChar

StartChar: K
Encoding: 75 75 48
Width: 1469
GlyphClass: 2
Flags: W
LayerCount: 2
Fore
SplineSet
462 0 m 1,0,-1
 156 0 l 1,1,-1
 156 1607 l 1,2,-1
 462 1607 l 1,3,-1
 462 895 l 1,4,-1
 601 895 l 1,5,-1
 1067 1607 l 1,6,-1
 1389 1607 l 1,7,-1
 843 809 l 1,8,-1
 1450 0 l 1,9,-1
 1107 0 l 1,10,-1
 593 713 l 1,11,-1
 462 713 l 1,12,-1
 462 0 l 1,0,-1
EndSplineSet
EndChar

StartChar: L
Encoding: 76 76 49
Width: 1216
GlyphClass: 2
Flags: W
LayerCount: 2
Fore
SplineSet
156 0 m 1,0,-1
 156 1607 l 1,1,-1
 461 1607 l 1,2,-1
 461 202 l 1,3,-1
 1181 202 l 1,4,-1
 1181 0 l 1,5,-1
 156 0 l 1,0,-1
EndSplineSet
EndChar

StartChar: M
Encoding: 77 77 50
Width: 1987
GlyphClass: 2
Flags: W
LayerCount: 2
Fore
SplineSet
423 1254 m 1,0,-1
 423 0 l 1,1,-1
 156 0 l 1,2,-1
 156 1607 l 1,3,-1
 557 1607 l 1,4,-1
 989 335 l 1,5,-1
 1430 1607 l 1,6,-1
 1831 1607 l 1,7,-1
 1831 0 l 1,8,-1
 1564 0 l 1,9,-1
 1564 1254 l 1,10,-1
 1140 0 l 1,11,-1
 849 0 l 1,12,-1
 423 1254 l 1,0,-1
EndSplineSet
EndChar

StartChar: N
Encoding: 78 78 51
Width: 1651
GlyphClass: 2
Flags: W
LayerCount: 2
Fore
SplineSet
1160 0 m 1,0,-1
 436 1225 l 1,1,-1
 436 0 l 1,2,-1
 156 0 l 1,3,-1
 156 1607 l 1,4,-1
 504 1607 l 1,5,-1
 1215 395 l 1,6,-1
 1215 1607 l 1,7,-1
 1495 1607 l 1,8,-1
 1495 0 l 1,9,-1
 1160 0 l 1,0,-1
EndSplineSet
EndChar

StartChar: O
Encoding: 79 79 52
Width: 1611
GlyphClass: 2
Flags: W
LayerCount: 2
Fore
SplineSet
805 1635 m 0,0,1
 986 1635 986 1635 1121.5 1576.5 c 128,-1,2
 1257 1518 1257 1518 1341 1408 c 128,-1,3
 1425 1298 1425 1298 1466 1148.5 c 128,-1,4
 1507 999 1507 999 1507 810 c 0,5,6
 1507 656 1507 656 1482.5 528.5 c 128,-1,7
 1458 401 1458 401 1405 295.5 c 128,-1,8
 1352 190 1352 190 1270.5 117.5 c 128,-1,9
 1189 45 1189 45 1071.5 5 c 128,-1,10
 954 -35 954 -35 805 -35 c 0,11,12
 619 -35 619 -35 482.5 26.5 c 128,-1,13
 346 88 346 88 264 203 c 128,-1,14
 182 318 182 318 143 471 c 128,-1,15
 104 624 104 624 104 819 c 0,16,17
 104 968 104 968 130 1092.5 c 128,-1,18
 156 1217 156 1217 211 1318 c 128,-1,19
 266 1419 266 1419 348 1489 c 128,-1,20
 430 1559 430 1559 545.5 1597 c 128,-1,21
 661 1635 661 1635 805 1635 c 0,0,1
808 1411 m 0,22,23
 714 1411 714 1411 643.5 1378 c 128,-1,24
 573 1345 573 1345 529.5 1290.5 c 128,-1,25
 486 1236 486 1236 459.5 1155 c 128,-1,26
 433 1074 433 1074 423 988.5 c 128,-1,27
 413 903 413 903 413 798 c 0,28,29
 413 695 413 695 423 610.5 c 128,-1,30
 433 526 433 526 460 446 c 128,-1,31
 487 366 487 366 530 312 c 128,-1,32
 573 258 573 258 643 225 c 128,-1,33
 713 192 713 192 805 192 c 0,34,35
 883 192 883 192 944.5 214 c 128,-1,36
 1006 236 1006 236 1048.5 277.5 c 128,-1,37
 1091 319 1091 319 1121 373 c 128,-1,38
 1151 427 1151 427 1167.5 497.5 c 128,-1,39
 1184 568 1184 568 1191.5 640.5 c 128,-1,40
 1199 713 1199 713 1199 798 c 0,41,42
 1199 902 1199 902 1189 987 c 128,-1,43
 1179 1072 1179 1072 1152.5 1153.5 c 128,-1,44
 1126 1235 1126 1235 1083 1289.5 c 128,-1,45
 1040 1344 1040 1344 970.5 1377.5 c 128,-1,46
 901 1411 901 1411 808 1411 c 0,22,23
EndSplineSet
EndChar

StartChar: P
Encoding: 80 80 53
Width: 1391
GlyphClass: 2
Flags: W
LayerCount: 2
Fore
SplineSet
598 1607 m 2,0,1
 730 1607 730 1607 835 1593.5 c 128,-1,2
 940 1580 940 1580 1035.5 1545 c 128,-1,3
 1131 1510 1131 1510 1195 1453 c 128,-1,4
 1259 1396 1259 1396 1297.5 1305.5 c 128,-1,5
 1336 1215 1336 1215 1337 1095 c 0,6,7
 1337 1007 1337 1007 1316.5 936 c 128,-1,8
 1296 865 1296 865 1259.5 813.5 c 128,-1,9
 1223 762 1223 762 1167.5 723.5 c 128,-1,10
 1112 685 1112 685 1049.5 661 c 128,-1,11
 987 637 987 637 906 622.5 c 128,-1,12
 825 608 825 608 745 602.5 c 128,-1,13
 665 597 665 597 568 597 c 2,14,-1
 462 597 l 1,15,-1
 462 0 l 1,16,-1
 156 0 l 1,17,-1
 156 1607 l 1,18,-1
 598 1607 l 2,0,1
1030 1083 m 0,19,20
 1030 1180 1030 1180 1000.5 1245 c 128,-1,21
 971 1310 971 1310 911 1344 c 128,-1,22
 851 1378 851 1378 777 1391.5 c 128,-1,23
 703 1405 703 1405 596 1405 c 2,24,-1
 462 1405 l 1,25,-1
 462 791 l 1,26,-1
 559 791 l 2,27,28
 642 791 642 791 706 797.5 c 128,-1,29
 770 804 770 804 833.5 822.5 c 128,-1,30
 897 841 897 841 938 872.5 c 128,-1,31
 979 904 979 904 1004.5 957.5 c 128,-1,32
 1030 1011 1030 1011 1030 1083 c 0,19,20
EndSplineSet
EndChar

StartChar: Q
Encoding: 81 81 54
Width: 1618
GlyphClass: 2
Flags: W
LayerCount: 2
Fore
SplineSet
803 1636 m 0,0,1
 988 1636 988 1636 1125.5 1576.5 c 128,-1,2
 1263 1517 1263 1517 1347 1405.5 c 128,-1,3
 1431 1294 1431 1294 1472 1142.5 c 128,-1,4
 1513 991 1513 991 1513 797 c 0,5,6
 1513 456 1513 456 1381 243.5 c 128,-1,7
 1249 31 1249 31 979 -18 c 1,8,-1
 1309 -262 l 1,9,-1
 1154 -429 l 1,10,-1
 675 -24 l 1,11,12
 528 -5 528 -5 417.5 63.5 c 128,-1,13
 307 132 307 132 239 241.5 c 128,-1,14
 171 351 171 351 138 492 c 128,-1,15
 105 633 105 633 105 805 c 0,16,17
 105 992 105 992 146 1142 c 128,-1,18
 187 1292 187 1292 270.5 1403.5 c 128,-1,19
 354 1515 354 1515 489 1575.5 c 128,-1,20
 624 1636 624 1636 803 1636 c 0,0,1
1205 801 m 256,21,22
 1205 904 1205 904 1195 988.5 c 128,-1,23
 1185 1073 1185 1073 1157.5 1153.5 c 128,-1,24
 1130 1234 1130 1234 1086.5 1289 c 128,-1,25
 1043 1344 1043 1344 972.5 1377.5 c 128,-1,26
 902 1411 902 1411 809 1411 c 128,-1,27
 716 1411 716 1411 645 1378 c 128,-1,28
 574 1345 574 1345 530.5 1290.5 c 128,-1,29
 487 1236 487 1236 460 1155 c 128,-1,30
 433 1074 433 1074 423 989.5 c 128,-1,31
 413 905 413 905 413 801 c 128,-1,32
 413 697 413 697 423 612 c 128,-1,33
 433 527 433 527 460 446.5 c 128,-1,34
 487 366 487 366 530.5 311.5 c 128,-1,35
 574 257 574 257 644.5 224 c 128,-1,36
 715 191 715 191 809 191 c 0,37,38
 902 191 902 191 973 224.5 c 128,-1,39
 1044 258 1044 258 1087.5 313 c 128,-1,40
 1131 368 1131 368 1158 448.5 c 128,-1,41
 1185 529 1185 529 1195 613.5 c 128,-1,42
 1205 698 1205 698 1205 801 c 256,21,22
EndSplineSet
EndChar

StartChar: R
Encoding: 82 82 55
Width: 1463
GlyphClass: 2
Flags: W
LayerCount: 2
Fore
SplineSet
1034 1168 m 0,0,1
 1034 1210 1034 1210 1025 1243.5 c 128,-1,2
 1016 1277 1016 1277 997.5 1301 c 128,-1,3
 979 1325 979 1325 957 1343 c 128,-1,4
 935 1361 935 1361 901 1372 c 128,-1,5
 867 1383 867 1383 837 1390 c 128,-1,6
 807 1397 807 1397 762 1400 c 128,-1,7
 717 1403 717 1403 683 1404 c 128,-1,8
 649 1405 649 1405 598 1405 c 2,9,-1
 462 1405 l 1,10,-1
 462 900 l 1,11,-1
 608 900 l 2,12,13
 683 900 683 900 741.5 906 c 128,-1,14
 800 912 800 912 857 929.5 c 128,-1,15
 914 947 914 947 951 976 c 128,-1,16
 988 1005 988 1005 1011 1053.5 c 128,-1,17
 1034 1102 1034 1102 1034 1168 c 0,0,1
1343 1201 m 0,18,19
 1343 1002 1343 1002 1222.5 906.5 c 128,-1,20
 1102 811 1102 811 889 805 c 1,21,22
 994 793 994 793 1072.5 768.5 c 128,-1,23
 1151 744 1151 744 1216 698 c 128,-1,24
 1281 652 1281 652 1315 576 c 128,-1,25
 1349 500 1349 500 1349 395 c 2,26,-1
 1349 0 l 1,27,-1
 1046 0 l 1,28,-1
 1046 416 l 2,29,30
 1046 492 1046 492 1024 546 c 128,-1,31
 1002 600 1002 600 966.5 632 c 128,-1,32
 931 664 931 664 872 682 c 128,-1,33
 813 700 813 700 752.5 705.5 c 128,-1,34
 692 711 692 711 606 711 c 2,35,-1
 462 711 l 1,36,-1
 462 0 l 1,37,-1
 156 0 l 1,38,-1
 156 1607 l 1,39,-1
 601 1607 l 2,40,41
 691 1607 691 1607 762 1603.5 c 128,-1,42
 833 1600 833 1600 913 1589.5 c 128,-1,43
 993 1579 993 1579 1053 1561.5 c 128,-1,44
 1113 1544 1113 1544 1170 1513 c 128,-1,45
 1227 1482 1227 1482 1263 1440 c 128,-1,46
 1299 1398 1299 1398 1321 1337.5 c 128,-1,47
 1343 1277 1343 1277 1343 1201 c 0,18,19
EndSplineSet
EndChar

StartChar: S
Encoding: 83 83 56
Width: 1325
GlyphClass: 2
Flags: W
LayerCount: 2
Fore
SplineSet
686 1411 m 0,0,1
 618 1411 618 1411 566.5 1403.5 c 128,-1,2
 515 1396 515 1396 468.5 1376 c 128,-1,3
 422 1356 422 1356 397 1316.5 c 128,-1,4
 372 1277 372 1277 372 1218 c 0,5,6
 372 1149 372 1149 412.5 1110.5 c 128,-1,7
 453 1072 453 1072 524 1047 c 1,8,-1
 869 915 l 2,9,10
 950 884 950 884 1012.5 846.5 c 128,-1,11
 1075 809 1075 809 1130.5 753.5 c 128,-1,12
 1186 698 1186 698 1216 619.5 c 128,-1,13
 1246 541 1246 541 1246 443 c 0,14,15
 1246 319 1246 319 1203 226.5 c 128,-1,16
 1160 134 1160 134 1081 77.5 c 128,-1,17
 1002 21 1002 21 896 -6.5 c 128,-1,18
 790 -34 790 -34 658 -34 c 0,19,20
 383 -34 383 -34 127 104 c 1,21,-1
 182 323 l 1,22,23
 203 313 203 313 229.5 302 c 128,-1,24
 256 291 256 291 291.5 278 c 128,-1,25
 327 265 327 265 364.5 253 c 128,-1,26
 402 241 402 241 445.5 229.5 c 128,-1,27
 489 218 489 218 530.5 209.5 c 128,-1,28
 572 201 572 201 616 196 c 128,-1,29
 660 191 660 191 699 191 c 0,30,31
 955 191 955 191 955 402 c 0,32,33
 955 495 955 495 906 549.5 c 128,-1,34
 857 604 857 604 767 637 c 1,35,-1
 413 778 l 1,36,37
 85 907 85 907 85 1196 c 0,38,39
 85 1308 85 1308 129.5 1394 c 128,-1,40
 174 1480 174 1480 252.5 1532 c 128,-1,41
 331 1584 331 1584 431.5 1610 c 128,-1,42
 532 1636 532 1636 650 1636 c 0,43,44
 950 1636 950 1636 1175 1503 c 1,45,-1
 1111 1295 l 1,46,47
 1028 1345 1028 1345 914.5 1378 c 128,-1,48
 801 1411 801 1411 686 1411 c 0,0,1
EndSplineSet
EndChar

StartChar: T
Encoding: 84 84 57
Width: 1214
GlyphClass: 2
Flags: W
LayerCount: 2
Fore
SplineSet
761 1405 m 1,0,-1
 761 0 l 1,1,-1
 455 0 l 1,2,-1
 455 1405 l 1,3,-1
 19 1405 l 1,4,-1
 19 1607 l 1,5,-1
 1191 1607 l 1,6,-1
 1191 1405 l 1,7,-1
 761 1405 l 1,0,-1
EndSplineSet
EndChar

StartChar: U
Encoding: 85 85 58
Width: 1589
GlyphClass: 2
Flags: W
LayerCount: 2
Fore
SplineSet
446 729 m 2,0,1
 446 656 446 656 449 600.5 c 128,-1,2
 452 545 452 545 460.5 486.5 c 128,-1,3
 469 428 469 428 484.5 386 c 128,-1,4
 500 344 500 344 526 305 c 128,-1,5
 552 266 552 266 588.5 242.5 c 128,-1,6
 625 219 625 219 676.5 205 c 128,-1,7
 728 191 728 191 793 191 c 0,8,9
 860 191 860 191 912 205 c 128,-1,10
 964 219 964 219 1000 242 c 128,-1,11
 1036 265 1036 265 1062 304 c 128,-1,12
 1088 343 1088 343 1103 383.5 c 128,-1,13
 1118 424 1118 424 1126.5 484 c 128,-1,14
 1135 544 1135 544 1137.5 598.5 c 128,-1,15
 1140 653 1140 653 1140 729 c 2,16,-1
 1140 1607 l 1,17,-1
 1446 1607 l 1,18,-1
 1446 733 l 2,19,20
 1446 548 1446 548 1411.5 410 c 128,-1,21
 1377 272 1377 272 1301.5 170.5 c 128,-1,22
 1226 69 1226 69 1099.5 17.5 c 128,-1,23
 973 -34 973 -34 797 -34 c 0,24,25
 618 -34 618 -34 490.5 17 c 128,-1,26
 363 68 363 68 286.5 168.5 c 128,-1,27
 210 269 210 269 175 407.5 c 128,-1,28
 140 546 140 546 140 733 c 2,29,-1
 140 1607 l 1,30,-1
 446 1607 l 1,31,-1
 446 729 l 2,0,1
EndSplineSet
EndChar

StartChar: V
Encoding: 86 86 59
Width: 1413
GlyphClass: 2
Flags: W
LayerCount: 2
Fore
SplineSet
709 383 m 1,0,-1
 1082 1607 l 1,1,-1
 1370 1607 l 1,2,-1
 868 0 l 1,3,-1
 545 0 l 1,4,-1
 43 1607 l 1,5,-1
 329 1607 l 1,6,-1
 709 383 l 1,0,-1
EndSplineSet
EndChar

StartChar: W
Encoding: 87 87 60
Width: 2028
GlyphClass: 2
Flags: W
LayerCount: 2
Fore
SplineSet
1189 1607 m 1,0,-1
 1435 331 l 1,1,-1
 1691 1607 l 1,2,-1
 1986 1607 l 1,3,-1
 1638 -2 l 1,4,-1
 1261 -2 l 1,5,-1
 1014 1338 l 1,6,-1
 751 0 l 1,7,-1
 388 0 l 1,8,-1
 41 1607 l 1,9,-1
 336 1607 l 1,10,-1
 591 331 l 1,11,-1
 837 1607 l 1,12,-1
 1189 1607 l 1,0,-1
EndSplineSet
EndChar

StartChar: X
Encoding: 88 88 61
Width: 1374
GlyphClass: 2
Flags: W
LayerCount: 2
Fore
SplineSet
1040 1607 m 1,0,-1
 1354 1607 l 1,1,-1
 858 805 l 1,2,-1
 1355 0 l 1,3,-1
 1026 0 l 1,4,-1
 687 556 l 1,5,-1
 348 0 l 1,6,-1
 19 0 l 1,7,-1
 516 805 l 1,8,-1
 20 1607 l 1,9,-1
 335 1607 l 1,10,-1
 687 1029 l 1,11,-1
 1040 1607 l 1,0,-1
EndSplineSet
EndChar

StartChar: Y
Encoding: 89 89 62
Width: 1291
GlyphClass: 2
Flags: W
LayerCount: 2
Fore
SplineSet
1002 1607 m 1,0,-1
 1310 1607 l 1,1,-1
 789 514 l 1,2,-1
 789 0 l 1,3,-1
 498 0 l 1,4,-1
 498 514 l 1,5,-1
 -19 1607 l 1,6,-1
 287 1607 l 1,7,-1
 645 830 l 1,8,-1
 1002 1607 l 1,0,-1
EndSplineSet
EndChar

StartChar: Z
Encoding: 90 90 63
Width: 1250
GlyphClass: 2
Flags: W
LayerCount: 2
Fore
SplineSet
1174 1405 m 1,0,-1
 412 202 l 1,1,-1
 1176 202 l 1,2,-1
 1176 0 l 1,3,-1
 78 0 l 1,4,-1
 78 214 l 1,5,-1
 843 1405 l 1,6,-1
 78 1405 l 1,7,-1
 78 1607 l 1,8,-1
 1174 1607 l 1,9,-1
 1174 1405 l 1,0,-1
EndSplineSet
EndChar

StartChar: bracketleft
Encoding: 91 91 64
Width: 1137
GlyphClass: 2
Flags: W
LayerCount: 2
Fore
SplineSet
978 1607 m 1,0,-1
 978 1405 l 1,1,-1
 532 1405 l 1,2,-1
 532 202 l 1,3,-1
 978 202 l 1,4,-1
 978 0 l 1,5,-1
 249 0 l 1,6,-1
 249 1607 l 1,7,-1
 978 1607 l 1,0,-1
EndSplineSet
EndChar

StartChar: backslash
Encoding: 92 92 65
Width: 1142
GlyphClass: 2
Flags: W
LayerCount: 2
Fore
SplineSet
1013 -70 m 1,0,-1
 751 -159 l 1,1,-1
 149 1647 l 1,2,-1
 411 1733 l 1,3,-1
 1013 -70 l 1,0,-1
EndSplineSet
EndChar

StartChar: bracketright
Encoding: 93 93 66
Width: 1161
GlyphClass: 2
Flags: W
LayerCount: 2
Fore
SplineSet
935 1607 m 1,0,-1
 935 0 l 1,1,-1
 206 0 l 1,2,-1
 206 202 l 1,3,-1
 651 202 l 1,4,-1
 651 1405 l 1,5,-1
 206 1405 l 1,6,-1
 206 1607 l 1,7,-1
 935 1607 l 1,0,-1
EndSplineSet
EndChar

StartChar: asciicircum
Encoding: 94 94 67
Width: 1331
GlyphClass: 2
Flags: W
LayerCount: 2
Fore
SplineSet
763 1135 m 1,0,-1
 1039 552 l 1,1,-1
 819 521 l 1,2,-1
 664 909 l 1,3,-1
 510 521 l 1,4,-1
 291 552 l 1,5,-1
 568 1135 l 1,6,-1
 763 1135 l 1,0,-1
EndSplineSet
EndChar

StartChar: underscore
Encoding: 95 95 68
Width: 1204
GlyphClass: 2
Flags: W
LayerCount: 2
Fore
SplineSet
92 -105 m 1,0,-1
 92 115 l 1,1,-1
 1084 115 l 1,2,-1
 1084 -105 l 1,3,-1
 92 -105 l 1,0,-1
EndSplineSet
EndChar

StartChar: grave
Encoding: 96 96 69
Width: 844
GlyphClass: 2
Flags: W
LayerCount: 2
Fore
SplineSet
181 776 m 1,0,-1
 470 901 l 1,1,-1
 657 275 l 1,2,-1
 533 218 l 1,3,-1
 181 776 l 1,0,-1
EndSplineSet
EndChar

StartChar: a
Encoding: 97 97 70
Width: 1244
GlyphClass: 2
Flags: W
LayerCount: 2
Fore
SplineSet
819 709 m 1,0,1
 819 774 819 774 816 814 c 128,-1,2
 813 854 813 854 802 897 c 128,-1,3
 791 940 791 940 770 963 c 128,-1,4
 749 986 749 986 710.5 1001 c 128,-1,5
 672 1016 672 1016 617 1016 c 0,6,7
 417 1016 417 1016 239 912 c 1,8,-1
 160 1094 l 1,9,10
 364 1215 364 1215 624 1215 c 0,11,12
 762 1215 762 1215 855.5 1182 c 128,-1,13
 949 1149 949 1149 1005.5 1078.5 c 128,-1,14
 1062 1008 1062 1008 1086 908.5 c 128,-1,15
 1110 809 1110 809 1110 666 c 2,16,-1
 1110 0 l 1,17,-1
 886 0 l 1,18,-1
 846 164 l 1,19,20
 784 70 784 70 702.5 23 c 128,-1,21
 621 -24 621 -24 494 -24 c 0,22,23
 300 -24 300 -24 192.5 74 c 128,-1,24
 85 172 85 172 85 360 c 0,25,26
 85 453 85 453 119 524.5 c 128,-1,27
 153 596 153 596 214 640 c 128,-1,28
 275 684 275 684 353.5 707.5 c 128,-1,29
 432 731 432 731 528 735 c 1,30,31
 684 735 684 735 819 709 c 1,0,1
378 382 m 0,32,33
 378 177 378 177 569 177 c 0,34,35
 648 177 648 177 706.5 209.5 c 128,-1,36
 765 242 765 242 819 300 c 1,37,-1
 819 561 l 1,38,39
 807 561 807 561 781 564.5 c 128,-1,40
 755 568 755 568 750 568 c 2,41,-1
 706 572 l 2,42,43
 676 574 676 574 667 574 c 0,44,45
 613 574 613 574 573 570 c 128,-1,46
 533 566 533 566 494.5 553.5 c 128,-1,47
 456 541 456 541 431.5 520 c 128,-1,48
 407 499 407 499 392.5 464.5 c 128,-1,49
 378 430 378 430 378 382 c 0,32,33
EndSplineSet
EndChar

StartChar: b
Encoding: 98 98 71
Width: 1325
GlyphClass: 2
Flags: W
LayerCount: 2
Fore
SplineSet
446 292 m 1,0,1
 503 235 503 235 565 206 c 128,-1,2
 627 177 627 177 713 177 c 0,3,4
 784 177 784 177 833 210.5 c 128,-1,5
 882 244 882 244 907.5 307 c 128,-1,6
 933 370 933 370 943 441.5 c 128,-1,7
 953 513 953 513 953 608 c 0,8,9
 953 678 953 678 949 730.5 c 128,-1,10
 945 783 945 783 931.5 840 c 128,-1,11
 918 897 918 897 895 933 c 128,-1,12
 872 969 872 969 830.5 992.5 c 128,-1,13
 789 1016 789 1016 732 1016 c 0,14,15
 646 1016 646 1016 580 983.5 c 128,-1,16
 514 951 514 951 446 890 c 1,17,-1
 446 292 l 1,0,1
1248 616 m 0,18,19
 1248 528 1248 528 1236 448.5 c 128,-1,20
 1224 369 1224 369 1200 296.5 c 128,-1,21
 1176 224 1176 224 1136 166 c 128,-1,22
 1096 108 1096 108 1043 65 c 128,-1,23
 990 22 990 22 918 -1 c 128,-1,24
 846 -24 846 -24 759 -24 c 0,25,26
 520 -24 520 -24 419 174 c 1,27,-1
 361 0 l 1,28,-1
 154 0 l 1,29,-1
 154 1668 l 1,30,-1
 446 1712 l 1,31,-1
 446 1067 l 1,32,33
 507 1134 507 1134 590.5 1174.5 c 128,-1,34
 674 1215 674 1215 773 1215 c 0,35,36
 866 1215 866 1215 944.5 1183 c 128,-1,37
 1023 1151 1023 1151 1078.5 1095.5 c 128,-1,38
 1134 1040 1134 1040 1172.5 964 c 128,-1,39
 1211 888 1211 888 1229.5 800 c 128,-1,40
 1248 712 1248 712 1248 616 c 0,18,19
EndSplineSet
EndChar

StartChar: c
Encoding: 99 99 72
Width: 1104
GlyphClass: 2
Flags: W
LayerCount: 2
Fore
SplineSet
1041 91 m 1,0,1
 881 -24 881 -24 653 -24 c 0,2,3
 379 -24 379 -24 232 139.5 c 128,-1,4
 85 303 85 303 85 585 c 0,5,6
 85 768 85 768 150.5 909.5 c 128,-1,7
 216 1051 216 1051 347 1133 c 128,-1,8
 478 1215 478 1215 656 1215 c 0,9,10
 890 1215 890 1215 1041 1105 c 1,11,-1
 978 912 l 1,12,13
 852 1016 852 1016 686 1016 c 1,14,15
 518 1008 518 1008 448.5 899.5 c 128,-1,16
 379 791 379 791 379 591 c 0,17,18
 379 398 379 398 454 287.5 c 128,-1,19
 529 177 529 177 691 177 c 0,20,21
 781 177 781 177 847.5 204.5 c 128,-1,22
 914 232 914 232 978 283 c 1,23,-1
 1041 91 l 1,0,1
EndSplineSet
EndChar

StartChar: d
Encoding: 100 100 73
Width: 1323
GlyphClass: 2
Flags: W
LayerCount: 2
Fore
SplineSet
597 1016 m 0,0,1
 549 1016 549 1016 511.5 1000 c 128,-1,2
 474 984 474 984 450.5 952 c 128,-1,3
 427 920 427 920 411.5 883.5 c 128,-1,4
 396 847 396 847 388.5 795.5 c 128,-1,5
 381 744 381 744 378 699 c 128,-1,6
 375 654 375 654 375 596 c 0,7,8
 375 527 375 527 380.5 470.5 c 128,-1,9
 386 414 386 414 402 357.5 c 128,-1,10
 418 301 418 301 444.5 262.5 c 128,-1,11
 471 224 471 224 515.5 200.5 c 128,-1,12
 560 177 560 177 619 177 c 0,13,14
 788 177 788 177 884 293 c 1,15,-1
 884 890 l 1,16,17
 836 929 836 929 801 952 c 128,-1,18
 766 975 766 975 710.5 995.5 c 128,-1,19
 655 1016 655 1016 597 1016 c 0,0,1
85 629 m 0,20,21
 85 746 85 746 114 850.5 c 128,-1,22
 143 955 143 955 198.5 1037 c 128,-1,23
 254 1119 254 1119 342.5 1167 c 128,-1,24
 431 1215 431 1215 541 1215 c 0,25,26
 759 1215 759 1215 884 1057 c 1,27,-1
 884 1668 l 1,28,-1
 1176 1712 l 1,29,-1
 1176 0 l 1,30,-1
 967 0 l 1,31,-1
 909 174 l 1,32,33
 865 88 865 88 773 32 c 128,-1,34
 681 -24 681 -24 565 -24 c 0,35,36
 461 -24 461 -24 378.5 10 c 128,-1,37
 296 44 296 44 241.5 102.5 c 128,-1,38
 187 161 187 161 151.5 245 c 128,-1,39
 116 329 116 329 100.5 423.5 c 128,-1,40
 85 518 85 518 85 629 c 0,20,21
EndSplineSet
EndChar

StartChar: e
Encoding: 101 101 74
Width: 1203
GlyphClass: 2
Flags: W
LayerCount: 2
Fore
SplineSet
693 177 m 0,0,1
 789 177 789 177 859 203 c 128,-1,2
 929 229 929 229 997 281 c 1,3,-1
 1063 84 l 1,4,5
 882 -24 882 -24 670 -24 c 0,6,7
 393 -24 393 -24 239 133 c 128,-1,8
 85 290 85 290 85 568 c 0,9,10
 85 711 85 711 119.5 828 c 128,-1,11
 154 945 154 945 221 1032 c 128,-1,12
 288 1119 288 1119 394.5 1167 c 128,-1,13
 501 1215 501 1215 638 1215 c 0,14,15
 872 1215 872 1215 996 1073 c 128,-1,16
 1120 931 1120 931 1120 685 c 0,17,18
 1120 609 1120 609 1117 537 c 1,19,-1
 384 537 l 1,20,21
 386 366 386 366 462.5 271.5 c 128,-1,22
 539 177 539 177 693 177 c 0,0,1
877 704 m 2,23,24
 877 849 877 849 821 931.5 c 128,-1,25
 765 1014 765 1014 645 1016 c 1,26,27
 518 1012 518 1012 453.5 922.5 c 128,-1,28
 389 833 389 833 383 690 c 1,29,-1
 877 690 l 1,30,-1
 877 704 l 2,23,24
EndSplineSet
EndChar

StartChar: f
Encoding: 102 102 75
Width: 854
GlyphClass: 2
Flags: W
LayerCount: 2
Fore
SplineSet
820 1453 m 1,0,1
 709 1494 709 1494 656 1494 c 0,2,3
 551 1494 551 1494 524 1375 c 0,4,5
 512 1320 512 1320 512 1191 c 2,6,-1
 512 1185 l 1,7,-1
 824 1185 l 1,8,-1
 824 1053 l 1,9,-1
 512 1053 l 1,10,-1
 512 0 l 1,11,-1
 219 0 l 1,12,-1
 219 1053 l 1,13,-1
 24 1053 l 1,14,-1
 24 1185 l 1,15,-1
 219 1185 l 1,16,17
 219 1309 219 1309 237.5 1401.5 c 128,-1,18
 256 1494 256 1494 298 1565.5 c 128,-1,19
 340 1637 340 1637 415 1674 c 128,-1,20
 490 1711 490 1711 597 1711 c 0,21,22
 732 1711 732 1711 845 1661 c 1,23,-1
 820 1453 l 1,0,1
EndSplineSet
EndChar

StartChar: g
Encoding: 103 103 76
Width: 1280
GlyphClass: 2
Flags: W
LayerCount: 2
Fore
SplineSet
478 69 m 1,0,1
 418 36 418 36 375 -24.5 c 128,-1,2
 332 -85 332 -85 332 -159 c 0,3,4
 332 -198 332 -198 352 -226 c 128,-1,5
 372 -254 372 -254 408.5 -269.5 c 128,-1,6
 445 -285 445 -285 487.5 -292 c 128,-1,7
 530 -299 530 -299 582 -299 c 0,8,9
 625 -299 625 -299 648 -298.5 c 128,-1,10
 671 -298 671 -298 709.5 -296.5 c 128,-1,11
 748 -295 748 -295 770 -292 c 128,-1,12
 792 -289 792 -289 823 -282.5 c 128,-1,13
 854 -276 854 -276 872 -266.5 c 128,-1,14
 890 -257 890 -257 910.5 -242.5 c 128,-1,15
 931 -228 931 -228 941.5 -209.5 c 128,-1,16
 952 -191 952 -191 959.5 -166 c 128,-1,17
 967 -141 967 -141 967 -110 c 0,18,19
 967 -69 967 -69 951 -38.5 c 128,-1,20
 935 -8 935 -8 903.5 10.5 c 128,-1,21
 872 29 872 29 837.5 40 c 128,-1,22
 803 51 803 51 752 56 c 128,-1,23
 701 61 701 61 662 63 c 128,-1,24
 623 65 623 65 566 66 c 128,-1,25
 509 67 509 67 478 69 c 1,0,1
631 1018 m 0,26,27
 519 1018 519 1018 464 974.5 c 128,-1,28
 409 931 409 931 409 828 c 0,29,30
 409 749 409 749 445.5 690.5 c 128,-1,31
 482 632 482 632 541 602 c 1,32,-1
 663 615 l 1,33,34
 747 629 747 629 796 687.5 c 128,-1,35
 845 746 845 746 845 841 c 0,36,37
 845 938 845 938 792 978 c 128,-1,38
 739 1018 739 1018 631 1018 c 0,26,27
910 1148 m 1,39,40
 1035 1207 1035 1207 1222 1207 c 2,41,-1
 1266 1207 l 1,42,-1
 1266 1008 l 1,43,-1
 1018 1008 l 1,44,45
 1042 977 1042 977 1054 959.5 c 128,-1,46
 1066 942 1066 942 1078 911 c 128,-1,47
 1090 880 1090 880 1090 849 c 0,48,49
 1090 667 1090 667 985 569.5 c 128,-1,50
 880 472 880 472 695 449 c 1,51,-1
 367 406 l 1,52,-1
 386 272 l 1,53,-1
 667 260 l 2,54,55
 749 256 749 256 812.5 248 c 128,-1,56
 876 240 876 240 942.5 223.5 c 128,-1,57
 1009 207 1009 207 1056.5 180 c 128,-1,58
 1104 153 1104 153 1143 113.5 c 128,-1,59
 1182 74 1182 74 1201.5 15.5 c 128,-1,60
 1221 -43 1221 -43 1221 -117 c 0,61,62
 1221 -213 1221 -213 1186 -285 c 128,-1,63
 1151 -357 1151 -357 1094 -400.5 c 128,-1,64
 1037 -444 1037 -444 952 -470.5 c 128,-1,65
 867 -497 867 -497 779 -506.5 c 128,-1,66
 691 -516 691 -516 582 -516 c 0,67,68
 493 -516 493 -516 422.5 -506.5 c 128,-1,69
 352 -497 352 -497 290 -472.5 c 128,-1,70
 228 -448 228 -448 186.5 -408.5 c 128,-1,71
 145 -369 145 -369 121.5 -307.5 c 128,-1,72
 98 -246 98 -246 98 -164 c 0,73,74
 98 9 98 9 303 106 c 1,75,76
 212 119 212 119 175.5 180 c 128,-1,77
 139 241 139 241 133 356 c 1,78,79
 133 386 133 386 141 411.5 c 128,-1,80
 149 437 149 437 159 454.5 c 128,-1,81
 169 472 169 472 191.5 487.5 c 128,-1,82
 214 503 214 503 228.5 511.5 c 128,-1,83
 243 520 243 520 275 530 c 128,-1,84
 307 540 307 540 322 543.5 c 128,-1,85
 337 547 337 547 374 556 c 1,86,87
 273 569 273 569 212.5 643 c 128,-1,88
 152 717 152 717 152 831 c 0,89,90
 152 1020 152 1020 278.5 1117.5 c 128,-1,91
 405 1215 405 1215 613 1215 c 0,92,93
 812 1215 812 1215 910 1148 c 1,39,40
EndSplineSet
EndChar

StartChar: h
Encoding: 104 104 77
Width: 1350
GlyphClass: 2
Flags: W
LayerCount: 2
Fore
SplineSet
729 1016 m 0,0,1
 560 1016 560 1016 446 902 c 1,2,-1
 446 0 l 1,3,-1
 154 0 l 1,4,-1
 154 1662 l 1,5,-1
 446 1714 l 1,6,-1
 446 1049 l 1,7,8
 516 1132 516 1132 596.5 1173.5 c 128,-1,9
 677 1215 677 1215 796 1215 c 0,10,11
 910 1215 910 1215 992.5 1178.5 c 128,-1,12
 1075 1142 1075 1142 1122.5 1072 c 128,-1,13
 1170 1002 1170 1002 1192 909.5 c 128,-1,14
 1214 817 1214 817 1214 696 c 2,15,-1
 1214 0 l 1,16,-1
 922 0 l 1,17,-1
 922 711 l 2,18,19
 922 779 922 779 913 831.5 c 128,-1,20
 904 884 904 884 883.5 927 c 128,-1,21
 863 970 863 970 824 993 c 128,-1,22
 785 1016 785 1016 729 1016 c 0,0,1
EndSplineSet
EndChar

StartChar: i
Encoding: 105 105 78
Width: 649
GlyphClass: 2
Flags: W
LayerCount: 2
Fore
SplineSet
179 0 m 1,0,-1
 179 1185 l 1,1,-1
 468 1185 l 1,2,-1
 468 0 l 1,3,-1
 179 0 l 1,0,-1
325 1412 m 0,4,5
 252 1412 252 1412 206.5 1458.5 c 128,-1,6
 161 1505 161 1505 161 1578 c 0,7,8
 161 1649 161 1649 207.5 1696.5 c 128,-1,9
 254 1744 254 1744 325 1744 c 128,-1,10
 396 1744 396 1744 443 1696.5 c 128,-1,11
 490 1649 490 1649 490 1578 c 128,-1,12
 490 1507 490 1507 443 1459.5 c 128,-1,13
 396 1412 396 1412 325 1412 c 0,4,5
EndSplineSet
EndChar

StartChar: j
Encoding: 106 106 79
Width: 656
GlyphClass: 2
Flags: W
LayerCount: 2
Fore
SplineSet
352 1410 m 128,-1,1
 281 1410 281 1410 236 1456.5 c 128,-1,2
 191 1503 191 1503 191 1576 c 0,3,4
 191 1648 191 1648 236 1695 c 128,-1,5
 281 1742 281 1742 352 1742 c 0,6,7
 422 1742 422 1742 467.5 1694.5 c 128,-1,8
 513 1647 513 1647 513 1576 c 0,9,10
 513 1504 513 1504 468 1457 c 128,-1,0
 423 1410 423 1410 352 1410 c 128,-1,1
2 -173 m 1,11,12
 113 -105 113 -105 159.5 -4 c 128,-1,13
 206 97 206 97 206 274 c 2,14,-1
 206 1185 l 1,15,-1
 500 1185 l 1,16,-1
 500 187 l 2,17,18
 500 -29 500 -29 386.5 -175.5 c 128,-1,19
 273 -322 273 -322 89 -364 c 1,20,-1
 2 -173 l 1,11,12
EndSplineSet
EndChar

StartChar: k
Encoding: 107 107 80
Width: 1322
GlyphClass: 2
Flags: W
LayerCount: 2
Fore
SplineSet
446 0 m 1,0,-1
 154 0 l 1,1,-1
 154 1668 l 1,2,-1
 446 1713 l 1,3,-1
 446 706 l 1,4,-1
 942 1185 l 1,5,-1
 1267 1185 l 1,6,-1
 729 660 l 1,7,-1
 1287 0 l 1,8,-1
 954 0 l 1,9,-1
 550 529 l 1,10,-1
 446 436 l 1,11,-1
 446 0 l 1,0,-1
EndSplineSet
EndChar

StartChar: l
Encoding: 108 108 81
Width: 621
GlyphClass: 2
Flags: W
LayerCount: 2
Fore
SplineSet
457 0 m 1,0,-1
 163 0 l 1,1,-1
 163 1668 l 1,2,-1
 457 1712 l 1,3,-1
 457 0 l 1,0,-1
EndSplineSet
EndChar

StartChar: m
Encoding: 109 109 82
Width: 1985
GlyphClass: 2
Flags: W
LayerCount: 2
Fore
SplineSet
698 1011 m 0,0,1
 657 1011 657 1011 619.5 998 c 128,-1,2
 582 985 582 985 549.5 960 c 128,-1,3
 517 935 517 935 495 913 c 128,-1,4
 473 891 473 891 446 858 c 1,5,-1
 446 0 l 1,6,-1
 154 0 l 1,7,-1
 154 1185 l 1,8,-1
 363 1185 l 1,9,-1
 422 992 l 1,10,11
 527 1215 527 1215 775 1215 c 0,12,13
 1013 1215 1013 1215 1096 1019 c 1,14,15
 1232 1215 1232 1215 1484 1215 c 0,16,17
 1668 1215 1668 1215 1758.5 1096 c 128,-1,18
 1849 977 1849 977 1849 773 c 2,19,-1
 1849 0 l 1,20,-1
 1556 0 l 1,21,-1
 1556 790 l 2,22,23
 1556 840 1556 840 1548.5 879 c 128,-1,24
 1541 918 1541 918 1525 949.5 c 128,-1,25
 1509 981 1509 981 1479.5 997.5 c 128,-1,26
 1450 1014 1450 1014 1409 1014 c 0,27,28
 1373 1014 1373 1014 1340 1006 c 128,-1,29
 1307 998 1307 998 1283.5 987 c 128,-1,30
 1260 976 1260 976 1232.5 955.5 c 128,-1,31
 1205 935 1205 935 1188.5 919 c 128,-1,32
 1172 903 1172 903 1145 876 c 1,33,-1
 1145 0 l 1,34,-1
 853 0 l 1,35,-1
 853 797 l 2,36,37
 853 904 853 904 819.5 957.5 c 128,-1,38
 786 1011 786 1011 698 1011 c 0,0,1
EndSplineSet
EndChar

StartChar: n
Encoding: 110 110 83
Width: 1332
GlyphClass: 2
Flags: W
LayerCount: 2
Fore
SplineSet
715 1016 m 0,0,1
 634 1016 634 1016 560 976 c 128,-1,2
 486 936 486 936 446 881 c 1,3,-1
 446 0 l 1,4,-1
 154 0 l 1,5,-1
 154 1185 l 1,6,-1
 374 1185 l 1,7,-1
 425 1017 l 1,8,9
 478 1105 478 1105 572 1160 c 128,-1,10
 666 1215 666 1215 788 1215 c 0,11,12
 1004 1215 1004 1215 1100 1093.5 c 128,-1,13
 1196 972 1196 972 1196 737 c 2,14,-1
 1196 0 l 1,15,-1
 903 0 l 1,16,-1
 903 752 l 2,17,18
 903 884 903 884 862 950 c 128,-1,19
 821 1016 821 1016 715 1016 c 0,0,1
EndSplineSet
EndChar

StartChar: o
Encoding: 111 111 84
Width: 1299
GlyphClass: 2
Flags: W
LayerCount: 2
Fore
SplineSet
372 588 m 0,0,1
 372 168 372 168 647 168 c 0,2,3
 711 168 711 168 760 190.5 c 128,-1,4
 809 213 809 213 839.5 251 c 128,-1,5
 870 289 870 289 889 344.5 c 128,-1,6
 908 400 908 400 915 458.5 c 128,-1,7
 922 517 922 517 922 588 c 0,8,9
 922 1010 922 1010 647 1010 c 128,-1,10
 372 1010 372 1010 372 588 c 0,0,1
646 1210 m 256,11,12
 924 1210 924 1210 1066.5 1044.5 c 128,-1,13
 1209 879 1209 879 1209 587 c 0,14,15
 1209 297 1209 297 1066.5 133 c 128,-1,16
 924 -31 924 -31 646 -31 c 128,-1,17
 368 -31 368 -31 225 133.5 c 128,-1,18
 82 298 82 298 82 587 c 0,19,20
 82 878 82 878 225 1044 c 128,-1,21
 368 1210 368 1210 646 1210 c 256,11,12
EndSplineSet
EndChar

StartChar: p
Encoding: 112 112 85
Width: 1332
GlyphClass: 2
Flags: W
LayerCount: 2
Fore
SplineSet
956 577 m 0,0,1
 956 635 956 635 953 681.5 c 128,-1,2
 950 728 950 728 942.5 781.5 c 128,-1,3
 935 835 935 835 919.5 874 c 128,-1,4
 904 913 904 913 880.5 947 c 128,-1,5
 857 981 857 981 820.5 998.5 c 128,-1,6
 784 1016 784 1016 736 1016 c 0,7,8
 651 1016 651 1016 575.5 979 c 128,-1,9
 500 942 500 942 446 886 c 1,10,-1
 446 314 l 1,11,12
 592 177 592 177 730 177 c 0,13,14
 956 177 956 177 956 577 c 0,0,1
1247 586 m 0,15,16
 1247 456 1247 456 1217 347 c 128,-1,17
 1187 238 1187 238 1128.5 154 c 128,-1,18
 1070 70 1070 70 974.5 23 c 128,-1,19
 879 -24 879 -24 756 -24 c 0,20,21
 569 -24 569 -24 446 140 c 1,22,-1
 446 -437 l 1,23,-1
 154 -446 l 1,24,-1
 154 1185 l 1,25,-1
 375 1185 l 1,26,-1
 429 1012 l 1,27,28
 475 1105 475 1105 561 1160 c 128,-1,29
 647 1215 647 1215 768 1215 c 0,30,31
 870 1215 870 1215 951 1185 c 128,-1,32
 1032 1155 1032 1155 1087 1100.5 c 128,-1,33
 1142 1046 1142 1046 1178.5 966.5 c 128,-1,34
 1215 887 1215 887 1231 793 c 128,-1,35
 1247 699 1247 699 1247 586 c 0,15,16
EndSplineSet
EndChar

StartChar: q
Encoding: 113 113 86
Width: 1323
GlyphClass: 2
Flags: W
LayerCount: 2
Fore
SplineSet
374 588 m 0,0,1
 374 520 374 520 378.5 466.5 c 128,-1,2
 383 413 383 413 398 356.5 c 128,-1,3
 413 300 413 300 437.5 262.5 c 128,-1,4
 462 225 462 225 504.5 201 c 128,-1,5
 547 177 547 177 605 177 c 0,6,7
 749 177 749 177 884 308 c 1,8,-1
 884 870 l 1,9,10
 769 1016 769 1016 614 1016 c 0,11,12
 554 1016 554 1016 509.5 991 c 128,-1,13
 465 966 465 966 439.5 927 c 128,-1,14
 414 888 414 888 399 829 c 128,-1,15
 384 770 384 770 379 714 c 128,-1,16
 374 658 374 658 374 588 c 0,0,1
85 586 m 0,17,18
 85 1215 85 1215 572 1215 c 0,19,20
 783 1215 783 1215 892 1009 c 1,21,-1
 935 1185 l 1,22,-1
 1176 1185 l 1,23,-1
 1176 -442 l 1,24,-1
 884 -452 l 1,25,-1
 884 141 l 1,26,27
 746 -24 746 -24 566 -24 c 0,28,29
 467 -24 467 -24 386 7 c 128,-1,30
 305 38 305 38 249.5 93 c 128,-1,31
 194 148 194 148 156.5 225 c 128,-1,32
 119 302 119 302 102 392 c 128,-1,33
 85 482 85 482 85 586 c 0,17,18
EndSplineSet
EndChar

StartChar: r
Encoding: 114 114 87
Width: 852
GlyphClass: 2
Flags: W
LayerCount: 2
Fore
SplineSet
708 956 m 0,0,1
 583 956 583 956 446 840 c 1,2,-1
 446 0 l 1,3,-1
 154 0 l 1,4,-1
 154 1185 l 1,5,-1
 397 1185 l 1,6,-1
 433 994 l 1,7,8
 489 1087 489 1087 562 1138.5 c 128,-1,9
 635 1190 635 1190 748 1190 c 0,10,11
 771 1190 771 1190 819 1188 c 1,12,-1
 819 944 l 1,13,14
 791 956 791 956 708 956 c 0,0,1
EndSplineSet
EndChar

StartChar: s
Encoding: 115 115 88
Width: 1070
GlyphClass: 2
Flags: W
LayerCount: 2
Fore
SplineSet
522 177 m 0,0,1
 721 177 721 177 721 332 c 0,2,3
 721 360 721 360 709 382.5 c 128,-1,4
 697 405 697 405 673.5 421.5 c 128,-1,5
 650 438 650 438 629.5 448.5 c 128,-1,6
 609 459 609 459 578 470 c 2,7,-1
 345 560 l 2,8,9
 288 581 288 581 245.5 606 c 128,-1,10
 203 631 203 631 166 669 c 128,-1,11
 129 707 129 707 110 761.5 c 128,-1,12
 91 816 91 816 91 886 c 0,13,14
 91 970 91 970 126.5 1034.5 c 128,-1,15
 162 1099 162 1099 224.5 1138 c 128,-1,16
 287 1177 287 1177 365 1196 c 128,-1,17
 443 1215 443 1215 534 1215 c 0,18,19
 653 1215 653 1215 773 1186.5 c 128,-1,20
 893 1158 893 1158 957 1109 c 1,21,-1
 891 921 l 1,22,23
 837 961 837 961 736.5 988.5 c 128,-1,24
 636 1016 636 1016 545 1016 c 0,25,26
 350 1016 350 1016 350 886 c 0,27,28
 350 861 350 861 359 842 c 128,-1,29
 368 823 368 823 385.5 810.5 c 128,-1,30
 403 798 403 798 420 790 c 128,-1,31
 437 782 437 782 460 773 c 0,32,33
 467 770 467 770 471 769 c 2,34,-1
 663 698 l 2,35,36
 720 677 720 677 760 658.5 c 128,-1,37
 800 640 800 640 847 609 c 128,-1,38
 894 578 894 578 923 543.5 c 128,-1,39
 952 509 952 509 972 458 c 128,-1,40
 992 407 992 407 992 345 c 0,41,42
 992 252 992 252 957 180.5 c 128,-1,43
 922 109 922 109 860 64.5 c 128,-1,44
 798 20 798 20 716 -2 c 128,-1,45
 634 -24 634 -24 536 -24 c 0,46,47
 409 -24 409 -24 288 7 c 128,-1,48
 167 38 167 38 97 90 c 1,49,-1
 163 281 l 1,50,51
 217 239 217 239 324 208 c 128,-1,52
 431 177 431 177 522 177 c 0,0,1
EndSplineSet
EndChar

StartChar: t
Encoding: 116 116 89
Width: 919
GlyphClass: 2
Flags: W
LayerCount: 2
Fore
SplineSet
889 72 m 1,0,1
 737 -24 737 -24 553 -24 c 0,2,3
 473 -24 473 -24 414 0 c 128,-1,4
 355 24 355 24 318 64.5 c 128,-1,5
 281 105 281 105 258.5 167.5 c 128,-1,6
 236 230 236 230 227.5 298.5 c 128,-1,7
 219 367 219 367 219 455 c 2,8,-1
 219 1054 l 1,9,-1
 16 1054 l 1,10,-1
 16 1185 l 1,11,-1
 226 1185 l 1,12,-1
 236 1597 l 1,13,-1
 510 1667 l 1,14,-1
 510 1185 l 1,15,-1
 845 1185 l 1,16,-1
 845 1054 l 1,17,-1
 510 1054 l 1,18,-1
 510 377 l 2,19,20
 510 279 510 279 534 228 c 128,-1,21
 558 177 558 177 628 177 c 0,22,23
 642 177 642 177 656.5 179 c 128,-1,24
 671 181 671 181 686 186.5 c 128,-1,25
 701 192 701 192 711.5 196 c 128,-1,26
 722 200 722 200 739 209 c 128,-1,27
 756 218 756 218 763.5 222 c 128,-1,28
 771 226 771 226 789.5 237 c 128,-1,29
 808 248 808 248 812 251 c 1,30,-1
 889 72 l 1,0,1
EndSplineSet
EndChar

StartChar: u
Encoding: 117 117 90
Width: 1311
GlyphClass: 2
Flags: W
LayerCount: 2
Fore
SplineSet
609 184 m 0,0,1
 691 184 691 184 750.5 213 c 128,-1,2
 810 242 810 242 866 297 c 1,3,-1
 866 1185 l 1,4,-1
 1159 1185 l 1,5,-1
 1159 0 l 1,6,-1
 949 0 l 1,7,-1
 891 180 l 1,8,9
 850 87 850 87 768 31.5 c 128,-1,10
 686 -24 686 -24 567 -24 c 0,11,12
 345 -24 345 -24 239.5 96.5 c 128,-1,13
 134 217 134 217 134 454 c 2,14,-1
 134 1185 l 1,15,-1
 424 1185 l 1,16,-1
 424 438 l 2,17,18
 424 379 424 379 432.5 334.5 c 128,-1,19
 441 290 441 290 461.5 255 c 128,-1,20
 482 220 482 220 519 202 c 128,-1,21
 556 184 556 184 609 184 c 0,0,1
EndSplineSet
EndChar

StartChar: v
Encoding: 118 118 91
Width: 1178
GlyphClass: 2
Flags: W
LayerCount: 2
Fore
SplineSet
421 0 m 1,0,-1
 20 1185 l 1,1,-1
 323 1185 l 1,2,-1
 591 266 l 1,3,-1
 854 1185 l 1,4,-1
 1160 1185 l 1,5,-1
 757 0 l 1,6,-1
 421 0 l 1,0,-1
EndSplineSet
EndChar

StartChar: w
Encoding: 119 119 92
Width: 1634
GlyphClass: 2
Flags: W
LayerCount: 2
Fore
SplineSet
816 838 m 1,0,-1
 619 0 l 1,1,-1
 333 0 l 1,2,-1
 20 1185 l 1,3,-1
 295 1185 l 1,4,-1
 482 274 l 1,5,-1
 683 1185 l 1,6,-1
 954 1185 l 1,7,-1
 1151 274 l 1,8,-1
 1345 1185 l 1,9,-1
 1616 1185 l 1,10,-1
 1303 0 l 1,11,-1
 1015 0 l 1,12,-1
 816 838 l 1,0,-1
EndSplineSet
EndChar

StartChar: x
Encoding: 120 120 93
Width: 1179
GlyphClass: 2
Flags: W
LayerCount: 2
Fore
SplineSet
362 0 m 1,0,-1
 39 0 l 1,1,-1
 446 595 l 1,2,-1
 32 1185 l 1,3,-1
 362 1185 l 1,4,-1
 593 796 l 1,5,-1
 824 1185 l 1,6,-1
 1148 1185 l 1,7,-1
 741 595 l 1,8,-1
 1141 0 l 1,9,-1
 823 0 l 1,10,-1
 593 404 l 1,11,-1
 362 0 l 1,0,-1
EndSplineSet
EndChar

StartChar: y
Encoding: 121 121 94
Width: 1181
GlyphClass: 2
Flags: W
LayerCount: 2
Fore
SplineSet
20 1185 m 1,0,-1
 315 1185 l 1,1,-1
 627 331 l 1,2,-1
 866 1185 l 1,3,-1
 1163 1185 l 1,4,-1
 744 -35 l 2,5,6
 718 -109 718 -109 687.5 -170 c 128,-1,7
 657 -231 657 -231 612 -289 c 128,-1,8
 567 -347 567 -347 513 -386 c 128,-1,9
 459 -425 459 -425 385.5 -449 c 128,-1,10
 312 -473 312 -473 226 -473 c 1,11,-1
 145 -276 l 1,12,13
 304 -256 304 -256 380.5 -185 c 128,-1,14
 457 -114 457 -114 499 36 c 1,15,-1
 20 1185 l 1,0,-1
EndSplineSet
EndChar

StartChar: z
Encoding: 122 122 95
Width: 1061
GlyphClass: 2
Flags: W
LayerCount: 2
Fore
SplineSet
120 986 m 1,0,-1
 120 1185 l 1,1,-1
 955 1185 l 1,2,-1
 955 977 l 1,3,-1
 407 199 l 1,4,-1
 962 199 l 1,5,-1
 962 0 l 1,6,-1
 101 0 l 1,7,-1
 101 210 l 1,8,-1
 664 986 l 1,9,-1
 120 986 l 1,0,-1
EndSplineSet
EndChar

StartChar: braceleft
Encoding: 123 123 96
Width: 856
GlyphClass: 2
Flags: W
LayerCount: 2
Fore
SplineSet
725 1357 m 1,0,1
 692 1357 692 1357 666 1348 c 128,-1,2
 640 1339 640 1339 623 1325.5 c 128,-1,3
 606 1312 606 1312 594 1287 c 128,-1,4
 582 1262 582 1262 576 1240 c 128,-1,5
 570 1218 570 1218 566.5 1180.5 c 128,-1,6
 563 1143 563 1143 562.5 1116.5 c 128,-1,7
 562 1090 562 1090 562 1045 c 0,8,9
 560 885 560 885 512 791 c 128,-1,10
 464 697 464 697 353 664 c 1,11,12
 464 628 464 628 512.5 534 c 128,-1,13
 561 440 561 440 563 283 c 0,14,15
 563 238 563 238 563.5 212 c 128,-1,16
 564 186 564 186 567.5 148 c 128,-1,17
 571 110 571 110 577 88.5 c 128,-1,18
 583 67 583 67 594.5 41.5 c 128,-1,19
 606 16 606 16 623 2.5 c 128,-1,20
 640 -11 640 -11 666 -20 c 128,-1,21
 692 -29 692 -29 725 -29 c 1,22,-1
 725 -213 l 1,23,24
 651 -213 651 -213 592.5 -199.5 c 128,-1,25
 534 -186 534 -186 491 -163.5 c 128,-1,26
 448 -141 448 -141 415.5 -103 c 128,-1,27
 383 -65 383 -65 361.5 -24 c 128,-1,28
 340 17 340 17 324.5 76.5 c 128,-1,29
 309 136 309 136 300 191.5 c 128,-1,30
 291 247 291 247 283 324 c 1,31,32
 280 368 280 368 275.5 398 c 128,-1,33
 271 428 271 428 261 463 c 128,-1,34
 251 498 251 498 235 519 c 128,-1,35
 219 540 219 540 191.5 554 c 128,-1,36
 164 568 164 568 127 568 c 1,37,-1
 127 760 l 1,38,39
 187 760 187 760 224 804.5 c 128,-1,40
 261 849 261 849 275.5 921 c 128,-1,41
 290 993 290 993 297.5 1068 c 128,-1,42
 305 1143 305 1143 316 1221 c 128,-1,43
 327 1299 327 1299 347 1338 c 0,44,45
 448 1542 448 1542 725 1542 c 1,46,-1
 725 1357 l 1,0,1
EndSplineSet
EndChar

StartChar: bar
Encoding: 124 124 97
Width: 752
GlyphClass: 2
Flags: W
LayerCount: 2
Fore
SplineSet
246 1709 m 1,0,-1
 507 1709 l 1,1,-1
 507 -135 l 1,2,-1
 246 -135 l 1,3,-1
 246 1709 l 1,0,-1
EndSplineSet
EndChar

StartChar: braceright
Encoding: 125 125 98
Width: 858
GlyphClass: 2
Flags: W
LayerCount: 2
Fore
SplineSet
521 665 m 1,0,1
 408 698 408 698 360.5 791.5 c 128,-1,2
 313 885 313 885 311 1046 c 0,3,4
 311 1090 311 1090 310.5 1115 c 128,-1,5
 310 1140 310 1140 307 1178 c 128,-1,6
 304 1216 304 1216 298 1237.5 c 128,-1,7
 292 1259 292 1259 280 1285.5 c 128,-1,8
 268 1312 268 1312 251 1325.5 c 128,-1,9
 234 1339 234 1339 208 1348.5 c 128,-1,10
 182 1358 182 1358 149 1358 c 1,11,-1
 149 1543 l 1,12,13
 222 1543 222 1543 281 1529.5 c 128,-1,14
 340 1516 340 1516 383 1493.5 c 128,-1,15
 426 1471 426 1471 458.5 1432.5 c 128,-1,16
 491 1394 491 1394 512.5 1353.5 c 128,-1,17
 534 1313 534 1313 549.5 1253.5 c 128,-1,18
 565 1194 565 1194 574 1138 c 128,-1,19
 583 1082 583 1082 591 1006 c 1,20,21
 594 962 594 962 598 932 c 128,-1,22
 602 902 602 902 612.5 867 c 128,-1,23
 623 832 623 832 638.5 811 c 128,-1,24
 654 790 654 790 681.5 775.5 c 128,-1,25
 709 761 709 761 746 761 c 1,26,-1
 746 569 l 1,27,28
 686 569 686 569 649 524.5 c 128,-1,29
 612 480 612 480 597 408 c 128,-1,30
 582 336 582 336 574.5 261.5 c 128,-1,31
 567 187 567 187 556 109 c 128,-1,32
 545 31 545 31 526 -8 c 0,33,34
 424 -213 424 -213 149 -213 c 1,35,-1
 149 -29 l 1,36,37
 215 -29 215 -29 253 14.5 c 128,-1,38
 291 58 291 58 303 128.5 c 128,-1,39
 315 199 315 199 319 272.5 c 128,-1,40
 323 346 323 346 332 422.5 c 128,-1,41
 341 499 341 499 362 538 c 0,42,43
 412 631 412 631 521 665 c 1,0,1
EndSplineSet
EndChar

StartChar: asciitilde
Encoding: 126 126 99
Width: 1106
GlyphClass: 2
Flags: W
LayerCount: 2
Fore
SplineSet
997 587 m 1,0,1
 997 503 997 503 975 437 c 128,-1,2
 953 371 953 371 902 328.5 c 128,-1,3
 851 286 851 286 775 286 c 0,4,5
 710 286 710 286 652.5 308 c 128,-1,6
 595 330 595 330 533 367.5 c 128,-1,7
 471 405 471 405 438 418 c 0,8,9
 417 427 417 427 401 427 c 0,10,11
 373 427 373 427 359 409.5 c 128,-1,12
 345 392 345 392 341.5 368.5 c 128,-1,13
 338 345 338 345 338 304 c 1,14,-1
 146 304 l 1,15,16
 146 617 146 617 371 617 c 0,17,18
 424 617 424 617 475 595.5 c 128,-1,19
 526 574 526 574 560.5 548 c 128,-1,20
 595 522 595 522 643 500.5 c 128,-1,21
 691 479 691 479 740 479 c 0,22,23
 777 479 777 479 787.5 505.5 c 128,-1,24
 798 532 798 532 798 587 c 1,25,-1
 997 587 l 1,0,1
EndSplineSet
EndChar

StartChar: exclamdown
Encoding: 161 161 101
Width: 806
GlyphClass: 2
Flags: W
LayerCount: 2
Fore
SplineSet
578 -1 m 1,0,-1
 249 -1 l 1,1,-1
 318 1130 l 1,2,-1
 512 1130 l 1,3,-1
 578 -1 l 1,0,-1
427 1264 m 0,4,5
 342 1264 342 1264 301 1299 c 128,-1,6
 260 1334 260 1334 260 1415 c 0,7,8
 260 1505 260 1505 299.5 1544.5 c 128,-1,9
 339 1584 339 1584 427 1584 c 0,10,11
 578 1584 578 1584 578 1415 c 0,12,13
 578 1264 578 1264 427 1264 c 0,4,5
EndSplineSet
EndChar

StartChar: cent
Encoding: 162 162 102
Width: 1133
GlyphClass: 2
Flags: W
LayerCount: 2
Fore
SplineSet
630 997 m 1,0,1
 399 957 399 957 399 594 c 0,2,3
 399 244 399 244 630 198 c 1,4,-1
 630 997 l 1,0,1
1056 81 m 1,5,6
 886 -11 886 -11 771 -11 c 1,7,-1
 771 -154 l 1,8,-1
 630 -154 l 1,9,-1
 630 -17 l 1,10,11
 380 -4 380 -4 242.5 159.5 c 128,-1,12
 105 323 105 323 105 594 c 0,13,14
 105 860 105 860 245.5 1027.5 c 128,-1,15
 386 1195 386 1195 630 1208 c 1,16,-1
 630 1382 l 1,17,-1
 771 1382 l 1,18,-1
 771 1202 l 1,19,20
 919 1185 919 1185 1061 1102 c 1,21,-1
 998 910 l 1,22,23
 960 941 960 941 897 965 c 128,-1,24
 834 989 834 989 771 996 c 1,25,-1
 771 192 l 1,26,27
 787 193 787 193 804.5 195.5 c 128,-1,28
 822 198 822 198 835 201 c 128,-1,29
 848 204 848 204 866.5 211 c 128,-1,30
 885 218 885 218 894.5 221.5 c 128,-1,31
 904 225 904 225 923.5 234.5 c 128,-1,32
 943 244 943 244 948.5 247 c 128,-1,33
 954 250 954 250 974.5 261 c 128,-1,34
 995 272 995 272 997 273 c 1,35,-1
 1056 81 l 1,5,6
EndSplineSet
EndChar

StartChar: sterling
Encoding: 163 163 103
Width: 1195
GlyphClass: 2
Flags: W
LayerCount: 2
Fore
SplineSet
584 595 m 1,0,1
 584 478 584 478 547 385.5 c 128,-1,2
 510 293 510 293 447 199 c 1,3,-1
 1058 199 l 1,4,-1
 1058 0 l 1,5,-1
 201 0 l 1,6,-1
 201 193 l 1,7,8
 261 263 261 263 303 372.5 c 128,-1,9
 345 482 345 482 345 595 c 1,10,-1
 188 595 l 1,11,-1
 188 724 l 1,12,-1
 320 724 l 1,13,14
 270 770 270 770 237.5 838.5 c 128,-1,15
 205 907 205 907 205 988 c 0,16,17
 205 1082 205 1082 241.5 1152.5 c 128,-1,18
 278 1223 278 1223 343.5 1264.5 c 128,-1,19
 409 1306 409 1306 492.5 1326 c 128,-1,20
 576 1346 576 1346 678 1346 c 0,21,22
 903 1346 903 1346 1088 1227 c 1,23,-1
 991 1035 l 1,24,25
 839 1128 839 1128 697 1128 c 0,26,27
 477 1128 477 1128 477 953 c 0,28,29
 477 904 477 904 492.5 860 c 128,-1,30
 508 816 508 816 524.5 792 c 128,-1,31
 541 768 541 768 573 728 c 1,32,-1
 994 728 l 1,33,-1
 994 595 l 1,34,-1
 584 595 l 1,0,1
EndSplineSet
EndChar

StartChar: currency
Encoding: 164 164 104
Width: 1409
GlyphClass: 2
Flags: W
LayerCount: 2
Fore
SplineSet
696 557 m 0,0,1
 569 557 569 557 469 621 c 1,2,-1
 271 424 l 1,3,-1
 142 554 l 1,4,-1
 337 749 l 1,5,6
 266 859 266 859 266 986 c 0,7,8
 266 1119 266 1119 344 1236 c 1,9,-1
 142 1438 l 1,10,-1
 271 1567 l 1,11,-1
 474 1365 l 1,12,13
 590 1445 590 1445 726 1445 c 0,14,15
 855 1445 855 1445 962 1375 c 1,16,-1
 1156 1567 l 1,17,-1
 1285 1438 l 1,18,-1
 1090 1243 l 1,19,20
 1154 1143 1154 1143 1154 1016 c 0,21,22
 1154 881 1154 881 1074 765 c 1,23,-1
 1285 554 l 1,24,-1
 1156 424 l 1,25,-1
 944 636 l 1,26,27
 828 557 828 557 696 557 c 0,0,1
988 1008 m 0,28,29
 988 1121 988 1121 910 1199.5 c 128,-1,30
 832 1278 832 1278 719 1278 c 0,31,32
 600 1278 600 1278 516 1194 c 128,-1,33
 432 1110 432 1110 432 992 c 0,34,35
 432 877 432 877 511 799.5 c 128,-1,36
 590 722 590 722 706 722 c 0,37,38
 821 722 821 722 904.5 807 c 128,-1,39
 988 892 988 892 988 1008 c 0,28,29
EndSplineSet
EndChar

StartChar: yen
Encoding: 165 165 105
Width: 1300
GlyphClass: 2
Flags: W
LayerCount: 2
Fore
SplineSet
1008 1606 m 1,0,-1
 1324 1606 l 1,1,-1
 891 752 l 1,2,-1
 1121 752 l 1,3,-1
 1121 636 l 1,4,-1
 842 636 l 1,5,-1
 804 518 l 1,6,-1
 1121 518 l 1,7,-1
 1121 404 l 1,8,-1
 802 404 l 1,9,-1
 802 0 l 1,10,-1
 512 0 l 1,11,-1
 512 404 l 1,12,-1
 190 404 l 1,13,-1
 190 518 l 1,14,-1
 510 518 l 1,15,-1
 473 636 l 1,16,-1
 190 636 l 1,17,-1
 190 752 l 1,18,-1
 421 752 l 1,19,-1
 -9 1606 l 1,20,-1
 302 1606 l 1,21,-1
 655 816 l 1,22,-1
 1008 1606 l 1,0,-1
EndSplineSet
EndChar

StartChar: brokenbar
Encoding: 166 166 106
Width: 722
GlyphClass: 2
Flags: W
LayerCount: 2
Fore
SplineSet
239 1662 m 1,0,-1
 505 1662 l 1,1,-1
 505 925 l 1,2,-1
 239 925 l 1,3,-1
 239 1662 l 1,0,-1
239 646 m 1,4,-1
 505 646 l 1,5,-1
 505 -91 l 1,6,-1
 239 -91 l 1,7,-1
 239 646 l 1,4,-1
EndSplineSet
EndChar

StartChar: section
Encoding: 167 167 107
Width: 1171
GlyphClass: 2
Flags: W
LayerCount: 2
Fore
SplineSet
376 764 m 0,0,1
 376 693 376 693 430.5 666.5 c 128,-1,2
 485 640 485 640 584 640 c 0,3,4
 629 640 629 640 663 644.5 c 128,-1,5
 697 649 697 649 729 661.5 c 128,-1,6
 761 674 761 674 778.5 699.5 c 128,-1,7
 796 725 796 725 796 762 c 0,8,9
 796 813 796 813 766.5 842 c 128,-1,10
 737 871 737 871 693.5 880 c 128,-1,11
 650 889 650 889 584 889 c 0,12,13
 538 889 538 889 504 884 c 128,-1,14
 470 879 470 879 439 866.5 c 128,-1,15
 408 854 408 854 392 828 c 128,-1,16
 376 802 376 802 376 764 c 0,0,1
157 1306 m 0,17,18
 157 1381 157 1381 191.5 1439.5 c 128,-1,19
 226 1498 226 1498 285.5 1533 c 128,-1,20
 345 1568 345 1568 418 1585.5 c 128,-1,21
 491 1603 491 1603 574 1603 c 0,22,23
 686 1603 686 1603 802 1561.5 c 128,-1,24
 918 1520 918 1520 978 1460 c 1,25,-1
 898 1281 l 1,26,27
 837 1329 837 1329 752.5 1363 c 128,-1,28
 668 1397 668 1397 582 1397 c 0,29,30
 545 1397 545 1397 518.5 1395 c 128,-1,31
 492 1393 492 1393 463.5 1386 c 128,-1,32
 435 1379 435 1379 417.5 1366.5 c 128,-1,33
 400 1354 400 1354 389 1333 c 128,-1,34
 378 1312 378 1312 378 1282 c 0,35,36
 378 1261 378 1261 387 1244.5 c 128,-1,37
 396 1228 396 1228 415 1215.5 c 128,-1,38
 434 1203 434 1203 448 1196.5 c 128,-1,39
 462 1190 462 1190 486 1181 c 0,40,41
 498 1176 498 1176 674 1112 c 0,42,43
 716 1097 716 1097 740 1088 c 128,-1,44
 764 1079 764 1079 801.5 1063 c 128,-1,45
 839 1047 839 1047 861.5 1032.5 c 128,-1,46
 884 1018 884 1018 912.5 997.5 c 128,-1,47
 941 977 941 977 958 954 c 128,-1,48
 975 931 975 931 991 902 c 128,-1,49
 1007 873 1007 873 1014 837.5 c 128,-1,50
 1021 802 1021 802 1021 761 c 0,51,52
 1021 661 1021 661 962 601.5 c 128,-1,53
 903 542 903 542 808 521 c 1,54,55
 911 481 911 481 967 409 c 128,-1,56
 1023 337 1023 337 1023 216 c 0,57,58
 1023 147 1023 147 999.5 91.5 c 128,-1,59
 976 36 976 36 935 -0.5 c 128,-1,60
 894 -37 894 -37 837 -61.5 c 128,-1,61
 780 -86 780 -86 715.5 -96.5 c 128,-1,62
 651 -107 651 -107 578 -107 c 0,63,64
 462 -107 462 -107 346 -66 c 128,-1,65
 230 -25 230 -25 159 34 c 1,66,-1
 243 223 l 1,67,68
 289 177 289 177 381.5 138 c 128,-1,69
 474 99 474 99 554 99 c 0,70,71
 664 99 664 99 726.5 130.5 c 128,-1,72
 789 162 789 162 789 243 c 0,73,74
 789 278 789 278 778 303.5 c 128,-1,75
 767 329 767 329 742 346 c 128,-1,76
 717 363 717 363 697 372 c 128,-1,77
 677 381 677 381 640 393 c 0,78,79
 630 396 630 396 625 398 c 2,80,-1
 463 454 l 1,81,82
 402 474 402 474 367 488.5 c 128,-1,83
 332 503 332 503 286.5 530 c 128,-1,84
 241 557 241 557 216.5 587 c 128,-1,85
 192 617 192 617 174.5 665.5 c 128,-1,86
 157 714 157 714 157 775 c 0,87,88
 157 877 157 877 217 938.5 c 128,-1,89
 277 1000 277 1000 376 1019 c 1,90,91
 269 1056 269 1056 213 1121 c 128,-1,92
 157 1186 157 1186 157 1306 c 0,17,18
EndSplineSet
EndChar

StartChar: dieresis
Encoding: 168 168 108
Width: 1151
GlyphClass: 2
Flags: W
LayerCount: 2
Fore
SplineSet
273 248 m 0,0,1
 200 248 200 248 154.5 294.5 c 128,-1,2
 109 341 109 341 109 414 c 0,3,4
 109 486 109 486 155 533 c 128,-1,5
 201 580 201 580 273 580 c 128,-1,6
 345 580 345 580 392 533 c 128,-1,7
 439 486 439 486 439 414 c 128,-1,8
 439 342 439 342 392 295 c 128,-1,9
 345 248 345 248 273 248 c 0,0,1
883 248 m 0,10,11
 810 248 810 248 764.5 294.5 c 128,-1,12
 719 341 719 341 719 414 c 0,13,14
 719 486 719 486 765 533 c 128,-1,15
 811 580 811 580 883 580 c 0,16,17
 954 580 954 580 1001.5 532.5 c 128,-1,18
 1049 485 1049 485 1049 414 c 128,-1,19
 1049 343 1049 343 1001.5 295.5 c 128,-1,20
 954 248 954 248 883 248 c 0,10,11
EndSplineSet
EndChar

StartChar: copyright
Encoding: 169 169 109
Width: 2126
GlyphClass: 2
Flags: W
LayerCount: 2
Fore
SplineSet
367 815 m 0,0,1
 367 496 367 496 554.5 299.5 c 128,-1,2
 742 103 742 103 1056 103 c 0,3,4
 1265 103 1265 103 1427.5 193 c 128,-1,5
 1590 283 1590 283 1679.5 445 c 128,-1,6
 1769 607 1769 607 1769 815 c 0,7,8
 1769 1019 1769 1019 1679 1183 c 128,-1,9
 1589 1347 1589 1347 1429 1439.5 c 128,-1,10
 1269 1532 1269 1532 1068 1532 c 0,11,12
 866 1532 866 1532 705.5 1438.5 c 128,-1,13
 545 1345 545 1345 456 1181.5 c 128,-1,14
 367 1018 367 1018 367 815 c 0,0,1
1087 1152 m 0,15,16
 938 1152 938 1152 873 1066.5 c 128,-1,17
 808 981 808 981 808 817 c 0,18,19
 808 647 808 647 873 564 c 128,-1,20
 938 481 938 481 1092 481 c 0,21,22
 1150 481 1150 481 1208 495.5 c 128,-1,23
 1266 510 1266 510 1300 525 c 128,-1,24
 1334 540 1334 540 1393 570 c 1,25,-1
 1393 385 l 1,26,27
 1308 342 1308 342 1245 321.5 c 128,-1,28
 1182 301 1182 301 1105 301 c 0,29,30
 855 301 855 301 726 436.5 c 128,-1,31
 597 572 597 572 597 823 c 0,32,33
 597 1065 597 1065 726 1199 c 128,-1,34
 855 1333 855 1333 1095 1333 c 0,35,36
 1234 1333 1234 1333 1388 1252 c 1,37,-1
 1388 1071 l 1,38,39
 1230 1152 1230 1152 1087 1152 c 0,15,16
1061 -91 m 0,40,41
 795 -91 795 -91 587 24.5 c 128,-1,42
 379 140 379 140 264 347 c 128,-1,43
 149 554 149 554 149 818 c 0,44,45
 149 1017 149 1017 218.5 1186.5 c 128,-1,46
 288 1356 288 1356 409.5 1474.5 c 128,-1,47
 531 1593 531 1593 701 1660 c 128,-1,48
 871 1727 871 1727 1068 1727 c 0,49,50
 1264 1727 1264 1727 1435 1658.5 c 128,-1,51
 1606 1590 1606 1590 1727 1470.5 c 128,-1,52
 1848 1351 1848 1351 1917 1182 c 128,-1,53
 1986 1013 1986 1013 1986 818 c 0,54,55
 1986 551 1986 551 1866.5 343.5 c 128,-1,56
 1747 136 1747 136 1536.5 22.5 c 128,-1,57
 1326 -91 1326 -91 1061 -91 c 0,40,41
EndSplineSet
EndChar

StartChar: ordfeminine
Encoding: 170 170 110
Width: 1246
GlyphClass: 2
Flags: W
LayerCount: 2
Fore
SplineSet
263 1552 m 1,0,1
 301 1552 301 1552 414.5 1595 c 128,-1,2
 528 1638 528 1638 599 1638 c 0,3,4
 800 1638 800 1638 880 1543 c 128,-1,5
 960 1448 960 1448 960 1235 c 2,6,-1
 960 686 l 1,7,-1
 844 686 l 1,8,-1
 817 828 l 1,9,10
 815 828 815 828 802.5 811 c 128,-1,11
 790 794 790 794 774 774 c 128,-1,12
 758 754 758 754 752 748 c 0,13,14
 661 668 661 668 523 668 c 0,15,16
 375 668 375 668 290.5 743 c 128,-1,17
 206 818 206 818 206 960 c 0,18,19
 206 1107 206 1107 304.5 1182.5 c 128,-1,20
 403 1258 403 1258 565 1258 c 0,21,22
 773 1258 773 1258 799 1218 c 1,23,-1
 799 1276 l 2,24,25
 799 1403 799 1403 759.5 1458 c 128,-1,26
 720 1513 720 1513 607 1513 c 0,27,28
 465 1513 465 1513 340 1454 c 0,29,30
 315 1443 315 1443 316 1443 c 2,31,-1
 263 1552 l 1,0,1
367 971 m 0,32,33
 367 867 367 867 411 824 c 128,-1,34
 455 781 455 781 561 781 c 0,35,36
 629 781 629 781 687 810 c 128,-1,37
 745 839 745 839 782 882 c 0,38,39
 799 902 799 902 799 903 c 2,40,-1
 799 1141 l 1,41,42
 689 1158 689 1158 623 1158 c 0,43,44
 367 1158 367 1158 367 971 c 0,32,33
270 575 m 1,45,-1
 954 575 l 1,46,-1
 954 446 l 1,47,-1
 270 446 l 1,48,-1
 270 575 l 1,45,-1
EndSplineSet
EndChar

StartChar: guillemotleft
Encoding: 171 171 111
Width: 1754
GlyphClass: 2
Flags: W
LayerCount: 2
Fore
SplineSet
1135 588 m 1,0,-1
 1602 299 l 1,1,-1
 1602 8 l 1,2,-1
 861 473 l 1,3,-1
 861 697 l 1,4,-1
 1602 1161 l 1,5,-1
 1602 870 l 1,6,-1
 1135 588 l 1,0,-1
396 588 m 1,7,-1
 862 299 l 1,8,-1
 862 8 l 1,9,-1
 121 473 l 1,10,-1
 121 697 l 1,11,-1
 862 1161 l 1,12,-1
 862 870 l 1,13,-1
 396 588 l 1,7,-1
EndSplineSet
EndChar

StartChar: logicalnot
Encoding: 172 172 112
Width: 1388
GlyphClass: 2
Flags: W
LayerCount: 2
Fore
SplineSet
77 768 m 1,0,-1
 77 990 l 1,1,-1
 1234 990 l 1,2,-1
 1234 277 l 1,3,-1
 1045 277 l 1,4,-1
 1045 768 l 1,5,-1
 77 768 l 1,0,-1
EndSplineSet
EndChar

StartChar: uni00AD
Encoding: 173 173 113
Width: 1038
GlyphClass: 2
Flags: W
LayerCount: 2
Fore
SplineSet
158 558 m 1,0,-1
 158 772 l 1,1,-1
 836 772 l 1,2,-1
 836 558 l 1,3,-1
 158 558 l 1,0,-1
EndSplineSet
EndChar

StartChar: registered
Encoding: 174 174 114
Width: 1378
GlyphClass: 2
Flags: W
LayerCount: 2
Fore
SplineSet
702 573 m 0,0,1
 517 573 517 573 368.5 650.5 c 128,-1,2
 220 728 220 728 135 871 c 128,-1,3
 50 1014 50 1014 50 1197 c 0,4,5
 50 1377 50 1377 135.5 1520.5 c 128,-1,6
 221 1664 221 1664 369.5 1743 c 128,-1,7
 518 1822 518 1822 702 1822 c 0,8,9
 839 1822 839 1822 959.5 1775.5 c 128,-1,10
 1080 1729 1080 1729 1167 1647.5 c 128,-1,11
 1254 1566 1254 1566 1304.5 1449.5 c 128,-1,12
 1355 1333 1355 1333 1355 1197 c 0,13,14
 1355 1016 1355 1016 1269 873 c 128,-1,15
 1183 730 1183 730 1034.5 651.5 c 128,-1,16
 886 573 886 573 702 573 c 0,0,1
195 1194 m 256,17,18
 195 971 195 971 335.5 833.5 c 128,-1,19
 476 696 476 696 701 696 c 0,20,21
 924 696 924 696 1066.5 835 c 128,-1,22
 1209 974 1209 974 1209 1195 c 0,23,24
 1209 1417 1209 1417 1067 1556.5 c 128,-1,25
 925 1696 925 1696 701 1696 c 128,-1,26
 477 1696 477 1696 336 1556.5 c 128,-1,27
 195 1417 195 1417 195 1194 c 256,17,18
821 1354 m 0,28,29
 821 1371 821 1371 814 1384 c 128,-1,30
 807 1397 807 1397 792.5 1404.5 c 128,-1,31
 778 1412 778 1412 763.5 1416.5 c 128,-1,32
 749 1421 749 1421 726 1423 c 128,-1,33
 703 1425 703 1425 687.5 1425.5 c 128,-1,34
 672 1426 672 1426 648 1426 c 0,35,36
 644 1426 644 1426 637 1426 c 128,-1,37
 630 1426 630 1426 627 1426 c 1,38,-1
 627 1247 l 1,39,-1
 691 1247 l 2,40,41
 716 1247 716 1247 726.5 1255 c 128,-1,42
 737 1263 737 1263 737 1285 c 1,43,44
 779 1290 779 1290 800 1305 c 128,-1,45
 821 1320 821 1320 821 1354 c 0,28,29
949 1347 m 0,46,47
 949 1262 949 1262 907 1223 c 128,-1,48
 865 1184 865 1184 780 1168 c 1,49,-1
 958 912 l 1,50,-1
 841 853 l 1,51,-1
 662 1145 l 1,52,-1
 624 1145 l 1,53,-1
 624 873 l 1,54,-1
 500 873 l 1,55,-1
 500 1527 l 1,56,-1
 639 1527 l 2,57,58
 705 1527 705 1527 754.5 1520 c 128,-1,59
 804 1513 804 1513 851 1495 c 128,-1,60
 898 1477 898 1477 923.5 1439.5 c 128,-1,61
 949 1402 949 1402 949 1347 c 0,46,47
EndSplineSet
EndChar

StartChar: macron
Encoding: 175 175 115
Width: 1003
GlyphClass: 2
Flags: W
LayerCount: 2
Fore
SplineSet
98 215 m 1,0,-1
 780 215 l 1,1,-1
 780 98 l 1,2,-1
 98 98 l 1,3,-1
 98 215 l 1,0,-1
EndSplineSet
EndChar

StartChar: degree
Encoding: 176 176 116
Width: 819
GlyphClass: 2
Flags: W
LayerCount: 2
Fore
SplineSet
407 1195 m 128,-1,1
 317 1195 317 1195 258 1137.5 c 128,-1,2
 199 1080 199 1080 199 990 c 128,-1,3
 199 900 199 900 257.5 842.5 c 128,-1,4
 316 785 316 785 407 785 c 128,-1,5
 498 785 498 785 555.5 842 c 128,-1,6
 613 899 613 899 613 990 c 0,7,8
 613 1080 613 1080 555 1137.5 c 128,-1,0
 497 1195 497 1195 407 1195 c 128,-1,1
123 993 m 0,9,10
 123 1109 123 1109 205 1184 c 128,-1,11
 287 1259 287 1259 407 1259 c 0,12,13
 528 1259 528 1259 608.5 1183 c 128,-1,14
 689 1107 689 1107 689 987 c 0,15,16
 689 868 689 868 606 794 c 128,-1,17
 523 720 523 720 401 720 c 0,18,19
 283 720 283 720 203 798 c 128,-1,20
 123 876 123 876 123 993 c 0,9,10
EndSplineSet
EndChar

StartChar: plusminus
Encoding: 177 177 117
Width: 1158
GlyphClass: 2
Flags: W
LayerCount: 2
Fore
SplineSet
222 -22 m 1,0,-1
 222 175 l 1,1,-1
 993 175 l 1,2,-1
 993 -22 l 1,3,-1
 222 -22 l 1,0,-1
724 707 m 1,4,-1
 724 351 l 1,5,-1
 490 351 l 1,6,-1
 490 707 l 1,7,-1
 193 707 l 1,8,-1
 193 926 l 1,9,-1
 490 926 l 1,10,-1
 490 1280 l 1,11,-1
 724 1280 l 1,12,-1
 724 926 l 1,13,-1
 1022 926 l 1,14,-1
 1022 707 l 1,15,-1
 724 707 l 1,4,-1
EndSplineSet
EndChar

StartChar: uni00B2
Encoding: 178 178 118
Width: 1126
GlyphClass: 2
Flags: W
LayerCount: 2
Fore
SplineSet
576 1638 m 0,0,1
 728 1638 728 1638 823.5 1565 c 128,-1,2
 919 1492 919 1492 919 1357 c 0,3,4
 919 1326 919 1326 915 1298 c 128,-1,5
 911 1270 911 1270 900 1243.5 c 128,-1,6
 889 1217 889 1217 881 1197.5 c 128,-1,7
 873 1178 873 1178 853 1153 c 128,-1,8
 833 1128 833 1128 823.5 1115.5 c 128,-1,9
 814 1103 814 1103 787 1078 c 128,-1,10
 760 1053 760 1053 752 1045.5 c 128,-1,11
 744 1038 744 1038 712.5 1012 c 128,-1,12
 681 986 681 986 676 982 c 2,13,-1
 485 820 l 1,14,-1
 891 820 l 1,15,-1
 891 668 l 1,16,-1
 253 668 l 1,17,-1
 253 805 l 1,18,-1
 524 1045 l 2,19,20
 540 1059 540 1059 581.5 1092.5 c 128,-1,21
 623 1126 623 1126 644.5 1146.5 c 128,-1,22
 666 1167 666 1167 694 1200.5 c 128,-1,23
 722 1234 722 1234 734.5 1272 c 128,-1,24
 747 1310 747 1310 747 1354 c 0,25,26
 747 1426 747 1426 697.5 1463 c 128,-1,27
 648 1500 648 1500 566 1500 c 0,28,29
 444 1500 444 1500 270 1448 c 1,30,-1
 270 1586 l 1,31,32
 394 1638 394 1638 576 1638 c 0,0,1
EndSplineSet
EndChar

StartChar: uni00B3
Encoding: 179 179 119
Width: 1208
GlyphClass: 2
Flags: W
LayerCount: 2
Fore
SplineSet
1017 835 m 0,0,1
 1017 738 1017 738 961 669.5 c 128,-1,2
 905 601 905 601 819 570.5 c 128,-1,3
 733 540 733 540 628 540 c 0,4,5
 445 540 445 540 300 618 c 1,6,-1
 351 745 l 1,7,8
 503 672 503 672 631 672 c 0,9,10
 727 672 727 672 789 719 c 128,-1,11
 851 766 851 766 851 853 c 0,12,13
 851 958 851 958 782.5 1008 c 128,-1,14
 714 1058 714 1058 589 1072 c 1,15,-1
 589 1207 l 1,16,17
 693 1207 693 1207 762.5 1251 c 128,-1,18
 832 1295 832 1295 832 1383 c 0,19,20
 832 1541 832 1541 608 1541 c 0,21,22
 500 1541 500 1541 374 1484 c 1,23,-1
 327 1611 l 1,24,25
 457 1677 457 1677 613 1677 c 0,26,27
 690 1677 690 1677 755.5 1660.5 c 128,-1,28
 821 1644 821 1644 873.5 1611 c 128,-1,29
 926 1578 926 1578 956 1522.5 c 128,-1,30
 986 1467 986 1467 986 1394 c 0,31,32
 986 1287 986 1287 915 1214.5 c 128,-1,33
 844 1142 844 1142 741 1142 c 1,34,35
 866 1117 866 1117 941.5 1042 c 128,-1,36
 1017 967 1017 967 1017 835 c 0,0,1
EndSplineSet
EndChar

StartChar: acute
Encoding: 180 180 120
Width: 1117
GlyphClass: 2
Flags: W
LayerCount: 2
Fore
SplineSet
449 269 m 1,0,-1
 638 892 l 1,1,-1
 924 766 l 1,2,-1
 569 213 l 1,3,-1
 449 269 l 1,0,-1
EndSplineSet
EndChar

StartChar: uni00B5
Encoding: 181 181 121
Width: 1320
GlyphClass: 2
Flags: W
LayerCount: 2
Fore
SplineSet
599 -20 m 0,0,1
 458 -20 458 -20 359 113 c 1,2,-1
 359 -291 l 1,3,-1
 185 -291 l 1,4,-1
 185 1169 l 1,5,-1
 359 1169 l 1,6,-1
 359 442 l 2,7,8
 359 123 359 123 611 123 c 0,9,10
 717 123 717 123 811 166.5 c 128,-1,11
 905 210 905 210 958 274 c 1,12,-1
 958 1169 l 1,13,-1
 1166 1169 l 1,14,-1
 1166 16 l 1,15,-1
 1020 16 l 1,16,-1
 996 170 l 1,17,18
 825 -20 825 -20 599 -20 c 0,0,1
EndSplineSet
EndChar

StartChar: paragraph
Encoding: 182 182 122
Width: 1417
GlyphClass: 2
Flags: W
LayerCount: 2
Fore
SplineSet
100 1214 m 0,0,1
 100 1308 100 1308 131 1378 c 128,-1,2
 162 1448 162 1448 213.5 1491 c 128,-1,3
 265 1534 265 1534 342.5 1560.5 c 128,-1,4
 420 1587 420 1587 501.5 1596.5 c 128,-1,5
 583 1606 583 1606 686 1606 c 2,6,-1
 1247 1606 l 1,7,-1
 1247 0 l 1,8,-1
 1015 0 l 1,9,-1
 1015 1457 l 1,10,-1
 877 1457 l 1,11,-1
 877 0 l 1,12,-1
 641 0 l 1,13,-1
 641 801 l 1,14,15
 100 801 100 801 100 1214 c 0,0,1
EndSplineSet
EndChar

StartChar: periodcentered
Encoding: 183 183 123
Width: 591
GlyphClass: 2
Flags: W
LayerCount: 2
Fore
SplineSet
289 519 m 0,0,1
 214 519 214 519 164.5 569.5 c 128,-1,2
 115 620 115 620 115 696 c 0,3,4
 115 771 115 771 164.5 821.5 c 128,-1,5
 214 872 214 872 289 872 c 0,6,7
 365 872 365 872 415.5 822 c 128,-1,8
 466 772 466 772 466 696 c 128,-1,9
 466 620 466 620 415.5 569.5 c 128,-1,10
 365 519 365 519 289 519 c 0,0,1
EndSplineSet
EndChar

StartChar: cedilla
Encoding: 184 184 124
Width: 637
GlyphClass: 2
Flags: W
LayerCount: 2
Fore
SplineSet
309 -642 m 0,0,1
 295 -642 295 -642 281.5 -641 c 128,-1,2
 268 -640 268 -640 254 -638 c 128,-1,3
 240 -636 240 -636 230.5 -634.5 c 128,-1,4
 221 -633 221 -633 206 -628.5 c 128,-1,5
 191 -624 191 -624 184 -622.5 c 128,-1,6
 177 -621 177 -621 161.5 -615.5 c 128,-1,7
 146 -610 146 -610 142 -608.5 c 128,-1,8
 138 -607 138 -607 121 -600.5 c 128,-1,9
 104 -594 104 -594 102 -593 c 1,10,-1
 102 -462 l 1,11,-1
 122 -468 l 1,12,13
 231 -505 231 -505 283 -505 c 0,14,15
 352 -505 352 -505 384 -478.5 c 128,-1,16
 416 -452 416 -452 416 -386 c 0,17,18
 416 -341 416 -341 396 -311 c 128,-1,19
 376 -281 376 -281 337.5 -266.5 c 128,-1,20
 299 -252 299 -252 256.5 -246.5 c 128,-1,21
 214 -241 214 -241 154 -241 c 1,22,-1
 166 45 l 1,23,-1
 288 45 l 1,24,-1
 281 -136 l 1,25,26
 414 -136 414 -136 501 -199.5 c 128,-1,27
 588 -263 588 -263 588 -385 c 0,28,29
 588 -509 588 -509 514 -575.5 c 128,-1,30
 440 -642 440 -642 309 -642 c 0,0,1
EndSplineSet
EndChar

StartChar: uni00B9
Encoding: 185 185 125
Width: 740
GlyphClass: 2
Flags: W
LayerCount: 2
Fore
SplineSet
327 1304 m 1,0,-1
 156 1232 l 1,1,-1
 119 1345 l 1,2,-1
 356 1440 l 1,3,-1
 496 1414 l 1,4,-1
 496 478 l 1,5,-1
 327 478 l 1,6,-1
 327 1304 l 1,0,-1
EndSplineSet
EndChar

StartChar: ordmasculine
Encoding: 186 186 126
Width: 1265
GlyphClass: 2
Flags: W
LayerCount: 2
Fore
SplineSet
1063 1152 m 0,0,1
 1063 932 1063 932 954 801 c 128,-1,2
 845 670 845 670 638 670 c 128,-1,3
 431 670 431 670 322.5 801 c 128,-1,4
 214 932 214 932 214 1152 c 0,5,6
 214 1371 214 1371 323 1504.5 c 128,-1,7
 432 1638 432 1638 638 1638 c 128,-1,8
 844 1638 844 1638 953.5 1504.5 c 128,-1,9
 1063 1371 1063 1371 1063 1152 c 0,0,1
371 1154 m 0,10,11
 371 1076 371 1076 385 1013.5 c 128,-1,12
 399 951 399 951 429.5 901.5 c 128,-1,13
 460 852 460 852 513 824.5 c 128,-1,14
 566 797 566 797 638 797 c 128,-1,15
 710 797 710 797 763 824 c 128,-1,16
 816 851 816 851 846.5 901 c 128,-1,17
 877 951 877 951 891 1013.5 c 128,-1,18
 905 1076 905 1076 905 1154 c 0,19,20
 905 1231 905 1231 890.5 1294 c 128,-1,21
 876 1357 876 1357 846 1407 c 128,-1,22
 816 1457 816 1457 763 1484.5 c 128,-1,23
 710 1512 710 1512 638 1512 c 0,24,25
 498 1512 498 1512 434.5 1414.5 c 128,-1,26
 371 1317 371 1317 371 1154 c 0,10,11
300 575 m 1,27,-1
 984 575 l 1,28,-1
 984 446 l 1,29,-1
 300 446 l 1,30,-1
 300 575 l 1,27,-1
EndSplineSet
EndChar

StartChar: guillemotright
Encoding: 187 187 127
Width: 1780
GlyphClass: 2
Flags: W
LayerCount: 2
Fore
SplineSet
172 1161 m 1,0,-1
 913 697 l 1,1,-1
 913 473 l 1,2,-1
 172 8 l 1,3,-1
 172 299 l 1,4,-1
 648 588 l 1,5,-1
 172 870 l 1,6,-1
 172 1161 l 1,0,-1
911 1161 m 1,7,-1
 1653 697 l 1,8,-1
 1653 473 l 1,9,-1
 911 8 l 1,10,-1
 911 299 l 1,11,-1
 1388 588 l 1,12,-1
 911 870 l 1,13,-1
 911 1161 l 1,7,-1
EndSplineSet
EndChar

StartChar: onequarter
Encoding: 188 188 128
Width: 1947
GlyphClass: 2
Flags: W
LayerCount: 2
Fore
SplineSet
1478 244 m 1,0,-1
 1478 648 l 1,1,-1
 1210 244 l 1,2,-1
 1478 244 l 1,0,-1
1683 965 m 1,3,-1
 1683 245 l 1,4,-1
 1829 245 l 1,5,-1
 1829 73 l 1,6,-1
 1683 73 l 1,7,-1
 1683 -168 l 1,8,-1
 1474 -177 l 1,9,-1
 1474 73 l 1,10,-1
 987 73 l 1,11,-1
 957 217 l 1,12,-1
 1504 1011 l 1,13,-1
 1683 965 l 1,3,-1
1222 1498 m 1,14,-1
 1410 1410 l 1,15,-1
 553 -115 l 1,16,-1
 369 -30 l 1,17,-1
 1222 1498 l 1,14,-1
298 1261 m 1,18,-1
 152 1198 l 1,19,-1
 91 1353 l 1,20,-1
 362 1460 l 1,21,-1
 525 1425 l 1,22,-1
 525 481 l 1,23,-1
 298 481 l 1,24,-1
 298 1261 l 1,18,-1
EndSplineSet
EndChar

StartChar: onehalf
Encoding: 189 189 129
Width: 2119
GlyphClass: 2
Flags: W
LayerCount: 2
Fore
SplineSet
1613 967 m 0,0,1
 1773 967 1773 967 1876.5 893 c 128,-1,2
 1980 819 1980 819 1980 678 c 0,3,4
 1980 616 1980 616 1964.5 564.5 c 128,-1,5
 1949 513 1949 513 1911 466 c 128,-1,6
 1873 419 1873 419 1849 395.5 c 128,-1,7
 1825 372 1825 372 1771 326 c 0,8,9
 1766 321 1766 321 1762.5 318 c 128,-1,10
 1759 315 1759 315 1755 312 c 2,11,-1
 1607 183 l 1,12,-1
 1954 183 l 1,13,-1
 1954 -9 l 1,14,-1
 1274 -9 l 1,15,-1
 1274 153 l 1,16,17
 1314 187 1314 187 1407 263 c 128,-1,18
 1500 339 1500 339 1567.5 399.5 c 128,-1,19
 1635 460 1635 460 1688 521 c 0,20,21
 1747 590 1747 590 1747 654 c 0,22,23
 1747 781 1747 781 1594 781 c 0,24,25
 1476 781 1476 781 1312 709 c 1,26,-1
 1267 884 l 1,27,28
 1334 911 1334 911 1373.5 925 c 128,-1,29
 1413 939 1413 939 1480.5 953 c 128,-1,30
 1548 967 1548 967 1613 967 c 0,0,1
320 1261 m 1,31,-1
 175 1198 l 1,32,-1
 113 1353 l 1,33,-1
 385 1460 l 1,34,-1
 547 1425 l 1,35,-1
 547 481 l 1,36,-1
 320 481 l 1,37,-1
 320 1261 l 1,31,-1
1234 1498 m 1,38,-1
 1422 1410 l 1,39,-1
 565 -115 l 1,40,-1
 381 -30 l 1,41,-1
 1234 1498 l 1,38,-1
EndSplineSet
EndChar

StartChar: threequarters
Encoding: 190 190 130
Width: 2178
GlyphClass: 2
Flags: W
LayerCount: 2
Fore
SplineSet
1714 244 m 1,0,-1
 1714 654 l 1,1,-1
 1428 244 l 1,2,-1
 1714 244 l 1,0,-1
1907 965 m 1,3,-1
 1907 244 l 1,4,-1
 2053 244 l 1,5,-1
 2053 73 l 1,6,-1
 1907 73 l 1,7,-1
 1907 -168 l 1,8,-1
 1710 -177 l 1,9,-1
 1710 73 l 1,10,-1
 1210 73 l 1,11,-1
 1181 217 l 1,12,-1
 1728 1011 l 1,13,-1
 1907 965 l 1,3,-1
1441 1498 m 1,14,-1
 1633 1410 l 1,15,-1
 777 -115 l 1,16,-1
 593 -30 l 1,17,-1
 1441 1498 l 1,14,-1
386 1154 m 1,18,19
 449 1154 449 1154 498.5 1167 c 128,-1,20
 548 1180 548 1180 583 1214.5 c 128,-1,21
 618 1249 618 1249 619 1303 c 1,22,23
 619 1421 619 1421 447 1421 c 0,24,25
 348 1421 348 1421 213 1363 c 1,26,-1
 138 1528 l 1,27,28
 193 1562 193 1562 272.5 1583 c 128,-1,29
 352 1604 352 1604 437 1604 c 0,30,31
 524 1604 524 1604 593.5 1588 c 128,-1,32
 663 1572 663 1572 718.5 1538 c 128,-1,33
 774 1504 774 1504 804 1444.5 c 128,-1,34
 834 1385 834 1385 834 1304 c 0,35,36
 834 1210 834 1210 777 1146 c 128,-1,37
 720 1082 720 1082 636 1067 c 1,38,39
 733 1045 733 1045 798.5 972 c 128,-1,40
 864 899 864 899 864 792 c 0,41,42
 864 707 864 707 830.5 643.5 c 128,-1,43
 797 580 797 580 737.5 542.5 c 128,-1,44
 678 505 678 505 603 487 c 128,-1,45
 528 469 528 469 437 469 c 0,46,47
 274 469 274 469 136 533 c 1,48,-1
 198 709 l 1,49,50
 307 649 307 649 449 649 c 0,51,52
 536 649 536 649 587 685 c 128,-1,53
 638 721 638 721 638 797 c 0,54,55
 638 886 638 886 566 929 c 128,-1,56
 494 972 494 972 386 978 c 1,57,-1
 386 1154 l 1,18,19
EndSplineSet
EndChar

StartChar: questiondown
Encoding: 191 191 131
Width: 1209
GlyphClass: 2
Flags: W
LayerCount: 2
Fore
SplineSet
796 1571 m 1,0,1
 849 1548 849 1548 881 1492 c 128,-1,2
 913 1436 913 1436 913 1363 c 1,3,4
 891 1309 891 1309 839 1276 c 128,-1,5
 787 1243 787 1243 716 1243 c 1,6,7
 664 1267 664 1267 631.5 1322.5 c 128,-1,8
 599 1378 599 1378 599 1451 c 1,9,10
 621 1504 621 1504 673.5 1537.5 c 128,-1,11
 726 1571 726 1571 796 1571 c 1,0,1
901 705 m 1,12,13
 879 697 879 697 830 681.5 c 128,-1,14
 781 666 781 666 748.5 655.5 c 128,-1,15
 716 645 716 645 667.5 625.5 c 128,-1,16
 619 606 619 606 586.5 589 c 128,-1,17
 554 572 554 572 517 545.5 c 128,-1,18
 480 519 480 519 458.5 491.5 c 128,-1,19
 437 464 437 464 422 427.5 c 128,-1,20
 407 391 407 391 407 350 c 0,21,22
 407 295 407 295 427 257.5 c 128,-1,23
 447 220 447 220 486.5 201 c 128,-1,24
 526 182 526 182 571 175 c 128,-1,25
 616 168 616 168 679 168 c 128,-1,26
 742 168 742 168 884 195.5 c 128,-1,27
 1026 223 1026 223 1026 247 c 1,28,-1
 1100 33 l 1,29,30
 906 -65 906 -65 660 -65 c 0,31,32
 545 -65 545 -65 451.5 -44 c 128,-1,33
 358 -23 358 -23 282 22 c 128,-1,34
 206 67 206 67 164 145 c 128,-1,35
 122 223 122 223 122 329 c 0,36,37
 122 687 122 687 631 841 c 1,38,-1
 631 1150 l 1,39,-1
 901 1150 l 1,40,-1
 901 705 l 1,12,13
EndSplineSet
EndChar

StartChar: AE
Encoding: 198 198 138
Width: 1989
GlyphClass: 2
Flags: W
LayerCount: 2
Fore
SplineSet
932 1413 m 1,0,-1
 554 519 l 1,1,-1
 932 519 l 1,2,-1
 932 1413 l 1,0,-1
1893 1408 m 1,3,-1
 1220 1408 l 1,4,-1
 1220 937 l 1,5,-1
 1821 937 l 1,6,-1
 1821 764 l 1,7,-1
 1221 764 l 1,8,-1
 1221 199 l 1,9,-1
 1911 199 l 1,10,-1
 1911 0 l 1,11,-1
 933 0 l 1,12,-1
 933 364 l 1,13,-1
 501 364 l 1,14,-1
 349 0 l 1,15,-1
 43 0 l 1,16,-1
 756 1607 l 1,17,-1
 1893 1607 l 1,18,-1
 1893 1408 l 1,3,-1
EndSplineSet
EndChar

StartChar: Eth
Encoding: 208 208 148
Width: 1559
GlyphClass: 2
Flags: W
LayerCount: 2
Fore
SplineSet
619 199 m 2,0,1
 773 199 773 199 875.5 234.5 c 128,-1,2
 978 270 978 270 1037 347.5 c 128,-1,3
 1096 425 1096 425 1120.5 533 c 128,-1,4
 1145 641 1145 641 1145 800 c 0,5,6
 1145 961 1145 961 1121 1070.5 c 128,-1,7
 1097 1180 1097 1180 1038 1260 c 128,-1,8
 979 1340 979 1340 876 1377 c 128,-1,9
 773 1414 773 1414 619 1414 c 2,10,-1
 466 1414 l 1,11,-1
 466 924 l 1,12,-1
 723 924 l 1,13,-1
 723 729 l 1,14,-1
 466 729 l 1,15,-1
 466 199 l 1,16,-1
 619 199 l 2,0,1
691 1607 m 2,17,18
 1076 1607 1076 1607 1265 1401 c 128,-1,19
 1454 1195 1454 1195 1454 798 c 0,20,21
 1454 411 1454 411 1262 205.5 c 128,-1,22
 1070 0 1070 0 691 0 c 2,23,-1
 161 0 l 1,24,-1
 161 729 l 1,25,-1
 -2 729 l 1,26,-1
 -2 924 l 1,27,-1
 161 924 l 1,28,-1
 161 1607 l 1,29,-1
 691 1607 l 2,17,18
EndSplineSet
EndChar

StartChar: multiply
Encoding: 215 215 155
Width: 1361
GlyphClass: 2
Flags: W
LayerCount: 2
Fore
SplineSet
393 1011 m 1,0,-1
 699 715 l 1,1,-1
 1005 1011 l 1,2,-1
 1159 847 l 1,3,-1
 861 560 l 1,4,-1
 1159 272 l 1,5,-1
 1005 108 l 1,6,-1
 699 404 l 1,7,-1
 393 108 l 1,8,-1
 240 272 l 1,9,-1
 537 560 l 1,10,-1
 240 847 l 1,11,-1
 393 1011 l 1,0,-1
EndSplineSet
EndChar

StartChar: Oslash
Encoding: 216 216 156
Width: 1612
GlyphClass: 2
Flags: W
LayerCount: 2
Fore
SplineSet
805 -34 m 0,0,1
 671 -34 671 -34 575 -4 c 1,2,-1
 506 -167 l 1,3,-1
 382 -121 l 1,4,-1
 452 44 l 1,5,6
 105 223 105 223 105 801 c 0,7,8
 105 992 105 992 146 1143 c 128,-1,9
 187 1294 187 1294 270 1405.5 c 128,-1,10
 353 1517 353 1517 487 1576.5 c 128,-1,11
 621 1636 621 1636 800 1636 c 0,12,13
 969 1636 969 1636 1104 1582 c 1,14,-1
 1179 1759 l 1,15,-1
 1301 1714 l 1,16,-1
 1219 1521 l 1,17,18
 1364 1421 1364 1421 1435.5 1237.5 c 128,-1,19
 1507 1054 1507 1054 1507 801 c 0,20,21
 1507 649 1507 649 1482 522.5 c 128,-1,22
 1457 396 1457 396 1403 292 c 128,-1,23
 1349 188 1349 188 1267.5 116 c 128,-1,24
 1186 44 1186 44 1069 5 c 128,-1,25
 952 -34 952 -34 805 -34 c 0,0,1
806 191 m 0,26,27
 900 191 900 191 970.5 224 c 128,-1,28
 1041 257 1041 257 1084 311.5 c 128,-1,29
 1127 366 1127 366 1153.5 447 c 128,-1,30
 1180 528 1180 528 1189.5 612.5 c 128,-1,31
 1199 697 1199 697 1199 801 c 0,32,33
 1199 1098 1199 1098 1108 1252 c 1,34,-1
 666 215 l 1,35,36
 752 191 752 191 806 191 c 0,26,27
809 1411 m 0,37,38
 741 1411 741 1411 684.5 1394 c 128,-1,39
 628 1377 628 1377 587.5 1347.5 c 128,-1,40
 547 1318 547 1318 516.5 1274 c 128,-1,41
 486 1230 486 1230 466.5 1179.5 c 128,-1,42
 447 1129 447 1129 434.5 1065.5 c 128,-1,43
 422 1002 422 1002 417.5 938.5 c 128,-1,44
 413 875 413 875 413 801 c 0,45,46
 413 608 413 608 477 526 c 1,47,48
 484 352 484 352 554 287 c 1,49,-1
 1010 1356 l 1,50,51
 925 1411 925 1411 809 1411 c 0,37,38
EndSplineSet
EndChar

StartChar: Thorn
Encoding: 222 222 162
Width: 1410
GlyphClass: 2
Flags: W
LayerCount: 2
Fore
SplineSet
719 520 m 0,0,1
 858 520 858 520 922.5 602 c 128,-1,2
 987 684 987 684 987 859 c 0,3,4
 987 953 987 953 967.5 1020 c 128,-1,5
 948 1087 948 1087 909.5 1127.5 c 128,-1,6
 871 1168 871 1168 818.5 1186.5 c 128,-1,7
 766 1205 766 1205 696 1205 c 0,8,9
 596 1205 596 1205 450 1166 c 1,10,-1
 450 566 l 1,11,12
 613 520 613 520 719 520 c 0,0,1
1275 873 m 0,13,14
 1275 588 1275 588 1124.5 446 c 128,-1,15
 974 304 974 304 684 304 c 0,16,17
 538 304 538 304 450 382 c 1,18,-1
 450 -136 l 1,19,-1
 156 -136 l 1,20,-1
 156 1607 l 1,21,-1
 439 1607 l 1,22,-1
 439 1320 l 1,23,24
 589 1413 589 1413 777 1413 c 0,25,26
 859 1413 859 1413 929.5 1395.5 c 128,-1,27
 1000 1378 1000 1378 1054.5 1345.5 c 128,-1,28
 1109 1313 1109 1313 1151 1266 c 128,-1,29
 1193 1219 1193 1219 1220 1159 c 128,-1,30
 1247 1099 1247 1099 1261 1027 c 128,-1,31
 1275 955 1275 955 1275 873 c 0,13,14
EndSplineSet
EndChar

StartChar: germandbls
Encoding: 223 223 163
Width: 1535
GlyphClass: 2
Flags: W
LayerCount: 2
Fore
SplineSet
1158 398 m 0,0,1
 1158 479 1158 479 1128.5 539.5 c 128,-1,2
 1099 600 1099 600 1050 637 c 128,-1,3
 1001 674 1001 674 929 697 c 128,-1,4
 857 720 857 720 781.5 728 c 128,-1,5
 706 736 706 736 613 736 c 1,6,7
 613 745 613 745 612.5 761 c 128,-1,8
 612 777 612 777 612 789 c 2,9,-1
 612 922 l 1,10,11
 681 922 681 922 727 924.5 c 128,-1,12
 773 927 773 927 824 935.5 c 128,-1,13
 875 944 875 944 906.5 961.5 c 128,-1,14
 938 979 938 979 965 1007 c 128,-1,15
 992 1035 992 1035 1004.5 1078.5 c 128,-1,16
 1017 1122 1017 1122 1017 1181 c 0,17,18
 1017 1303 1017 1303 944 1352 c 128,-1,19
 871 1401 871 1401 729 1401 c 0,20,21
 660 1401 660 1401 611 1381 c 128,-1,22
 562 1361 562 1361 533.5 1329 c 128,-1,23
 505 1297 505 1297 489 1242.5 c 128,-1,24
 473 1188 473 1188 468 1133 c 128,-1,25
 463 1078 463 1078 463 999 c 2,26,-1
 463 0 l 1,27,-1
 156 0 l 1,28,-1
 156 1002 l 2,29,30
 156 1305 156 1305 294.5 1456 c 128,-1,31
 433 1607 433 1607 729 1607 c 0,32,33
 851 1607 851 1607 949.5 1584 c 128,-1,34
 1048 1561 1048 1561 1124.5 1512.5 c 128,-1,35
 1201 1464 1201 1464 1243 1381 c 128,-1,36
 1285 1298 1285 1298 1285 1186 c 0,37,38
 1285 1035 1285 1035 1203 947 c 128,-1,39
 1121 859 1121 859 977 843 c 1,40,41
 1457 792 1457 792 1457 379 c 0,42,43
 1457 255 1457 255 1408.5 158 c 128,-1,44
 1360 61 1360 61 1280.5 0 c 128,-1,45
 1201 -61 1201 -61 1089 -101 c 128,-1,46
 977 -141 977 -141 859 -157 c 128,-1,47
 741 -173 741 -173 607 -173 c 1,48,-1
 607 63 l 1,49,50
 674 67 674 67 722 72 c 128,-1,51
 770 77 770 77 831.5 87.5 c 128,-1,52
 893 98 893 98 936 113 c 128,-1,53
 979 128 979 128 1024 153 c 128,-1,54
 1069 178 1069 178 1096 211 c 128,-1,55
 1123 244 1123 244 1140.5 291.5 c 128,-1,56
 1158 339 1158 339 1158 398 c 0,0,1
EndSplineSet
EndChar

StartChar: ae
Encoding: 230 230 170
Width: 1899
GlyphClass: 2
Flags: W
LayerCount: 2
Fore
SplineSet
1573 690 m 1,0,1
 1573 1010 1573 1010 1346 1010 c 0,2,3
 1222 1010 1222 1010 1158.5 921 c 128,-1,4
 1095 832 1095 832 1092 690 c 1,5,-1
 1573 690 l 1,0,1
1384 188 m 0,6,7
 1473 188 1473 188 1558.5 215 c 128,-1,8
 1644 242 1644 242 1693 284 c 1,9,-1
 1758 89 l 1,10,11
 1694 43 1694 43 1584 12 c 128,-1,12
 1474 -19 1474 -19 1369 -19 c 0,13,14
 1210 -19 1210 -19 1108.5 35.5 c 128,-1,15
 1007 90 1007 90 942 199 c 1,16,17
 876 96 876 96 762 37.5 c 128,-1,18
 648 -21 648 -21 494 -21 c 0,19,20
 298 -21 298 -21 194.5 76.5 c 128,-1,21
 91 174 91 174 91 366 c 0,22,23
 91 466 91 466 127.5 538.5 c 128,-1,24
 164 611 164 611 230.5 653.5 c 128,-1,25
 297 696 297 696 382 716 c 128,-1,26
 467 736 467 736 574 736 c 0,27,28
 712 736 712 736 814 709 c 1,29,30
 814 771 814 771 811 810 c 128,-1,31
 808 849 808 849 796.5 888.5 c 128,-1,32
 785 928 785 928 763.5 949 c 128,-1,33
 742 970 742 970 705 983.5 c 128,-1,34
 668 997 668 997 614 997 c 0,35,36
 509 997 509 997 393 970.5 c 128,-1,37
 277 944 277 944 221 902 c 1,38,-1
 165 1091 l 1,39,40
 227 1145 227 1145 360 1177 c 128,-1,41
 493 1209 493 1209 618 1209 c 0,42,43
 762 1209 762 1209 850.5 1166.5 c 128,-1,44
 939 1124 939 1124 982 1029 c 1,45,46
 1031 1115 1031 1115 1125 1162 c 128,-1,47
 1219 1209 1219 1209 1349 1209 c 0,48,49
 1575 1209 1575 1209 1695.5 1065.5 c 128,-1,50
 1816 922 1816 922 1816 682 c 0,51,52
 1816 612 1816 612 1813 537 c 1,53,-1
 1092 537 l 1,54,55
 1097 188 1097 188 1384 188 c 0,6,7
662 574 m 0,56,57
 617 574 617 574 582.5 571 c 128,-1,58
 548 568 548 568 513 560.5 c 128,-1,59
 478 553 478 553 453.5 539 c 128,-1,60
 429 525 429 525 409.5 504 c 128,-1,61
 390 483 390 483 380 452 c 128,-1,62
 370 421 370 421 370 381 c 0,63,64
 370 182 370 182 566 182 c 0,65,66
 639 182 639 182 695.5 213 c 128,-1,67
 752 244 752 244 814 300 c 1,68,-1
 814 561 l 1,69,70
 716 574 716 574 662 574 c 0,56,57
EndSplineSet
EndChar

StartChar: igrave
Encoding: 236 236 176
Width: 667
GlyphClass: 2
Flags: W
LayerCount: 2
Fore
SplineSet
-40 1912 m 1,0,-1
 250 2038 l 1,1,-1
 437 1411 l 1,2,-1
 313 1355 l 1,3,-1
 -40 1912 l 1,0,-1
203 0 m 1,4,-1
 203 1185 l 1,5,-1
 493 1185 l 1,6,-1
 493 0 l 1,7,-1
 203 0 l 1,4,-1
EndSplineSet
EndChar

StartChar: iacute
Encoding: 237 237 177
Width: 667
GlyphClass: 2
Flags: W
LayerCount: 2
Fore
SplineSet
155 1387 m 1,0,-1
 344 2010 l 1,1,-1
 630 1885 l 1,2,-1
 275 1331 l 1,3,-1
 155 1387 l 1,0,-1
203 0 m 1,4,-1
 203 1185 l 1,5,-1
 493 1185 l 1,6,-1
 493 0 l 1,7,-1
 203 0 l 1,4,-1
EndSplineSet
EndChar

StartChar: icircumflex
Encoding: 238 238 178
Width: 667
GlyphClass: 2
Flags: W
LayerCount: 2
Fore
SplineSet
433 1954 m 1,0,-1
 708 1372 l 1,1,-1
 488 1341 l 1,2,-1
 334 1728 l 1,3,-1
 180 1341 l 1,4,-1
 -39 1372 l 1,5,-1
 237 1954 l 1,6,-1
 433 1954 l 1,0,-1
203 0 m 1,7,-1
 203 1185 l 1,8,-1
 493 1185 l 1,9,-1
 493 0 l 1,10,-1
 203 0 l 1,7,-1
EndSplineSet
EndChar

StartChar: idieresis
Encoding: 239 239 179
Width: 667
GlyphClass: 2
Flags: W
LayerCount: 2
Fore
SplineSet
14 1325 m 0,0,1
 -59 1325 -59 1325 -104.5 1371.5 c 128,-1,2
 -150 1418 -150 1418 -150 1491 c 0,3,4
 -150 1563 -150 1563 -104 1610 c 128,-1,5
 -58 1657 -58 1657 14 1657 c 128,-1,6
 86 1657 86 1657 133 1610 c 128,-1,7
 180 1563 180 1563 180 1491 c 128,-1,8
 180 1419 180 1419 133 1372 c 128,-1,9
 86 1325 86 1325 14 1325 c 0,0,1
624 1325 m 0,10,11
 551 1325 551 1325 505.5 1371.5 c 128,-1,12
 460 1418 460 1418 460 1491 c 0,13,14
 460 1563 460 1563 506 1610 c 128,-1,15
 552 1657 552 1657 624 1657 c 0,16,17
 695 1657 695 1657 742.5 1609.5 c 128,-1,18
 790 1562 790 1562 790 1491 c 128,-1,19
 790 1420 790 1420 742.5 1372.5 c 128,-1,20
 695 1325 695 1325 624 1325 c 0,10,11
203 0 m 1,21,-1
 203 1185 l 1,22,-1
 493 1185 l 1,23,-1
 493 0 l 1,24,-1
 203 0 l 1,21,-1
EndSplineSet
EndChar

StartChar: eth
Encoding: 240 240 180
Width: 1272
GlyphClass: 2
Flags: W
LayerCount: 2
Fore
SplineSet
919 1451 m 1,0,1
 1043 1287 1043 1287 1109.5 1096 c 128,-1,2
 1176 905 1176 905 1176 654 c 0,3,4
 1176 495 1176 495 1145 373.5 c 128,-1,5
 1114 252 1114 252 1047.5 163 c 128,-1,6
 981 74 981 74 871.5 28 c 128,-1,7
 762 -18 762 -18 611 -18 c 0,8,9
 479 -18 479 -18 377.5 28.5 c 128,-1,10
 276 75 276 75 212.5 159 c 128,-1,11
 149 243 149 243 117 355 c 128,-1,12
 85 467 85 467 85 603 c 0,13,14
 85 728 85 728 113 835.5 c 128,-1,15
 141 943 141 943 195.5 1027.5 c 128,-1,16
 250 1112 250 1112 340.5 1160.5 c 128,-1,17
 431 1209 431 1209 547 1209 c 0,18,19
 656 1209 656 1209 744 1167 c 128,-1,20
 832 1125 832 1125 884 1057 c 1,21,22
 845 1205 845 1205 692 1379 c 1,23,-1
 453 1305 l 1,24,-1
 410 1433 l 1,25,-1
 586 1488 l 1,26,27
 496 1572 496 1572 402 1630 c 1,28,-1
 528 1780 l 1,29,30
 690 1684 690 1684 817 1560 c 1,31,-1
 1113 1653 l 1,32,-1
 1156 1525 l 1,33,-1
 919 1451 l 1,0,1
610 1007 m 0,34,35
 541 1007 541 1007 493 974.5 c 128,-1,36
 445 942 445 942 420.5 882 c 128,-1,37
 396 822 396 822 385.5 753.5 c 128,-1,38
 375 685 375 685 375 597 c 0,39,40
 375 185 375 185 619 185 c 0,41,42
 688 185 688 185 738.5 213.5 c 128,-1,43
 789 242 789 242 818.5 294 c 128,-1,44
 848 346 848 346 863 405 c 128,-1,45
 878 464 878 464 882 537 c 1,46,47
 886 650 886 650 886 796 c 1,48,49
 862 893 862 893 791 950 c 128,-1,50
 720 1007 720 1007 610 1007 c 0,34,35
EndSplineSet
EndChar

StartChar: divide
Encoding: 247 247 187
Width: 1163
GlyphClass: 2
Flags: W
LayerCount: 2
Fore
SplineSet
595 875 m 0,0,1
 523 875 523 875 478 921.5 c 128,-1,2
 433 968 433 968 433 1041 c 0,3,4
 433 1113 433 1113 478 1160 c 128,-1,5
 523 1207 523 1207 595 1207 c 0,6,7
 666 1207 666 1207 710.5 1160 c 128,-1,8
 755 1113 755 1113 755 1041 c 128,-1,9
 755 969 755 969 710.5 922 c 128,-1,10
 666 875 666 875 595 875 c 0,0,1
596 143 m 0,11,12
 524 143 524 143 479 189.5 c 128,-1,13
 434 236 434 236 434 309 c 0,14,15
 434 381 434 381 479 428 c 128,-1,16
 524 475 524 475 596 475 c 0,17,18
 667 475 667 475 711.5 428 c 128,-1,19
 756 381 756 381 756 309 c 128,-1,20
 756 237 756 237 711.5 190 c 128,-1,21
 667 143 667 143 596 143 c 0,11,12
148 570 m 1,22,-1
 148 784 l 1,23,-1
 1041 784 l 1,24,-1
 1041 570 l 1,25,-1
 148 570 l 1,22,-1
EndSplineSet
EndChar

StartChar: oslash
Encoding: 248 248 188
Width: 1299
GlyphClass: 2
Flags: W
LayerCount: 2
Fore
SplineSet
649 1026 m 0,0,1
 567 1026 567 1026 506.5 994 c 128,-1,2
 446 962 446 962 411.5 903.5 c 128,-1,3
 377 845 377 845 360.5 771.5 c 128,-1,4
 344 698 344 698 344 607 c 0,5,6
 344 477 344 477 373.5 374.5 c 128,-1,7
 403 272 403 272 468 229 c 1,8,-1
 736 1015 l 1,9,10
 707 1026 707 1026 649 1026 c 0,0,1
1213 592 m 0,11,12
 1213 308 1213 308 1067.5 145 c 128,-1,13
 922 -18 922 -18 649 -18 c 0,14,15
 570 -18 570 -18 503 -3 c 1,16,-1
 440 -188 l 1,17,-1
 340 -154 l 1,18,-1
 402 27 l 1,19,20
 247 92 247 92 166 235.5 c 128,-1,21
 85 379 85 379 85 592 c 0,22,23
 85 877 85 877 230.5 1043 c 128,-1,24
 376 1209 376 1209 649 1209 c 0,25,26
 719 1209 719 1209 794 1194 c 1,27,-1
 860 1389 l 1,28,-1
 957 1355 l 1,29,-1
 892 1164 l 1,30,31
 1047 1099 1047 1099 1130 953.5 c 128,-1,32
 1213 808 1213 808 1213 592 c 0,11,12
649 163 m 0,33,34
 732 163 732 163 794 197 c 128,-1,35
 856 231 856 231 891.5 291.5 c 128,-1,36
 927 352 927 352 943.5 427.5 c 128,-1,37
 960 503 960 503 960 594 c 0,38,39
 960 862 960 862 826 960 c 1,40,-1
 562 173 l 1,41,42
 591 163 591 163 649 163 c 0,33,34
EndSplineSet
EndChar

StartChar: thorn
Encoding: 254 254 194
Width: 1331
GlyphClass: 2
Flags: W
LayerCount: 2
Fore
SplineSet
737 184 m 0,0,1
 791 184 791 184 831 208 c 128,-1,2
 871 232 871 232 894 269 c 128,-1,3
 917 306 917 306 931 361 c 128,-1,4
 945 416 945 416 949.5 467 c 128,-1,5
 954 518 954 518 954 581 c 0,6,7
 954 1001 954 1001 715 1001 c 0,8,9
 656 1001 656 1001 602.5 983 c 128,-1,10
 549 965 549 965 519 945.5 c 128,-1,11
 489 926 489 926 446 891 c 1,12,-1
 446 291 l 1,13,14
 564 184 564 184 737 184 c 0,0,1
1246 583 m 0,15,16
 1246 410 1246 410 1194.5 277 c 128,-1,17
 1143 144 1143 144 1031 63 c 128,-1,18
 919 -18 919 -18 757 -18 c 0,19,20
 545 -18 545 -18 445 115 c 1,21,-1
 445 -437 l 1,22,-1
 154 -446 l 1,23,-1
 154 1601 l 1,24,-1
 441 1601 l 1,25,-1
 441 1045 l 1,26,27
 489 1116 489 1116 574 1160 c 128,-1,28
 659 1204 659 1204 765 1204 c 0,29,30
 865 1204 865 1204 946 1172.5 c 128,-1,31
 1027 1141 1027 1141 1082.5 1085 c 128,-1,32
 1138 1029 1138 1029 1175 950 c 128,-1,33
 1212 871 1212 871 1229 779.5 c 128,-1,34
 1246 688 1246 688 1246 583 c 0,15,16
EndSplineSet
EndChar

StartChar: OE
Encoding: 338 338 196
Width: 2325
GlyphClass: 2
Flags: W
LayerCount: 2
Fore
SplineSet
1200 0 m 1,0,-1
 1200 1607 l 1,1,-1
 2249 1607 l 1,2,-1
 2249 1405 l 1,3,-1
 1505 1405 l 1,4,-1
 1505 931 l 1,5,-1
 2154 931 l 1,6,-1
 2154 745 l 1,7,-1
 1505 745 l 1,8,-1
 1505 199 l 1,9,-1
 2260 199 l 1,10,-1
 2260 0 l 1,11,-1
 1200 0 l 1,0,-1
805 1635 m 0,12,13
 986 1635 986 1635 1121.5 1576.5 c 128,-1,14
 1257 1518 1257 1518 1341 1408 c 128,-1,15
 1425 1298 1425 1298 1466 1148.5 c 128,-1,16
 1507 999 1507 999 1507 810 c 0,17,18
 1507 656 1507 656 1482.5 528.5 c 128,-1,19
 1458 401 1458 401 1405 295.5 c 128,-1,20
 1352 190 1352 190 1270.5 117.5 c 128,-1,21
 1189 45 1189 45 1071.5 5 c 128,-1,22
 954 -35 954 -35 805 -35 c 0,23,24
 619 -35 619 -35 482.5 26.5 c 128,-1,25
 346 88 346 88 264 203 c 128,-1,26
 182 318 182 318 143 471 c 128,-1,27
 104 624 104 624 104 819 c 0,28,29
 104 968 104 968 130 1092.5 c 128,-1,30
 156 1217 156 1217 211 1318 c 128,-1,31
 266 1419 266 1419 348 1489 c 128,-1,32
 430 1559 430 1559 545.5 1597 c 128,-1,33
 661 1635 661 1635 805 1635 c 0,12,13
808 1411 m 0,34,35
 714 1411 714 1411 643.5 1378 c 128,-1,36
 573 1345 573 1345 529.5 1290.5 c 128,-1,37
 486 1236 486 1236 459.5 1155 c 128,-1,38
 433 1074 433 1074 423 988.5 c 128,-1,39
 413 903 413 903 413 798 c 0,40,41
 413 695 413 695 423 610.5 c 128,-1,42
 433 526 433 526 460 446 c 128,-1,43
 487 366 487 366 530 312 c 128,-1,44
 573 258 573 258 643 225 c 128,-1,45
 713 192 713 192 805 192 c 0,46,47
 883 192 883 192 944.5 214 c 128,-1,48
 1006 236 1006 236 1048.5 277.5 c 128,-1,49
 1091 319 1091 319 1121 373 c 128,-1,50
 1151 427 1151 427 1167.5 497.5 c 128,-1,51
 1184 568 1184 568 1191.5 640.5 c 128,-1,52
 1199 713 1199 713 1199 798 c 0,53,54
 1199 902 1199 902 1189 987 c 128,-1,55
 1179 1072 1179 1072 1152.5 1153.5 c 128,-1,56
 1126 1235 1126 1235 1083 1289.5 c 128,-1,57
 1040 1344 1040 1344 970.5 1377.5 c 128,-1,58
 901 1411 901 1411 808 1411 c 0,34,35
EndSplineSet
EndChar

StartChar: oe
Encoding: 339 339 197
Width: 2045
GlyphClass: 2
Flags: W
LayerCount: 2
Fore
SplineSet
1719 690 m 1,0,1
 1719 1013 1719 1013 1487 1016 c 1,2,3
 1401 1015 1401 1015 1341.5 969 c 128,-1,4
 1282 923 1282 923 1255.5 852.5 c 128,-1,5
 1229 782 1229 782 1225 690 c 1,6,-1
 1719 690 l 1,0,1
376 588 m 0,7,8
 376 169 376 169 650 169 c 0,9,10
 714 169 714 169 763 191.5 c 128,-1,11
 812 214 812 214 842.5 251.5 c 128,-1,12
 873 289 873 289 892 344 c 128,-1,13
 911 399 911 399 918.5 458 c 128,-1,14
 926 517 926 517 926 588 c 0,15,16
 926 1010 926 1010 650 1010 c 0,17,18
 376 1010 376 1010 376 588 c 0,7,8
1535 177 m 0,19,20
 1632 177 1632 177 1701.5 203 c 128,-1,21
 1771 229 1771 229 1839 281 c 1,22,-1
 1905 84 l 1,23,24
 1718 -24 1718 -24 1512 -24 c 0,25,26
 1350 -24 1350 -24 1244.5 30.5 c 128,-1,27
 1139 85 1139 85 1076 194 c 1,28,29
 1030 87 1030 87 916.5 27.5 c 128,-1,30
 803 -32 803 -32 650 -32 c 0,31,32
 374 -32 374 -32 230 133 c 128,-1,33
 86 298 86 298 86 587 c 0,34,35
 86 877 86 877 229.5 1043.5 c 128,-1,36
 373 1210 373 1210 650 1210 c 0,37,38
 966 1210 966 1210 1072 970 c 1,39,40
 1115 1048 1115 1048 1164.5 1098.5 c 128,-1,41
 1214 1149 1214 1149 1294 1182 c 128,-1,42
 1374 1215 1374 1215 1480 1215 c 0,43,44
 1715 1215 1715 1215 1838.5 1073.5 c 128,-1,45
 1962 932 1962 932 1962 685 c 0,46,47
 1962 609 1962 609 1959 537 c 1,48,-1
 1226 537 l 1,49,50
 1228 368 1228 368 1303.5 272.5 c 128,-1,51
 1379 177 1379 177 1535 177 c 0,19,20
EndSplineSet
EndChar

StartChar: Scaron
Encoding: 352 352 198
Width: 1325
GlyphClass: 2
Flags: W
LayerCount: 2
Fore
SplineSet
578 1821 m 1,0,-1
 302 2404 l 1,1,-1
 522 2435 l 1,2,-1
 677 2047 l 1,3,-1
 830 2435 l 1,4,-1
 1050 2404 l 1,5,-1
 773 1821 l 1,6,-1
 578 1821 l 1,0,-1
686 1411 m 0,7,8
 618 1411 618 1411 566.5 1403.5 c 128,-1,9
 515 1396 515 1396 468.5 1376 c 128,-1,10
 422 1356 422 1356 397 1316.5 c 128,-1,11
 372 1277 372 1277 372 1218 c 0,12,13
 372 1149 372 1149 412.5 1110.5 c 128,-1,14
 453 1072 453 1072 524 1047 c 1,15,-1
 869 915 l 2,16,17
 950 884 950 884 1012.5 846.5 c 128,-1,18
 1075 809 1075 809 1130.5 753.5 c 128,-1,19
 1186 698 1186 698 1216 619.5 c 128,-1,20
 1246 541 1246 541 1246 443 c 0,21,22
 1246 319 1246 319 1203 226.5 c 128,-1,23
 1160 134 1160 134 1081 77.5 c 128,-1,24
 1002 21 1002 21 896 -6.5 c 128,-1,25
 790 -34 790 -34 658 -34 c 0,26,27
 383 -34 383 -34 127 104 c 1,28,-1
 182 323 l 1,29,30
 203 313 203 313 229.5 302 c 128,-1,31
 256 291 256 291 291.5 278 c 128,-1,32
 327 265 327 265 364.5 253 c 128,-1,33
 402 241 402 241 445.5 229.5 c 128,-1,34
 489 218 489 218 530.5 209.5 c 128,-1,35
 572 201 572 201 616 196 c 128,-1,36
 660 191 660 191 699 191 c 0,37,38
 955 191 955 191 955 402 c 0,39,40
 955 495 955 495 906 549.5 c 128,-1,41
 857 604 857 604 767 637 c 1,42,-1
 413 778 l 1,43,44
 85 907 85 907 85 1196 c 0,45,46
 85 1308 85 1308 129.5 1394 c 128,-1,47
 174 1480 174 1480 252.5 1532 c 128,-1,48
 331 1584 331 1584 431.5 1610 c 128,-1,49
 532 1636 532 1636 650 1636 c 0,50,51
 950 1636 950 1636 1175 1503 c 1,52,-1
 1111 1295 l 1,53,54
 1028 1345 1028 1345 914.5 1378 c 128,-1,55
 801 1411 801 1411 686 1411 c 0,7,8
EndSplineSet
EndChar

StartChar: scaron
Encoding: 353 353 199
Width: 1092
GlyphClass: 2
Flags: W
LayerCount: 2
Fore
SplineSet
450 1393 m 1,0,-1
 174 1976 l 1,1,-1
 394 2007 l 1,2,-1
 549 1619 l 1,3,-1
 702 2007 l 1,4,-1
 922 1976 l 1,5,-1
 645 1393 l 1,6,-1
 450 1393 l 1,0,-1
534 177 m 0,7,8
 733 177 733 177 733 332 c 0,9,10
 733 360 733 360 721 382.5 c 128,-1,11
 709 405 709 405 685.5 421.5 c 128,-1,12
 662 438 662 438 641.5 448.5 c 128,-1,13
 621 459 621 459 590 470 c 2,14,-1
 357 560 l 2,15,16
 300 581 300 581 257.5 606 c 128,-1,17
 215 631 215 631 178 669 c 128,-1,18
 141 707 141 707 122 761.5 c 128,-1,19
 103 816 103 816 103 886 c 0,20,21
 103 970 103 970 138.5 1034.5 c 128,-1,22
 174 1099 174 1099 236.5 1138 c 128,-1,23
 299 1177 299 1177 377 1196 c 128,-1,24
 455 1215 455 1215 546 1215 c 0,25,26
 665 1215 665 1215 785 1186.5 c 128,-1,27
 905 1158 905 1158 969 1109 c 1,28,-1
 903 921 l 1,29,30
 849 961 849 961 748.5 988.5 c 128,-1,31
 648 1016 648 1016 557 1016 c 0,32,33
 362 1016 362 1016 362 886 c 0,34,35
 362 861 362 861 371 842 c 128,-1,36
 380 823 380 823 397.5 810.5 c 128,-1,37
 415 798 415 798 432 790 c 128,-1,38
 449 782 449 782 472 773 c 0,39,40
 479 770 479 770 483 769 c 2,41,-1
 675 698 l 2,42,43
 732 677 732 677 772 658.5 c 128,-1,44
 812 640 812 640 859 609 c 128,-1,45
 906 578 906 578 935 543.5 c 128,-1,46
 964 509 964 509 984 458 c 128,-1,47
 1004 407 1004 407 1004 345 c 0,48,49
 1004 252 1004 252 969 180.5 c 128,-1,50
 934 109 934 109 872 64.5 c 128,-1,51
 810 20 810 20 728 -2 c 128,-1,52
 646 -24 646 -24 548 -24 c 0,53,54
 421 -24 421 -24 300 7 c 128,-1,55
 179 38 179 38 109 90 c 1,56,-1
 175 281 l 1,57,58
 229 239 229 239 336 208 c 128,-1,59
 443 177 443 177 534 177 c 0,7,8
EndSplineSet
EndChar

StartChar: florin
Encoding: 402 402 201
Width: 835
GlyphClass: 2
Flags: W
LayerCount: 2
Fore
SplineSet
878 1455 m 1,0,1
 781 1494 781 1494 713 1494 c 0,2,3
 677 1494 677 1494 650.5 1482 c 128,-1,4
 624 1470 624 1470 607.5 1444 c 128,-1,5
 591 1418 591 1418 580.5 1392 c 128,-1,6
 570 1366 570 1366 565 1324 c 128,-1,7
 560 1282 560 1282 558.5 1252 c 128,-1,8
 557 1222 557 1222 555 1174 c 0,9,10
 555 1167 555 1167 555 1163 c 128,-1,11
 555 1159 555 1159 554.5 1153 c 128,-1,12
 554 1147 554 1147 554 1142 c 1,13,-1
 849 1142 l 1,14,-1
 845 1010 l 1,15,-1
 549 1010 l 1,16,-1
 523 365 l 1,17,18
 514 204 514 204 481.5 91.5 c 128,-1,19
 449 -21 449 -21 381 -98 c 1,20,21
 321 -98 321 -98 217.5 -82 c 128,-1,22
 114 -66 114 -66 61 -66 c 1,23,-1
 91 54 l 1,24,25
 91 65 91 65 104.5 73 c 128,-1,26
 118 81 118 81 136.5 88 c 128,-1,27
 155 95 155 95 160 99 c 1,28,29
 219 173 219 173 226 318 c 2,30,-1
 256 1010 l 1,31,-1
 46 1010 l 1,32,-1
 50 1142 l 1,33,-1
 260 1142 l 1,34,35
 264 1245 264 1245 275.5 1323 c 128,-1,36
 287 1401 287 1401 314.5 1477.5 c 128,-1,37
 342 1554 342 1554 384.5 1602.5 c 128,-1,38
 427 1651 427 1651 497 1681 c 128,-1,39
 567 1711 567 1711 660 1711 c 0,40,41
 704 1711 704 1711 745 1703 c 128,-1,42
 786 1695 786 1695 834 1680.5 c 128,-1,43
 882 1666 882 1666 904 1661 c 1,44,-1
 878 1455 l 1,0,1
EndSplineSet
EndChar

StartChar: circumflex
Encoding: 710 710 202
Width: 1331
GlyphClass: 2
Flags: W
LayerCount: 2
Fore
SplineSet
787 837 m 1,0,-1
 1064 254 l 1,1,-1
 843 223 l 1,2,-1
 689 611 l 1,3,-1
 535 223 l 1,4,-1
 316 254 l 1,5,-1
 592 837 l 1,6,-1
 787 837 l 1,0,-1
EndSplineSet
EndChar

StartChar: ring
Encoding: 730 730 203
Width: 1256
GlyphClass: 2
Flags: W
LayerCount: 2
Fore
SplineSet
628 688 m 0,0,1
 554 688 554 688 506.5 640 c 128,-1,2
 459 592 459 592 459 519 c 128,-1,3
 459 446 459 446 506.5 398.5 c 128,-1,4
 554 351 554 351 628 351 c 128,-1,5
 702 351 702 351 749.5 398.5 c 128,-1,6
 797 446 797 446 797 519 c 128,-1,7
 797 592 797 592 749 640 c 128,-1,8
 701 688 701 688 628 688 c 0,0,1
306 522 m 0,9,10
 306 654 306 654 399.5 739.5 c 128,-1,11
 493 825 493 825 629 825 c 0,12,13
 768 825 768 825 859.5 738.5 c 128,-1,14
 951 652 951 652 951 516 c 0,15,16
 951 382 951 382 856 297.5 c 128,-1,17
 761 213 761 213 622 213 c 0,18,19
 487 213 487 213 396.5 300.5 c 128,-1,20
 306 388 306 388 306 522 c 0,9,10
EndSplineSet
EndChar

StartChar: tilde
Encoding: 732 732 204
Width: 1438
GlyphClass: 2
Flags: W
LayerCount: 2
Fore
SplineSet
1155 529 m 1,0,1
 1155 394 1155 394 1103 311 c 128,-1,2
 1051 228 1051 228 942 228 c 0,3,4
 898 228 898 228 849 242 c 128,-1,5
 800 256 800 256 776 266.5 c 128,-1,6
 752 277 752 277 693.5 308 c 128,-1,7
 635 339 635 339 630 342 c 0,8,9
 587 364 587 364 558 364 c 0,10,11
 522 364 522 364 509 333.5 c 128,-1,12
 496 303 496 303 496 246 c 1,13,-1
 305 246 l 1,14,15
 305 559 305 559 528 559 c 0,16,17
 571 559 571 559 612.5 548.5 c 128,-1,18
 654 538 654 538 677.5 527 c 128,-1,19
 701 516 701 516 743 494 c 2,20,-1
 791 470 l 2,21,22
 794 469 794 469 812 459 c 128,-1,23
 830 449 830 449 837 446 c 128,-1,24
 844 443 844 443 859 437 c 128,-1,25
 874 431 874 431 887 428.5 c 128,-1,26
 900 426 900 426 913 426 c 0,27,28
 928 426 928 426 937.5 433.5 c 128,-1,29
 947 441 947 441 951 457 c 128,-1,30
 955 473 955 473 956 488 c 128,-1,31
 957 503 957 503 957 529 c 1,32,-1
 1155 529 l 1,0,1
EndSplineSet
EndChar

StartChar: uni0306
Encoding: 774 774 205
Width: 1103
GlyphClass: 2
Flags: W
LayerCount: 2
Fore
SplineSet
549 1505 m 256,0,1
 624 1505 624 1505 655.5 1545 c 128,-1,2
 687 1585 687 1585 687 1668 c 1,3,-1
 863 1668 l 1,4,5
 863 1515 863 1515 785 1441 c 128,-1,6
 707 1367 707 1367 549 1367 c 0,7,8
 233 1367 233 1367 233 1668 c 1,9,-1
 410 1668 l 1,10,11
 410 1585 410 1585 442 1545 c 128,-1,12
 474 1505 474 1505 549 1505 c 256,0,1
EndSplineSet
EndChar

StartChar: uni0E81
Encoding: 3713 3713 206
Width: 1515
GlyphClass: 2
Flags: W
LayerCount: 2
Fore
SplineSet
1144 747 m 2,0,1
 1144 813 1144 813 1134.5 857 c 128,-1,2
 1125 901 1125 901 1101.5 932.5 c 128,-1,3
 1078 964 1078 964 1037 978 c 128,-1,4
 996 992 996 992 935 992 c 1,5,6
 842 990 842 990 663 871 c 1,7,8
 663 864 663 864 664.5 850 c 128,-1,9
 666 836 666 836 666 829 c 2,10,-1
 666 353 l 2,11,12
 666 190 666 190 586.5 95 c 128,-1,13
 507 0 507 0 354 0 c 0,14,15
 76 0 76 0 76 226 c 0,16,17
 76 311 76 311 133.5 371.5 c 128,-1,18
 191 432 191 432 275 432 c 1,19,20
 281 431 281 431 292 430.5 c 128,-1,21
 303 430 303 430 311 429 c 128,-1,22
 319 428 319 428 326 426 c 2,23,-1
 383 408 l 1,24,-1
 383 744 l 1,25,26
 347 740 347 740 328 740 c 0,27,28
 215 740 215 740 143.5 796 c 128,-1,29
 72 852 72 852 72 956 c 0,30,31
 72 1030 72 1030 108.5 1079 c 128,-1,32
 145 1128 145 1128 206 1149 c 128,-1,33
 267 1170 267 1170 353 1170 c 0,34,35
 532 1170 532 1170 618 1028 c 1,36,37
 673 1065 673 1065 703.5 1083 c 128,-1,38
 734 1101 734 1101 783 1125 c 128,-1,39
 832 1149 832 1149 879.5 1159.5 c 128,-1,40
 927 1170 927 1170 980 1170 c 0,41,42
 1428 1170 1428 1170 1428 697 c 2,43,-1
 1428 0 l 1,44,-1
 1144 0 l 1,45,-1
 1144 747 l 2,0,1
251 957 m 1,46,47
 260 881 260 881 326 876 c 1,48,49
 357 876 357 876 383 885 c 1,50,-1
 383 931 l 1,51,52
 375 1018 375 1018 318 1026 c 1,53,54
 285 1026 285 1026 268 1008.5 c 128,-1,55
 251 991 251 991 251 957 c 1,46,47
326 301 m 2,56,57
 290 301 290 301 271.5 282.5 c 128,-1,58
 253 264 253 264 253 228 c 0,59,60
 253 149 253 149 317 147 c 1,61,62
 383 149 383 149 383 241 c 2,63,-1
 383 301 l 1,64,-1
 326 301 l 2,56,57
EndSplineSet
EndChar

StartChar: uni0E82
Encoding: 3714 3714 207
Width: 1317
GlyphClass: 2
Flags: W
LayerCount: 2
Fore
SplineSet
686 1170 m 0,0,1
 748 1170 748 1170 801.5 1167 c 128,-1,2
 855 1164 855 1164 908.5 1156.5 c 128,-1,3
 962 1149 962 1149 1005.5 1136 c 128,-1,4
 1049 1123 1049 1123 1089 1104.5 c 128,-1,5
 1129 1086 1129 1086 1159 1060 c 128,-1,6
 1189 1034 1189 1034 1211.5 1000.5 c 128,-1,7
 1234 967 1234 967 1245 924 c 128,-1,8
 1256 881 1256 881 1256 829 c 0,9,10
 1256 775 1256 775 1241 728.5 c 128,-1,11
 1226 682 1226 682 1204 648 c 128,-1,12
 1182 614 1182 614 1143 582.5 c 128,-1,13
 1104 551 1104 551 1071.5 531.5 c 128,-1,14
 1039 512 1039 512 986 490.5 c 128,-1,15
 933 469 933 469 901 458 c 128,-1,16
 869 447 869 447 813 430 c 2,17,-1
 675 387 l 2,18,19
 661 383 661 383 632 375.5 c 128,-1,20
 603 368 603 368 578.5 362.5 c 128,-1,21
 554 357 554 357 525.5 347 c 128,-1,22
 497 337 497 337 477.5 326.5 c 128,-1,23
 458 316 458 316 444.5 300 c 128,-1,24
 431 284 431 284 431 266 c 0,25,26
 431 249 431 249 438 239.5 c 128,-1,27
 445 230 445 230 456.5 227 c 128,-1,28
 468 224 468 224 487 224 c 0,29,30
 543 224 543 224 607 244 c 128,-1,31
 671 264 671 264 721 287.5 c 128,-1,32
 771 311 771 311 839.5 331 c 128,-1,33
 908 351 908 351 971 351 c 0,34,35
 1024 351 1024 351 1072 336 c 128,-1,36
 1120 321 1120 321 1155 298.5 c 128,-1,37
 1190 276 1190 276 1226 238.5 c 128,-1,38
 1262 201 1262 201 1286.5 168 c 128,-1,39
 1311 135 1311 135 1341 88 c 1,40,-1
 1178 -55 l 1,41,42
 1171 -43 1171 -43 1155.5 -18.5 c 128,-1,43
 1140 6 1140 6 1131 19 c 128,-1,44
 1122 32 1122 32 1106.5 52 c 128,-1,45
 1091 72 1091 72 1077 83 c 128,-1,46
 1063 94 1063 94 1044 105.5 c 128,-1,47
 1025 117 1025 117 1002.5 122 c 128,-1,48
 980 127 980 127 953 127 c 0,49,50
 898 127 898 127 843 114 c 128,-1,51
 788 101 788 101 742.5 82 c 128,-1,52
 697 63 697 63 651 44.5 c 128,-1,53
 605 26 605 26 549.5 13 c 128,-1,54
 494 0 494 0 437 0 c 0,55,56
 147 0 147 0 147 241 c 0,57,58
 147 282 147 282 159.5 317 c 128,-1,59
 172 352 172 352 189 378 c 128,-1,60
 206 404 206 404 238 428.5 c 128,-1,61
 270 453 270 453 295 468 c 128,-1,62
 320 483 320 483 364.5 501 c 128,-1,63
 409 519 409 519 434 528 c 128,-1,64
 459 537 459 537 507 552 c 0,65,66
 536 561 536 561 549 566 c 2,67,-1
 647 599 l 2,68,69
 667 605 667 605 703 615.5 c 128,-1,70
 739 626 739 626 761 632.5 c 128,-1,71
 783 639 783 639 815 651.5 c 128,-1,72
 847 664 847 664 867 675.5 c 128,-1,73
 887 687 887 687 910 705.5 c 128,-1,74
 933 724 933 724 946 745 c 128,-1,75
 959 766 959 766 967.5 795.5 c 128,-1,76
 976 825 976 825 976 860 c 0,77,78
 976 890 976 890 965.5 913.5 c 128,-1,79
 955 937 955 937 934.5 953 c 128,-1,80
 914 969 914 969 888.5 979.5 c 128,-1,81
 863 990 863 990 829.5 996 c 128,-1,82
 796 1002 796 1002 763.5 1004.5 c 128,-1,83
 731 1007 731 1007 693 1007 c 0,84,85
 643 1007 643 1007 616.5 1006.5 c 128,-1,86
 590 1006 590 1006 551.5 1004 c 128,-1,87
 513 1002 513 1002 484 996.5 c 128,-1,88
 455 991 455 991 431 982 c 1,89,90
 448 985 448 985 464 985 c 0,91,92
 537 985 537 985 587.5 928.5 c 128,-1,93
 638 872 638 872 638 797 c 0,94,95
 638 699 638 699 570.5 641 c 128,-1,96
 503 583 503 583 399 583 c 0,97,98
 140 583 140 583 140 835 c 0,99,100
 140 911 140 911 171.5 970 c 128,-1,101
 203 1029 203 1029 254.5 1066 c 128,-1,102
 306 1103 306 1103 378 1127 c 128,-1,103
 450 1151 450 1151 525.5 1160.5 c 128,-1,104
 601 1170 601 1170 686 1170 c 0,0,1
399 721 m 0,105,106
 425 721 425 721 442.5 748.5 c 128,-1,107
 460 776 460 776 461 812 c 1,108,109
 461 884 461 884 381 884 c 2,110,-1
 329 884 l 1,111,112
 326 869 326 869 326 853 c 0,113,114
 327 807 327 807 348.5 764 c 128,-1,115
 370 721 370 721 399 721 c 0,105,106
EndSplineSet
EndChar

StartChar: uni0E84
Encoding: 3716 3716 208
Width: 1345
GlyphClass: 2
Flags: W
LayerCount: 2
Fore
SplineSet
685 1170 m 0,0,1
 796 1170 796 1170 883 1155 c 128,-1,2
 970 1140 970 1140 1041.5 1106 c 128,-1,3
 1113 1072 1113 1072 1160 1018 c 128,-1,4
 1207 964 1207 964 1232.5 883.5 c 128,-1,5
 1258 803 1258 803 1258 697 c 2,6,-1
 1258 0 l 1,7,-1
 975 0 l 1,8,-1
 975 693 l 2,9,10
 975 858 975 858 911 924.5 c 128,-1,11
 847 991 847 991 685 991 c 0,12,13
 649 991 649 991 622 990 c 128,-1,14
 595 989 595 989 564 986 c 128,-1,15
 533 983 533 983 510 977.5 c 128,-1,16
 487 972 487 972 465 962 c 128,-1,17
 443 952 443 952 429 938.5 c 128,-1,18
 415 925 415 925 407 905.5 c 128,-1,19
 399 886 399 886 399 862 c 0,20,21
 399 792 399 792 438 755.5 c 128,-1,22
 477 719 477 719 549 719 c 2,23,-1
 706 719 l 1,24,-1
 706 552 l 1,25,-1
 549 552 l 2,26,27
 471 552 471 552 435 519.5 c 128,-1,28
 399 487 399 487 399 414 c 2,29,-1
 399 409 l 1,30,-1
 423 416 l 2,31,32
 429 418 429 418 439.5 420.5 c 128,-1,33
 450 423 450 423 455 424.5 c 128,-1,34
 460 426 460 426 468 427.5 c 128,-1,35
 476 429 476 429 484 429.5 c 128,-1,36
 492 430 492 430 501 430 c 0,37,38
 561 430 561 430 607.5 405 c 128,-1,39
 654 380 654 380 680.5 334.5 c 128,-1,40
 707 289 707 289 707 229 c 0,41,42
 707 0 707 0 427 0 c 0,43,44
 278 0 278 0 197 97 c 128,-1,45
 116 194 116 194 116 353 c 0,46,47
 116 474 116 474 191 548.5 c 128,-1,48
 266 623 266 623 385 638 c 1,49,50
 270 638 270 638 193 698 c 128,-1,51
 116 758 116 758 116 862 c 0,52,53
 116 1170 116 1170 685 1170 c 0,0,1
464 147 m 0,54,55
 497 147 497 147 513.5 169 c 128,-1,56
 530 191 530 191 530 229 c 0,57,58
 530 261 530 261 508.5 281 c 128,-1,59
 487 301 487 301 453 301 c 2,60,-1
 399 301 l 1,61,-1
 399 252 l 2,62,63
 399 201 399 201 412.5 174 c 128,-1,64
 426 147 426 147 464 147 c 0,54,55
EndSplineSet
EndChar

StartChar: uni0E87
Encoding: 3719 3719 209
Width: 1051
GlyphClass: 2
Flags: W
LayerCount: 2
Fore
SplineSet
995 21 m 2,0,1
 995 -254 995 -254 878.5 -387 c 128,-1,2
 762 -520 762 -520 500 -520 c 0,3,4
 85 -520 85 -520 83 -190 c 1,5,-1
 273 -190 l 1,6,7
 273 -286 273 -286 327 -324.5 c 128,-1,8
 381 -363 381 -363 490 -363 c 0,9,10
 533 -363 533 -363 566 -354.5 c 128,-1,11
 599 -346 599 -346 622 -331 c 128,-1,12
 645 -316 645 -316 661.5 -291.5 c 128,-1,13
 678 -267 678 -267 687.5 -240.5 c 128,-1,14
 697 -214 697 -214 702.5 -176 c 128,-1,15
 708 -138 708 -138 709.5 -102.5 c 128,-1,16
 711 -67 711 -67 711 -18 c 2,17,-1
 711 619 l 2,18,19
 711 668 711 668 709.5 706 c 128,-1,20
 708 744 708 744 702.5 787 c 128,-1,21
 697 830 697 830 687.5 862 c 128,-1,22
 678 894 678 894 662 925 c 128,-1,23
 646 956 646 956 623.5 976 c 128,-1,24
 601 996 601 996 569 1009 c 128,-1,25
 537 1022 537 1022 497 1023 c 1,26,27
 516 972 516 972 516 937 c 0,28,29
 516 836 516 836 455.5 787.5 c 128,-1,30
 395 739 395 739 284 739 c 0,31,32
 182 739 182 739 121.5 794.5 c 128,-1,33
 61 850 61 850 61 950 c 0,34,35
 61 998 61 998 83 1036 c 128,-1,36
 105 1074 105 1074 141 1098.5 c 128,-1,37
 177 1123 177 1123 225.5 1139.5 c 128,-1,38
 274 1156 274 1156 324 1162.5 c 128,-1,39
 374 1169 374 1169 428 1169 c 0,40,41
 995 1169 995 1169 995 625 c 2,42,-1
 995 21 l 2,0,1
296 870 m 0,43,44
 366 870 366 870 366 956 c 2,45,-1
 366 1022 l 1,46,47
 238 1011 238 1011 238 937 c 0,48,49
 238 906 238 906 252.5 888 c 128,-1,50
 267 870 267 870 296 870 c 0,43,44
EndSplineSet
EndChar

StartChar: uni0E88
Encoding: 3720 3720 210
Width: 1421
GlyphClass: 2
Flags: W
LayerCount: 2
Fore
SplineSet
642 840 m 0,0,1
 717 840 717 840 771 818 c 128,-1,2
 825 796 825 796 855 759 c 128,-1,3
 885 722 885 722 905.5 671.5 c 128,-1,4
 926 621 926 621 934.5 566 c 128,-1,5
 943 511 943 511 953.5 450 c 128,-1,6
 964 389 964 389 974.5 334.5 c 128,-1,7
 985 280 985 280 1009 227.5 c 128,-1,8
 1033 175 1033 175 1068 140 c 1,9,-1
 1068 676 l 2,10,11
 1068 763 1068 763 1044 824 c 128,-1,12
 1020 885 1020 885 971.5 921.5 c 128,-1,13
 923 958 923 958 855 974.5 c 128,-1,14
 787 991 787 991 694 991 c 0,15,16
 639 991 639 991 590 985.5 c 128,-1,17
 541 980 541 980 494.5 967.5 c 128,-1,18
 448 955 448 955 412 933.5 c 128,-1,19
 376 912 376 912 348 883 c 128,-1,20
 320 854 320 854 305 812 c 128,-1,21
 290 770 290 770 290 719 c 1,22,-1
 38 719 l 1,23,24
 39 803 39 803 63.5 871.5 c 128,-1,25
 88 940 88 940 133 988.5 c 128,-1,26
 178 1037 178 1037 237.5 1073 c 128,-1,27
 297 1109 297 1109 372.5 1129.5 c 128,-1,28
 448 1150 448 1150 528.5 1160 c 128,-1,29
 609 1170 609 1170 700 1170 c 0,30,31
 853 1170 853 1170 967.5 1140 c 128,-1,32
 1082 1110 1082 1110 1164.5 1045.5 c 128,-1,33
 1247 981 1247 981 1289 875.5 c 128,-1,34
 1331 770 1331 770 1331 625 c 2,35,-1
 1331 18 l 1,36,-1
 1055 -82 l 1,37,-1
 1010 -56 l 1,38,39
 759 87 759 87 694 431 c 1,40,-1
 644 416 l 2,41,42
 606 405 606 405 574 405 c 0,43,44
 485 405 485 405 430 463.5 c 128,-1,45
 375 522 375 522 375 613 c 0,46,47
 375 723 375 723 448.5 781.5 c 128,-1,48
 522 840 522 840 642 840 c 0,0,1
683 573 m 2,49,50
 683 632 683 632 670 663.5 c 128,-1,51
 657 695 657 695 618 695 c 0,52,53
 588 695 588 695 570 672 c 128,-1,54
 552 649 552 649 552 613 c 0,55,56
 552 588 552 588 564 570.5 c 128,-1,57
 576 553 576 553 596 545 c 128,-1,58
 616 537 616 537 643 537 c 2,59,-1
 684 537 l 1,60,61
 683 540 683 540 683 551 c 2,62,-1
 683 573 l 2,49,50
EndSplineSet
EndChar

StartChar: uni0E8A
Encoding: 3722 3722 211
Width: 1305
GlyphClass: 2
Flags: W
LayerCount: 2
Fore
SplineSet
330 884 m 1,0,1
 326 856 326 856 326 849 c 0,2,3
 329 729 329 729 390 727 c 1,4,5
 461 727 461 727 461 812 c 1,6,7
 457 884 457 884 376 884 c 2,8,-1
 330 884 l 1,0,1
147 241 m 1,9,10
 148 278 148 278 161.5 311 c 128,-1,11
 175 344 175 344 193 367.5 c 128,-1,12
 211 391 211 391 248 414.5 c 128,-1,13
 285 438 285 438 313 452.5 c 128,-1,14
 341 467 341 467 393 485.5 c 128,-1,15
 445 504 445 504 475.5 513 c 128,-1,16
 506 522 506 522 566 539 c 0,17,18
 618 554 618 554 644 562 c 128,-1,19
 670 570 670 570 717 585.5 c 128,-1,20
 764 601 764 601 789 613 c 128,-1,21
 814 625 814 625 849.5 643 c 128,-1,22
 885 661 885 661 904 679.5 c 128,-1,23
 923 698 923 698 943 721.5 c 128,-1,24
 963 745 963 745 971 773 c 128,-1,25
 979 801 979 801 979 833 c 0,26,27
 979 866 979 866 971.5 892 c 128,-1,28
 964 918 964 918 950.5 937 c 128,-1,29
 937 956 937 956 916 970.5 c 128,-1,30
 895 985 895 985 871.5 993.5 c 128,-1,31
 848 1002 848 1002 817 1007.5 c 128,-1,32
 786 1013 786 1013 755.5 1015 c 128,-1,33
 725 1017 725 1017 687 1017 c 0,34,35
 590 1017 590 1017 529 1008.5 c 128,-1,36
 468 1000 468 1000 428 977 c 1,37,-1
 450 977 l 2,38,39
 525 977 525 977 581.5 927.5 c 128,-1,40
 638 878 638 878 638 798 c 0,41,42
 638 701 638 701 570.5 640.5 c 128,-1,43
 503 580 503 580 400 580 c 0,44,45
 140 580 140 580 140 835 c 0,46,47
 140 889 140 889 156.5 935 c 128,-1,48
 173 981 173 981 201.5 1015 c 128,-1,49
 230 1049 230 1049 271 1076 c 128,-1,50
 312 1103 312 1103 358.5 1120.5 c 128,-1,51
 405 1138 405 1138 460.5 1149 c 128,-1,52
 516 1160 516 1160 571.5 1165 c 128,-1,53
 627 1170 627 1170 686 1170 c 0,54,55
 1258 1170 1258 1170 1258 817 c 0,56,57
 1258 770 1258 770 1247.5 730 c 128,-1,58
 1237 690 1237 690 1220 659.5 c 128,-1,59
 1203 629 1203 629 1175.5 602 c 128,-1,60
 1148 575 1148 575 1121 556 c 128,-1,61
 1094 537 1094 537 1055.5 519 c 128,-1,62
 1017 501 1017 501 985.5 489 c 128,-1,63
 954 477 954 477 911 463 c 2,64,-1
 681 387 l 2,65,66
 664 381 664 381 626 372 c 128,-1,67
 588 363 588 363 559 354.5 c 128,-1,68
 530 346 530 346 498.5 333.5 c 128,-1,69
 467 321 467 321 448.5 303.5 c 128,-1,70
 430 286 430 286 428 264 c 1,71,72
 429 244 429 244 441.5 233.5 c 128,-1,73
 454 223 454 223 475 223 c 0,74,75
 526 223 526 223 599.5 245 c 128,-1,76
 673 267 673 267 737.5 293 c 128,-1,77
 802 319 802 319 883 341 c 128,-1,78
 964 363 964 363 1027 363 c 0,79,80
 1273 363 1273 363 1273 91 c 2,81,-1
 1273 -353 l 1,82,-1
 1024 -353 l 1,83,-1
 1024 72 l 2,84,85
 1024 93 1024 93 1020.5 107 c 128,-1,86
 1017 121 1017 121 1008.5 129.5 c 128,-1,87
 1000 138 1000 138 986.5 141.5 c 128,-1,88
 973 145 973 145 953 145 c 0,89,90
 905 145 905 145 836 122.5 c 128,-1,91
 767 100 767 100 707 72.5 c 128,-1,92
 647 45 647 45 570.5 22.5 c 128,-1,93
 494 0 494 0 432 0 c 0,94,95
 297 0 297 0 222 60 c 128,-1,96
 147 120 147 120 147 241 c 1,9,10
EndSplineSet
EndChar

StartChar: uni0E8D
Encoding: 3725 3725 212
Width: 1334
GlyphClass: 2
Flags: W
LayerCount: 2
Fore
SplineSet
695 178 m 0,0,1
 858 178 858 178 922 245 c 128,-1,2
 986 312 986 312 986 477 c 2,3,-1
 986 1170 l 1,4,-1
 1269 1170 l 1,5,-1
 1269 473 l 2,6,7
 1269 363 1269 363 1242 281.5 c 128,-1,8
 1215 200 1215 200 1166.5 146.5 c 128,-1,9
 1118 93 1118 93 1042 60 c 128,-1,10
 966 27 966 27 876 13.5 c 128,-1,11
 786 0 786 0 669 0 c 0,12,13
 127 0 127 0 127 307 c 0,14,15
 127 360 127 360 150 401.5 c 128,-1,16
 173 443 173 443 215 469.5 c 128,-1,17
 257 496 257 496 309.5 511 c 128,-1,18
 362 526 362 526 427 531 c 1,19,20
 296 545 296 545 211.5 621 c 128,-1,21
 127 697 127 697 127 817 c 0,22,23
 127 894 127 894 147.5 958.5 c 128,-1,24
 168 1023 168 1023 207 1070 c 128,-1,25
 246 1117 246 1117 305 1143.5 c 128,-1,26
 364 1170 364 1170 438 1170 c 0,27,28
 717 1170 717 1170 717 940 c 0,29,30
 717 883 717 883 691.5 837 c 128,-1,31
 666 791 666 791 620.5 765 c 128,-1,32
 575 739 575 739 518 739 c 0,33,34
 434 739 434 739 389 793 c 1,35,36
 389 700 389 700 428.5 658.5 c 128,-1,37
 468 617 468 617 559 617 c 2,38,-1
 716 617 l 1,39,-1
 716 450 l 1,40,-1
 559 450 l 2,41,42
 511 450 511 450 478 434 c 128,-1,43
 445 418 445 418 427.5 386 c 128,-1,44
 410 354 410 354 410 307 c 0,45,46
 410 279 410 279 420.5 257 c 128,-1,47
 431 235 431 235 452 221.5 c 128,-1,48
 473 208 473 208 497 199 c 128,-1,49
 521 190 521 190 556 185.5 c 128,-1,50
 591 181 591 181 622 179.5 c 128,-1,51
 653 178 653 178 695 178 c 0,0,1
464 869 m 2,52,53
 551 869 551 869 551 941 c 0,54,55
 551 984 551 984 532 1009 c 128,-1,56
 513 1034 513 1034 475 1034 c 0,57,58
 427 1034 427 1034 408 1003.5 c 128,-1,59
 389 973 389 973 389 918 c 2,60,-1
 389 869 l 1,61,-1
 464 869 l 2,52,53
EndSplineSet
EndChar

StartChar: uni0E94
Encoding: 3732 3732 213
Width: 1360
GlyphClass: 2
Flags: W
LayerCount: 2
Fore
SplineSet
989 693 m 2,0,1
 989 859 989 859 925 925 c 128,-1,2
 861 991 861 991 698 991 c 0,3,4
 590 991 590 991 528 963.5 c 128,-1,5
 466 936 466 936 437.5 874 c 128,-1,6
 409 812 409 812 409 704 c 2,7,-1
 409 408 l 1,8,-1
 448 421 l 2,9,10
 476 430 476 430 515 430 c 0,11,12
 575 430 575 430 620.5 403 c 128,-1,13
 666 376 666 376 690.5 328 c 128,-1,14
 715 280 715 280 715 219 c 0,15,16
 715 159 715 159 695.5 116 c 128,-1,17
 676 73 676 73 637.5 48 c 128,-1,18
 599 23 599 23 547.5 11.5 c 128,-1,19
 496 0 496 0 427 0 c 0,20,21
 331 0 331 0 262 47.5 c 128,-1,22
 193 95 193 95 160 174.5 c 128,-1,23
 127 254 127 254 127 355 c 2,24,-1
 127 697 l 2,25,26
 127 802 127 802 152.5 882.5 c 128,-1,27
 178 963 178 963 224.5 1017.5 c 128,-1,28
 271 1072 271 1072 342.5 1106 c 128,-1,29
 414 1140 414 1140 500.5 1155 c 128,-1,30
 587 1170 587 1170 698 1170 c 128,-1,31
 809 1170 809 1170 896 1155 c 128,-1,32
 983 1140 983 1140 1055 1105.5 c 128,-1,33
 1127 1071 1127 1071 1174.5 1017 c 128,-1,34
 1222 963 1222 963 1248 882.5 c 128,-1,35
 1274 802 1274 802 1274 697 c 2,36,-1
 1274 0 l 1,37,-1
 989 0 l 1,38,-1
 989 693 l 2,0,1
478 147 m 0,39,40
 508 147 508 147 523.5 168 c 128,-1,41
 539 189 539 189 539 225 c 0,42,43
 539 260 539 260 518.5 280 c 128,-1,44
 498 300 498 300 462 300 c 2,45,-1
 409 300 l 1,46,-1
 409 241 l 2,47,48
 409 195 409 195 424.5 171 c 128,-1,49
 440 147 440 147 478 147 c 0,39,40
EndSplineSet
EndChar

StartChar: uni0E95
Encoding: 3733 3733 214
Width: 1660
GlyphClass: 2
Flags: W
LayerCount: 2
Fore
SplineSet
854 994 m 1,0,1
 886 1077 886 1077 967 1123.5 c 128,-1,2
 1048 1170 1048 1170 1163 1170 c 0,3,4
 1575 1170 1575 1170 1575 693 c 2,5,-1
 1575 0 l 1,6,-1
 1291 0 l 1,7,-1
 1291 713 l 2,8,9
 1291 750 1291 750 1290 776 c 128,-1,10
 1289 802 1289 802 1285 833 c 128,-1,11
 1281 864 1281 864 1274.5 885.5 c 128,-1,12
 1268 907 1268 907 1256 928.5 c 128,-1,13
 1244 950 1244 950 1227 962.5 c 128,-1,14
 1210 975 1210 975 1185.5 983 c 128,-1,15
 1161 991 1161 991 1129 991 c 0,16,17
 1095 991 1095 991 1070 976.5 c 128,-1,18
 1045 962 1045 962 1031 940 c 128,-1,19
 1017 918 1017 918 1009 884 c 128,-1,20
 1001 850 1001 850 998.5 819.5 c 128,-1,21
 996 789 996 789 996 748 c 2,22,-1
 996 558 l 1,23,-1
 712 558 l 1,24,-1
 712 709 l 2,25,26
 712 745 712 745 711.5 768 c 128,-1,27
 711 791 711 791 708 823.5 c 128,-1,28
 705 856 705 856 700 877 c 128,-1,29
 695 898 695 898 684.5 922 c 128,-1,30
 674 946 674 946 659.5 959.5 c 128,-1,31
 645 973 645 973 623 982 c 128,-1,32
 601 991 601 991 573 991 c 0,33,34
 529 991 529 991 499 979.5 c 128,-1,35
 469 968 469 968 451.5 950 c 128,-1,36
 434 932 434 932 424.5 898.5 c 128,-1,37
 415 865 415 865 412.5 832 c 128,-1,38
 410 799 410 799 410 748 c 2,39,-1
 410 410 l 1,40,-1
 450 423 l 2,41,42
 486 434 486 434 518 434 c 0,43,44
 606 434 606 434 661.5 372.5 c 128,-1,45
 717 311 717 311 717 219 c 0,46,47
 717 0 717 0 436 0 c 0,48,49
 339 0 339 0 268.5 43 c 128,-1,50
 198 86 198 86 162.5 162 c 128,-1,51
 127 238 127 238 127 337 c 2,52,-1
 127 697 l 2,53,54
 127 935 127 935 227.5 1052.5 c 128,-1,55
 328 1170 328 1170 548 1170 c 0,56,57
 665 1170 665 1170 744.5 1124.5 c 128,-1,58
 824 1079 824 1079 854 994 c 1,0,1
479 147 m 0,59,60
 509 147 509 147 524.5 168.5 c 128,-1,61
 540 190 540 190 540 225 c 0,62,63
 538 299 538 299 462 299 c 2,64,-1
 410 299 l 1,65,-1
 410 235 l 2,66,67
 410 147 410 147 479 147 c 0,59,60
EndSplineSet
EndChar

StartChar: uni0E96
Encoding: 3734 3734 215
Width: 1434
GlyphClass: 2
Flags: W
LayerCount: 2
Fore
SplineSet
849 1170 m 0,0,1
 1008 1170 1008 1170 1125.5 1119 c 128,-1,2
 1243 1068 1243 1068 1310 961.5 c 128,-1,3
 1377 855 1377 855 1377 702 c 2,4,-1
 1377 -330 l 1,5,-1
 1093 -330 l 1,6,-1
 1093 701 l 2,7,8
 1093 849 1093 849 1030 920 c 128,-1,9
 967 991 967 991 826 991 c 0,10,11
 754 991 754 991 700.5 970.5 c 128,-1,12
 647 950 647 950 578 907 c 1,13,-1
 578 409 l 1,14,-1
 615 422 l 2,15,16
 636 429 636 429 678 429 c 0,17,18
 768 429 768 429 825.5 369.5 c 128,-1,19
 883 310 883 310 883 219 c 0,20,21
 883 0 883 0 593 0 c 0,22,23
 496 0 496 0 427 48 c 128,-1,24
 358 96 358 96 326 176 c 128,-1,25
 294 256 294 256 294 359 c 2,26,-1
 294 767 l 1,27,28
 261 761 261 761 213 761 c 0,29,30
 117 761 117 761 56 816.5 c 128,-1,31
 -5 872 -5 872 -5 965 c 0,32,33
 -5 1170 -5 1170 249 1170 c 0,34,35
 406 1170 406 1170 509 1070 c 1,36,37
 674 1170 674 1170 849 1170 c 0,0,1
642 147 m 1,38,39
 671 147 671 147 689 167 c 128,-1,40
 707 187 707 187 707 220 c 1,41,42
 701 297 701 297 626 300 c 1,43,-1
 578 300 l 1,44,-1
 578 240 l 1,45,46
 588 155 588 155 642 147 c 1,38,39
230 1040 m 0,47,48
 202 1040 202 1040 187.5 1023.5 c 128,-1,49
 173 1007 173 1007 172 978 c 1,50,51
 173 915 173 915 225 915 c 0,52,53
 257 915 257 915 294 931 c 1,54,55
 289 1040 289 1040 230 1040 c 0,47,48
EndSplineSet
EndChar

StartChar: uni0E97
Encoding: 3735 3735 216
Width: 1543
GlyphClass: 2
Flags: W
LayerCount: 2
Fore
SplineSet
974 491 m 2,0,1
 974 251 974 251 874.5 125.5 c 128,-1,2
 775 0 775 0 560 0 c 0,3,4
 470 0 470 0 400 18 c 128,-1,5
 330 36 330 36 278.5 73 c 128,-1,6
 227 110 227 110 199.5 170.5 c 128,-1,7
 172 231 172 231 172 313 c 0,8,9
 172 348 172 348 192 422 c 2,10,-1
 282 747 l 1,11,12
 254 739 254 739 213 739 c 0,13,14
 124 739 124 739 70 800.5 c 128,-1,15
 16 862 16 862 16 955 c 0,16,17
 16 1029 16 1029 53 1078 c 128,-1,18
 90 1127 90 1127 152.5 1148.5 c 128,-1,19
 215 1170 215 1170 301 1170 c 0,20,21
 376 1170 376 1170 439 1147 c 128,-1,22
 502 1124 502 1124 543.5 1074 c 128,-1,23
 585 1024 585 1024 585 956 c 0,24,25
 585 919 585 919 576 889 c 1,26,-1
 444 367 l 1,27,28
 439 327 439 327 439 317 c 2,29,-1
 439 305 l 1,30,31
 446 177 446 177 556 177 c 0,32,33
 586 177 586 177 609 188 c 128,-1,34
 632 199 632 199 646.5 222.5 c 128,-1,35
 661 246 661 246 670.5 271.5 c 128,-1,36
 680 297 680 297 684 335.5 c 128,-1,37
 688 374 688 374 689.5 406 c 128,-1,38
 691 438 691 438 691 484 c 2,39,-1
 691 781 l 2,40,41
 691 981 691 981 789.5 1075.5 c 128,-1,42
 888 1170 888 1170 1091 1170 c 0,43,44
 1193 1170 1193 1170 1265 1141 c 128,-1,45
 1337 1112 1337 1112 1380.5 1053.5 c 128,-1,46
 1424 995 1424 995 1443.5 914.5 c 128,-1,47
 1463 834 1463 834 1463 724 c 2,48,-1
 1463 0 l 1,49,-1
 1179 0 l 1,50,-1
 1179 726 l 1,51,-1
 1179 781 l 2,52,53
 1179 806 1179 806 1178 825 c 128,-1,54
 1177 844 1177 844 1175 867.5 c 128,-1,55
 1173 891 1173 891 1169 907.5 c 128,-1,56
 1165 924 1165 924 1157.5 940.5 c 128,-1,57
 1150 957 1150 957 1140 967.5 c 128,-1,58
 1130 978 1130 978 1115 984.5 c 128,-1,59
 1100 991 1100 991 1082 991 c 0,60,61
 1057 991 1057 991 1039 984.5 c 128,-1,62
 1021 978 1021 978 1009.5 965 c 128,-1,63
 998 952 998 952 990.5 937 c 128,-1,64
 983 922 983 922 979.5 899 c 128,-1,65
 976 876 976 876 975 855.5 c 128,-1,66
 974 835 974 835 974 806 c 2,67,-1
 974 491 l 2,0,1
263 1023 m 0,68,69
 193 1023 193 1023 193 946 c 1,70,71
 194 870 194 870 284 870 c 2,72,-1
 315 870 l 1,73,-1
 333 932 l 1,74,75
 337 939 337 939 337 955 c 0,76,77
 337 976 337 976 327.5 991.5 c 128,-1,78
 318 1007 318 1007 301.5 1015 c 128,-1,79
 285 1023 285 1023 263 1023 c 0,68,69
EndSplineSet
EndChar

StartChar: uni0E99
Encoding: 3737 3737 217
Width: 1506
GlyphClass: 2
Flags: W
LayerCount: 2
Fore
SplineSet
72 953 m 0,0,1
 72 1170 72 1170 358 1170 c 0,2,3
 502 1170 502 1170 581.5 1074 c 128,-1,4
 661 978 661 978 661 824 c 2,5,-1
 661 495 l 2,6,7
 661 413 661 413 671.5 357.5 c 128,-1,8
 682 302 682 302 709.5 259.5 c 128,-1,9
 737 217 737 217 786 197 c 128,-1,10
 835 177 835 177 910 177 c 0,11,12
 982 177 982 177 1029.5 193.5 c 128,-1,13
 1077 210 1077 210 1104.5 247 c 128,-1,14
 1132 284 1132 284 1143.5 335 c 128,-1,15
 1155 386 1155 386 1155 462 c 2,16,-1
 1155 1170 l 1,17,-1
 1438 1170 l 1,18,-1
 1438 498 l 2,19,20
 1438 248 1438 248 1306 124 c 128,-1,21
 1174 0 1174 0 918 0 c 0,22,23
 754 0 754 0 648 62.5 c 128,-1,24
 542 125 542 125 511 249 c 1,25,26
 482 126 482 126 386 63 c 128,-1,27
 290 0 290 0 133 0 c 1,28,-1
 133 180 l 1,29,30
 378 182 378 182 378 493 c 2,31,-1
 378 762 l 1,32,33
 312 740 312 740 279 740 c 0,34,35
 185 740 185 740 128.5 798.5 c 128,-1,36
 72 857 72 857 72 953 c 0,0,1
249 946 m 0,37,38
 249 909 249 909 271.5 889.5 c 128,-1,39
 294 870 294 870 333 870 c 2,40,-1
 378 870 l 1,41,-1
 378 930 l 2,42,43
 378 1019 378 1019 310 1023 c 1,44,45
 249 1023 249 1023 249 946 c 0,37,38
EndSplineSet
EndChar

StartChar: uni0E9A
Encoding: 3738 3738 218
Width: 1425
GlyphClass: 2
Flags: W
LayerCount: 2
Fore
SplineSet
16 950 m 0,0,1
 16 1062 16 1062 88 1116 c 128,-1,2
 160 1170 160 1170 290 1170 c 0,3,4
 412 1170 412 1170 493.5 1103.5 c 128,-1,5
 575 1037 575 1037 575 923 c 0,6,7
 575 887 575 887 568.5 851.5 c 128,-1,8
 562 816 562 816 545 756 c 128,-1,9
 528 696 528 696 523 672 c 1,10,-1
 473 475 l 1,11,12
 453 401 453 401 453 344 c 0,13,14
 453 299 453 299 477 265.5 c 128,-1,15
 501 232 501 232 541.5 213.5 c 128,-1,16
 582 195 582 195 629 186 c 128,-1,17
 676 177 676 177 728 177 c 0,18,19
 815 177 815 177 874.5 189.5 c 128,-1,20
 934 202 934 202 977.5 233 c 128,-1,21
 1021 264 1021 264 1041 318 c 128,-1,22
 1061 372 1061 372 1061 454 c 2,23,-1
 1061 1170 l 1,24,-1
 1345 1170 l 1,25,-1
 1345 507 l 2,26,27
 1345 369 1345 369 1304.5 270.5 c 128,-1,28
 1264 172 1264 172 1183.5 113 c 128,-1,29
 1103 54 1103 54 992 27 c 128,-1,30
 881 0 881 0 732 0 c 0,31,32
 644 0 644 0 567 11 c 128,-1,33
 490 22 490 22 419 48.5 c 128,-1,34
 348 75 348 75 297.5 115.5 c 128,-1,35
 247 156 247 156 217 218.5 c 128,-1,36
 187 281 187 281 187 360 c 0,37,38
 187 406 187 406 206 472 c 2,39,-1
 282 748 l 1,40,41
 250 739 250 739 216 739 c 0,42,43
 128 739 128 739 72 799.5 c 128,-1,44
 16 860 16 860 16 950 c 0,0,1
336 951 m 1,45,46
 336 986 336 986 315.5 1004.5 c 128,-1,47
 295 1023 295 1023 258 1023 c 0,48,49
 193 1023 193 1023 193 942 c 0,50,51
 193 869 193 869 288 868 c 1,52,-1
 295 868 l 1,53,54
 296 869 296 869 305 869 c 2,55,-1
 314 869 l 1,56,-1
 323 898 l 2,57,58
 335 938 335 938 335 948 c 1,59,-1
 336 951 l 1,45,46
EndSplineSet
EndChar

StartChar: uni0E9B
Encoding: 3739 3739 219
Width: 1435
GlyphClass: 2
Flags: W
LayerCount: 2
Fore
SplineSet
16 950 m 0,0,1
 16 1023 16 1023 54.5 1074 c 128,-1,2
 93 1125 93 1125 155.5 1147.5 c 128,-1,3
 218 1170 218 1170 298 1170 c 0,4,5
 418 1170 418 1170 496.5 1103 c 128,-1,6
 575 1036 575 1036 575 922 c 0,7,8
 575 911 575 911 574 900.5 c 128,-1,9
 573 890 573 890 571.5 878.5 c 128,-1,10
 570 867 570 867 568.5 859 c 128,-1,11
 567 851 567 851 564 836.5 c 128,-1,12
 561 822 561 822 559 815.5 c 128,-1,13
 557 809 557 809 552.5 792 c 128,-1,14
 548 775 548 775 547 768 c 2,15,-1
 473 475 l 1,16,17
 453 401 453 401 453 346 c 0,18,19
 453 299 453 299 476.5 265 c 128,-1,20
 500 231 500 231 542.5 212.5 c 128,-1,21
 585 194 585 194 635.5 185.5 c 128,-1,22
 686 177 686 177 748 177 c 0,23,24
 915 177 915 177 992.5 246.5 c 128,-1,25
 1070 316 1070 316 1070 478 c 2,26,-1
 1070 1513 l 1,27,-1
 1354 1513 l 1,28,-1
 1354 512 l 2,29,30
 1354 399 1354 399 1326 312.5 c 128,-1,31
 1298 226 1298 226 1247 167 c 128,-1,32
 1196 108 1196 108 1119 70.5 c 128,-1,33
 1042 33 1042 33 948 16.5 c 128,-1,34
 854 0 854 0 736 0 c 0,35,36
 648 0 648 0 570.5 11 c 128,-1,37
 493 22 493 22 421.5 48.5 c 128,-1,38
 350 75 350 75 299 115 c 128,-1,39
 248 155 248 155 217.5 217.5 c 128,-1,40
 187 280 187 280 187 359 c 0,41,42
 187 374 187 374 188.5 389.5 c 128,-1,43
 190 405 190 405 193.5 422.5 c 128,-1,44
 197 440 197 440 199.5 450 c 128,-1,45
 202 460 202 460 208 482 c 128,-1,46
 214 504 214 504 216 510 c 2,47,-1
 283 747 l 1,48,49
 249 739 249 739 215 739 c 0,50,51
 128 739 128 739 72 799.5 c 128,-1,52
 16 860 16 860 16 950 c 0,0,1
336 956 m 1,53,54
 336 977 336 977 328 992 c 128,-1,55
 320 1007 320 1007 304.5 1015 c 128,-1,56
 289 1023 289 1023 268 1023 c 0,57,58
 193 1022 193 1022 193 942 c 0,59,60
 193 868 193 868 282 868 c 2,61,-1
 315 868 l 1,62,-1
 326 908 l 2,63,64
 329 919 329 919 336 956 c 1,53,54
EndSplineSet
EndChar

StartChar: uni0E9C
Encoding: 3740 3740 220
Width: 1671
GlyphClass: 2
Flags: W
LayerCount: 2
Fore
SplineSet
1245 930 m 2,0,1
 1245 1020 1245 1020 1178 1023 c 0,2,3
 1164 1023 1164 1023 1152 1017 c 128,-1,4
 1140 1011 1140 1011 1132 1001 c 128,-1,5
 1124 991 1124 991 1119.5 977.5 c 128,-1,6
 1115 964 1115 964 1115 948 c 0,7,8
 1115 870 1115 870 1205 870 c 2,9,-1
 1226 870 l 2,10,11
 1240 870 1240 870 1245 871 c 1,12,-1
 1245 930 l 2,0,1
564 950 m 0,13,14
 564 984 564 984 548 1003.5 c 128,-1,15
 532 1023 532 1023 501 1023 c 1,16,17
 433 1019 433 1019 433 930 c 2,18,-1
 433 870 l 1,19,-1
 478 870 l 1,20,21
 564 875 564 875 564 950 c 0,13,14
1245 747 m 1,22,23
 1211 740 1211 740 1148 740 c 0,24,25
 1053 740 1053 740 996 799 c 128,-1,26
 939 858 939 858 939 954 c 0,27,28
 939 1170 939 1170 1223 1170 c 0,29,30
 1396 1170 1396 1170 1473 1035 c 1,31,32
 1487 1070 1487 1070 1487 1142 c 2,33,-1
 1487 1305 l 1,34,-1
 1662 1305 l 1,35,-1
 1662 1142 l 2,36,37
 1662 1105 1662 1105 1654.5 1070.5 c 128,-1,38
 1647 1036 1647 1036 1635 1008.5 c 128,-1,39
 1623 981 1623 981 1605 954.5 c 128,-1,40
 1587 928 1587 928 1567 907.5 c 128,-1,41
 1547 887 1547 887 1523 866 c 1,42,43
 1528 788 1528 788 1528 778 c 2,44,-1
 1528 511 l 2,45,46
 1528 0 1528 0 1153 0 c 0,47,48
 878 0 878 0 835 228 c 1,49,50
 793 0 793 0 519 0 c 0,51,52
 437 0 437 0 373.5 25 c 128,-1,53
 310 50 310 50 268 94 c 128,-1,54
 226 138 226 138 199.5 203 c 128,-1,55
 173 268 173 268 161.5 343.5 c 128,-1,56
 150 419 150 419 150 511 c 2,57,-1
 150 810 l 2,58,59
 150 917 150 917 181.5 996.5 c 128,-1,60
 213 1076 213 1076 282 1123 c 128,-1,61
 351 1170 351 1170 452 1170 c 0,62,63
 591 1170 591 1170 666 1119 c 128,-1,64
 741 1068 741 1068 741 953 c 0,65,66
 741 859 741 859 683.5 799.5 c 128,-1,67
 626 740 626 740 533 740 c 0,68,69
 479 740 479 740 433 760 c 1,70,-1
 433 429 l 2,71,72
 433 392 433 392 434 366.5 c 128,-1,73
 435 341 435 341 439 309 c 128,-1,74
 443 277 443 277 451.5 256 c 128,-1,75
 460 235 460 235 473.5 215.5 c 128,-1,76
 487 196 487 196 508.5 186.5 c 128,-1,77
 530 177 530 177 559 177 c 0,78,79
 696 177 696 177 696 429 c 2,80,-1
 696 588 l 1,81,-1
 980 588 l 1,82,-1
 980 431 l 2,83,84
 980 387 980 387 983 352.5 c 128,-1,85
 986 318 986 318 995 284 c 128,-1,86
 1004 250 1004 250 1018.5 227.5 c 128,-1,87
 1033 205 1033 205 1058 191 c 128,-1,88
 1083 177 1083 177 1116 177 c 256,89,90
 1149 177 1149 177 1172.5 190.5 c 128,-1,91
 1196 204 1196 204 1210 225.5 c 128,-1,92
 1224 247 1224 247 1232 281.5 c 128,-1,93
 1240 316 1240 316 1242.5 349 c 128,-1,94
 1245 382 1245 382 1245 427 c 2,95,-1
 1245 747 l 1,22,23
EndSplineSet
EndChar

StartChar: uni0E9D
Encoding: 3741 3741 221
Width: 1649
GlyphClass: 2
Flags: W
LayerCount: 2
Fore
SplineSet
432 429 m 2,0,1
 432 395 432 395 433 370.5 c 128,-1,2
 434 346 434 346 437.5 318 c 128,-1,3
 441 290 441 290 447.5 270.5 c 128,-1,4
 454 251 454 251 465 232.5 c 128,-1,5
 476 214 476 214 491.5 202.5 c 128,-1,6
 507 191 507 191 529.5 184 c 128,-1,7
 552 177 552 177 581 177 c 0,8,9
 619 177 619 177 646.5 189.5 c 128,-1,10
 674 202 674 202 690.5 223 c 128,-1,11
 707 244 707 244 716.5 277.5 c 128,-1,12
 726 311 726 311 729 346 c 128,-1,13
 732 381 732 381 732 429 c 2,14,-1
 732 588 l 1,15,-1
 1016 588 l 1,16,-1
 1016 429 l 2,17,18
 1016 383 1016 383 1019 348 c 128,-1,19
 1022 313 1022 313 1031.5 279.5 c 128,-1,20
 1041 246 1041 246 1056.5 224.5 c 128,-1,21
 1072 203 1072 203 1098 190 c 128,-1,22
 1124 177 1124 177 1159 177 c 0,23,24
 1190 177 1190 177 1214.5 185.5 c 128,-1,25
 1239 194 1239 194 1255.5 210.5 c 128,-1,26
 1272 227 1272 227 1283 248.5 c 128,-1,27
 1294 270 1294 270 1300 299.5 c 128,-1,28
 1306 329 1306 329 1308.5 359.5 c 128,-1,29
 1311 390 1311 390 1311 429 c 2,30,-1
 1311 1513 l 1,31,-1
 1595 1513 l 1,32,-1
 1595 511 l 2,33,34
 1595 432 1595 432 1586 365 c 128,-1,35
 1577 298 1577 298 1557.5 240.5 c 128,-1,36
 1538 183 1538 183 1506.5 139 c 128,-1,37
 1475 95 1475 95 1432 63.5 c 128,-1,38
 1389 32 1389 32 1330.5 16 c 128,-1,39
 1272 0 1272 0 1201 0 c 0,40,41
 1055 0 1055 0 978 56 c 128,-1,42
 901 112 901 112 872 228 c 1,43,44
 852 118 852 118 776.5 59 c 128,-1,45
 701 0 701 0 575 0 c 0,46,47
 458 0 458 0 375 34.5 c 128,-1,48
 292 69 292 69 243 137 c 128,-1,49
 194 205 194 205 171.5 296.5 c 128,-1,50
 149 388 149 388 149 511 c 2,51,-1
 149 820 l 2,52,53
 149 919 149 919 182 997.5 c 128,-1,54
 215 1076 215 1076 283.5 1123 c 128,-1,55
 352 1170 352 1170 446 1170 c 0,56,57
 739 1170 739 1170 739 956 c 0,58,59
 739 859 739 859 683.5 799.5 c 128,-1,60
 628 740 628 740 533 740 c 0,61,62
 505 740 505 740 432 761 c 1,63,-1
 432 429 l 2,0,1
563 953 m 1,64,65
 563 983 563 983 546 1003 c 128,-1,66
 529 1023 529 1023 501 1023 c 0,67,68
 432 1023 432 1023 432 930 c 2,69,-1
 432 870 l 1,70,-1
 476 870 l 1,71,72
 558 880 558 880 563 953 c 1,64,65
EndSplineSet
EndChar

StartChar: uni0E9E
Encoding: 3742 3742 222
Width: 1607
GlyphClass: 2
Flags: W
LayerCount: 2
Fore
SplineSet
285 1170 m 0,0,1
 364 1170 364 1170 428.5 1143.5 c 128,-1,2
 493 1117 493 1117 534 1062.5 c 128,-1,3
 575 1008 575 1008 575 934 c 0,4,5
 575 912 575 912 562 837 c 1,6,-1
 467 457 l 1,7,8
 453 363 453 363 453 326 c 0,9,10
 453 178 453 178 562 177 c 0,11,12
 599 177 599 177 625 189 c 128,-1,13
 651 201 651 201 666 220 c 128,-1,14
 681 239 681 239 689.5 271 c 128,-1,15
 698 303 698 303 700.5 333 c 128,-1,16
 703 363 703 363 703 407 c 2,17,-1
 703 1169 l 1,18,-1
 987 1169 l 1,19,-1
 987 407 l 2,20,21
 987 353 987 353 992.5 314 c 128,-1,22
 998 275 998 275 1013 242.5 c 128,-1,23
 1028 210 1028 210 1056 193.5 c 128,-1,24
 1084 177 1084 177 1126 177 c 0,25,26
 1159 177 1159 177 1183 189 c 128,-1,27
 1207 201 1207 201 1220.5 220 c 128,-1,28
 1234 239 1234 239 1242 270 c 128,-1,29
 1250 301 1250 301 1252.5 332 c 128,-1,30
 1255 363 1255 363 1255 406 c 2,31,-1
 1255 1170 l 1,32,-1
 1538 1170 l 1,33,-1
 1538 512 l 2,34,35
 1538 418 1538 418 1526 341.5 c 128,-1,36
 1514 265 1514 265 1486.5 200.5 c 128,-1,37
 1459 136 1459 136 1416.5 92.5 c 128,-1,38
 1374 49 1374 49 1310 24.5 c 128,-1,39
 1246 0 1246 0 1163 0 c 0,40,41
 896 0 896 0 844 245 c 1,42,43
 825 126 825 126 744.5 63 c 128,-1,44
 664 0 664 0 526 0 c 0,45,46
 364 0 364 0 275 85.5 c 128,-1,47
 186 171 186 171 186 330 c 0,48,49
 186 407 186 407 205 470 c 1,50,-1
 281 747 l 1,51,52
 247 739 247 739 215 739 c 0,53,54
 126 739 126 739 71 799 c 128,-1,55
 16 859 16 859 16 950 c 0,56,57
 16 1062 16 1062 86.5 1116 c 128,-1,58
 157 1170 157 1170 285 1170 c 0,0,1
335 955 m 0,59,60
 335 1023 335 1023 262 1023 c 1,61,62
 197 1017 197 1017 193 948 c 1,63,64
 193 906 193 906 214.5 887.5 c 128,-1,65
 236 869 236 869 283 869 c 2,66,-1
 314 869 l 1,67,-1
 326 915 l 2,68,69
 326 916 326 916 330.5 932 c 128,-1,70
 335 948 335 948 335 955 c 0,59,60
EndSplineSet
EndChar

StartChar: uni0E9F
Encoding: 3743 3743 223
Width: 1603
GlyphClass: 2
Flags: W
LayerCount: 2
Fore
SplineSet
189 765 m 0,0,1
 134 765 134 765 94.5 790 c 128,-1,2
 55 815 55 815 35.5 859 c 128,-1,3
 16 903 16 903 16 962 c 0,4,5
 16 1034 16 1034 52.5 1081.5 c 128,-1,6
 89 1129 89 1129 150.5 1149.5 c 128,-1,7
 212 1170 212 1170 297 1170 c 0,8,9
 368 1170 368 1170 428 1149 c 128,-1,10
 488 1128 488 1128 528 1082 c 128,-1,11
 568 1036 568 1036 568 971 c 0,12,13
 568 926 568 926 546 834 c 2,14,-1
 459 478 l 2,15,16
 437 390 437 390 437 344 c 0,17,18
 437 177 437 177 550 177 c 0,19,20
 586 177 586 177 611.5 189.5 c 128,-1,21
 637 202 637 202 651.5 221 c 128,-1,22
 666 240 666 240 674.5 272 c 128,-1,23
 683 304 683 304 685.5 334 c 128,-1,24
 688 364 688 364 688 407 c 2,25,-1
 688 1169 l 1,26,-1
 971 1169 l 1,27,-1
 971 406 l 2,28,29
 971 363 971 363 974 330.5 c 128,-1,30
 977 298 977 298 986 268 c 128,-1,31
 995 238 995 238 1010.5 219 c 128,-1,32
 1026 200 1026 200 1051 188.5 c 128,-1,33
 1076 177 1076 177 1111 177 c 0,34,35
 1140 177 1140 177 1161.5 185 c 128,-1,36
 1183 193 1183 193 1196.5 210 c 128,-1,37
 1210 227 1210 227 1219 246 c 128,-1,38
 1228 265 1228 265 1232 294 c 128,-1,39
 1236 323 1236 323 1237.5 347.5 c 128,-1,40
 1239 372 1239 372 1239 407 c 2,41,-1
 1239 1514 l 1,42,-1
 1522 1514 l 1,43,-1
 1522 512 l 2,44,45
 1522 0 1522 0 1148 0 c 0,46,47
 1014 0 1014 0 932.5 61.5 c 128,-1,48
 851 123 851 123 827 245 c 1,49,50
 780 8 780 8 520 0 c 1,51,-1
 510 0 l 1,52,53
 339 1 339 1 255 83.5 c 128,-1,54
 171 166 171 166 171 336 c 0,55,56
 171 402 171 402 193 479 c 2,57,-1
 275 779 l 1,58,59
 245 765 245 765 189 765 c 0,0,1
252 1037 m 1,60,61
 182 1027 182 1027 178 962 c 1,62,63
 178 910 178 910 206 895 c 128,-1,64
 234 880 234 880 303 880 c 1,65,-1
 311 904 l 1,66,-1
 325 968 l 1,67,-1
 325 974 l 1,68,69
 323 1036 323 1036 252 1037 c 1,60,61
EndSplineSet
EndChar

StartChar: uni0EA1
Encoding: 3745 3745 224
Width: 1764
GlyphClass: 2
Flags: W
LayerCount: 2
Fore
SplineSet
890 506 m 2,0,1
 890 426 890 426 902.5 368 c 128,-1,2
 915 310 915 310 942.5 265.5 c 128,-1,3
 970 221 970 221 1018 199 c 128,-1,4
 1066 177 1066 177 1134 177 c 0,5,6
 1274 177 1274 177 1332.5 246.5 c 128,-1,7
 1391 316 1391 316 1391 464 c 2,8,-1
 1391 1170 l 1,9,-1
 1674 1170 l 1,10,-1
 1674 507 l 2,11,12
 1674 0 1674 0 1153 0 c 0,13,14
 993 0 993 0 885 64 c 128,-1,15
 777 128 777 128 746 250 c 1,16,17
 718 132 718 132 605 66 c 128,-1,18
 492 0 492 0 335 0 c 0,19,20
 271 0 271 0 218.5 13 c 128,-1,21
 166 26 166 26 125 52.5 c 128,-1,22
 84 79 84 79 61 124 c 128,-1,23
 38 169 38 169 38 228 c 0,24,25
 38 320 38 320 99.5 375.5 c 128,-1,26
 161 431 161 431 256 431 c 0,27,28
 367 431 367 431 430 383.5 c 128,-1,29
 493 336 493 336 493 238 c 0,30,31
 493 198 493 198 482 176 c 1,32,33
 606 254 606 254 606 498 c 2,34,-1
 606 1170 l 1,35,-1
 890 1170 l 1,36,-1
 890 506 l 2,0,1
278 300 m 0,37,38
 249 300 249 300 232.5 280.5 c 128,-1,39
 216 261 216 261 216 231 c 0,40,41
 216 206 216 206 225.5 190 c 128,-1,42
 235 174 235 174 254 165.5 c 128,-1,43
 273 157 273 157 293 153.5 c 128,-1,44
 313 150 313 150 343 148 c 1,45,-1
 343 225 l 1,46,47
 335 300 335 300 278 300 c 0,37,38
EndSplineSet
EndChar

StartChar: uni0EA2
Encoding: 3746 3746 225
Width: 1353
GlyphClass: 2
Flags: W
LayerCount: 2
Fore
SplineSet
423 311 m 0,0,1
 423 281 423 281 434.5 257.5 c 128,-1,2
 446 234 446 234 468.5 220 c 128,-1,3
 491 206 491 206 515 197 c 128,-1,4
 539 188 539 188 575.5 184 c 128,-1,5
 612 180 612 180 640 179 c 128,-1,6
 668 178 668 178 708 178 c 0,7,8
 788 178 788 178 841.5 191 c 128,-1,9
 895 204 895 204 931 235.5 c 128,-1,10
 967 267 967 267 982.5 318.5 c 128,-1,11
 998 370 998 370 998 448 c 2,12,-1
 998 1137 l 2,13,14
 998 1412 998 1412 1066 1578 c 1,15,-1
 1333 1578 l 1,16,17
 1281 1365 1281 1365 1281 1113 c 2,18,-1
 1281 473 l 2,19,20
 1281 385 1281 385 1264 314.5 c 128,-1,21
 1247 244 1247 244 1212.5 192 c 128,-1,22
 1178 140 1178 140 1130 103 c 128,-1,23
 1082 66 1082 66 1016.5 43.5 c 128,-1,24
 951 21 951 21 875.5 10.5 c 128,-1,25
 800 0 800 0 708 0 c 0,26,27
 630 0 630 0 564 5.5 c 128,-1,28
 498 11 498 11 431.5 23.5 c 128,-1,29
 365 36 365 36 314 59 c 128,-1,30
 263 82 263 82 223 115 c 128,-1,31
 183 148 183 148 161.5 196.5 c 128,-1,32
 140 245 140 245 140 307 c 0,33,34
 140 413 140 413 216 472 c 128,-1,35
 292 531 292 531 408 531 c 1,36,37
 290 543 290 543 215 618.5 c 128,-1,38
 140 694 140 694 140 817 c 0,39,40
 140 975 140 975 221.5 1072.5 c 128,-1,41
 303 1170 303 1170 450 1170 c 0,42,43
 730 1170 730 1170 730 940 c 0,44,45
 730 850 730 850 671 794 c 128,-1,46
 612 738 612 738 520 738 c 0,47,48
 507 738 507 738 494 740 c 128,-1,49
 481 742 481 742 474 744 c 128,-1,50
 467 746 467 746 449 752.5 c 128,-1,51
 431 759 431 759 423 761 c 1,52,-1
 423 755 l 2,53,54
 423 683 423 683 460 650 c 128,-1,55
 497 617 497 617 572 617 c 2,56,-1
 729 617 l 1,57,-1
 729 450 l 1,58,-1
 572 450 l 2,59,60
 525 450 525 450 492 435 c 128,-1,61
 459 420 459 420 441 388.5 c 128,-1,62
 423 357 423 357 423 311 c 0,0,1
477 869 m 2,63,64
 512 869 512 869 532.5 888 c 128,-1,65
 553 907 553 907 553 941 c 0,66,67
 553 1023 553 1023 487 1023 c 1,68,69
 423 1022 423 1022 423 918 c 2,70,-1
 423 869 l 1,71,-1
 477 869 l 2,63,64
EndSplineSet
EndChar

StartChar: uni0EA3
Encoding: 3747 3747 226
Width: 1348
GlyphClass: 2
Flags: W
LayerCount: 2
Fore
SplineSet
94 348 m 0,0,1
 94 472 94 472 158.5 536 c 128,-1,2
 223 600 223 600 349 600 c 0,3,4
 454 600 454 600 522.5 542.5 c 128,-1,5
 591 485 591 485 591 386 c 0,6,7
 591 309 591 309 539.5 255 c 128,-1,8
 488 201 488 201 412 201 c 1,9,-1
 378 207 l 1,10,11
 453 174 453 174 676 174 c 0,12,13
 717 174 717 174 756 178 c 128,-1,14
 795 182 795 182 834 190.5 c 128,-1,15
 873 199 873 199 905.5 213.5 c 128,-1,16
 938 228 938 228 963.5 249 c 128,-1,17
 989 270 989 270 1003 299.5 c 128,-1,18
 1017 329 1017 329 1017 366 c 0,19,20
 1017 425 1017 425 971.5 470.5 c 128,-1,21
 926 516 926 516 856.5 542 c 128,-1,22
 787 568 787 568 697.5 589.5 c 128,-1,23
 608 611 608 611 526.5 624 c 128,-1,24
 445 637 445 637 367.5 655 c 128,-1,25
 290 673 290 673 253 693 c 0,26,27
 208 716 208 716 177.5 745 c 128,-1,28
 147 774 147 774 128 820 c 128,-1,29
 109 866 109 866 109 925 c 0,30,31
 109 970 109 970 125.5 1006 c 128,-1,32
 142 1042 142 1042 170 1067 c 128,-1,33
 198 1092 198 1092 240.5 1111 c 128,-1,34
 283 1130 283 1130 328 1141 c 128,-1,35
 373 1152 373 1152 430.5 1158.5 c 128,-1,36
 488 1165 488 1165 539.5 1167.5 c 128,-1,37
 591 1170 591 1170 653 1170 c 0,38,39
 710 1170 710 1170 756 1168.5 c 128,-1,40
 802 1167 802 1167 854 1162.5 c 128,-1,41
 906 1158 906 1158 946.5 1150 c 128,-1,42
 987 1142 987 1142 1028.5 1129 c 128,-1,43
 1070 1116 1070 1116 1101 1098 c 128,-1,44
 1132 1080 1132 1080 1160 1054.5 c 128,-1,45
 1188 1029 1188 1029 1205.5 997 c 128,-1,46
 1223 965 1223 965 1233.5 923.5 c 128,-1,47
 1244 882 1244 882 1244 832 c 2,48,-1
 1244 810 l 1,49,-1
 988 810 l 1,50,-1
 988 836 l 2,51,52
 988 859 988 859 983.5 878 c 128,-1,53
 979 897 979 897 969 911.5 c 128,-1,54
 959 926 959 926 948.5 937.5 c 128,-1,55
 938 949 938 949 919.5 957 c 128,-1,56
 901 965 901 965 886.5 971 c 128,-1,57
 872 977 872 977 847 980.5 c 128,-1,58
 822 984 822 984 805 986.5 c 128,-1,59
 788 989 788 989 759 990 c 128,-1,60
 730 991 730 991 713 991 c 128,-1,61
 696 991 696 991 665 991 c 2,62,-1
 658 991 l 1,63,-1
 597 991 l 2,64,65
 555 991 555 991 525 989 c 128,-1,66
 495 987 495 987 461.5 980.5 c 128,-1,67
 428 974 428 974 410.5 959 c 128,-1,68
 393 944 393 944 393 921 c 1,69,70
 394 902 394 902 406 886 c 128,-1,71
 418 870 418 870 440 859 c 128,-1,72
 462 848 462 848 487 839.5 c 128,-1,73
 512 831 512 831 545 825 c 128,-1,74
 578 819 578 819 604.5 815 c 128,-1,75
 631 811 631 811 662.5 806.5 c 128,-1,76
 694 802 694 802 712 799 c 0,77,78
 713 799 713 799 715 798 c 0,79,80
 776 787 776 787 808 781 c 128,-1,81
 840 775 840 775 897 762 c 128,-1,82
 954 749 954 749 985.5 738 c 128,-1,83
 1017 727 1017 727 1063.5 708 c 128,-1,84
 1110 689 1110 689 1136 669 c 128,-1,85
 1162 649 1162 649 1193.5 619.5 c 128,-1,86
 1225 590 1225 590 1241 556.5 c 128,-1,87
 1257 523 1257 523 1268.5 478.5 c 128,-1,88
 1280 434 1280 434 1280 383 c 0,89,90
 1280 299 1280 299 1246 232.5 c 128,-1,91
 1212 166 1212 166 1156 123.5 c 128,-1,92
 1100 81 1100 81 1022.5 52.5 c 128,-1,93
 945 24 945 24 862 12 c 128,-1,94
 779 0 779 0 686 0 c 0,95,96
 632 0 632 0 580.5 4 c 128,-1,97
 529 8 529 8 476 16.5 c 128,-1,98
 423 25 423 25 376 39.5 c 128,-1,99
 329 54 329 54 285.5 73.5 c 128,-1,100
 242 93 242 93 207.5 120.5 c 128,-1,101
 173 148 173 148 147.5 181 c 128,-1,102
 122 214 122 214 108 256.5 c 128,-1,103
 94 299 94 299 94 348 c 0,0,1
415 373 m 0,104,105
 415 454 415 454 350 455 c 1,106,107
 281 454 281 454 280 335 c 0,108,109
 280 332 280 332 285 299 c 1,110,-1
 323 299 l 1,111,112
 415 302 415 302 415 373 c 0,104,105
EndSplineSet
EndChar

StartChar: uni0EA5
Encoding: 3749 3749 227
Width: 1373
GlyphClass: 2
Flags: W
LayerCount: 2
Fore
SplineSet
385 137 m 0,0,1
 428 137 428 137 450.5 161 c 128,-1,2
 473 185 473 185 474 225 c 1,3,4
 474 294 474 294 386 300 c 1,5,-1
 325 300 l 1,6,-1
 325 295 l 1,7,-1
 325 276 l 2,8,9
 325 245 325 245 326.5 225 c 128,-1,10
 328 205 328 205 333 182.5 c 128,-1,11
 338 160 338 160 351 148.5 c 128,-1,12
 364 137 364 137 385 137 c 0,0,1
1035 660 m 2,13,14
 1035 755 1035 755 1019.5 815.5 c 128,-1,15
 1004 876 1004 876 965.5 914.5 c 128,-1,16
 927 953 927 953 868.5 970 c 128,-1,17
 810 987 810 987 717 991 c 1,18,19
 567 991 567 991 484 942 c 128,-1,20
 401 893 401 893 387 780 c 1,21,-1
 158 780 l 1,22,23
 158 866 158 866 188 934 c 128,-1,24
 218 1002 218 1002 269 1045.5 c 128,-1,25
 320 1089 320 1089 393 1117.5 c 128,-1,26
 466 1146 466 1146 547 1158 c 128,-1,27
 628 1170 628 1170 723 1170 c 0,28,29
 867 1170 867 1170 974 1144 c 128,-1,30
 1081 1118 1081 1118 1160 1061 c 128,-1,31
 1239 1004 1239 1004 1279 907.5 c 128,-1,32
 1319 811 1319 811 1319 674 c 2,33,-1
 1319 448 l 2,34,35
 1319 364 1319 364 1310 298 c 128,-1,36
 1301 232 1301 232 1280 174.5 c 128,-1,37
 1259 117 1259 117 1225.5 79.5 c 128,-1,38
 1192 42 1192 42 1139.5 21 c 128,-1,39
 1087 0 1087 0 1019 0 c 0,40,41
 974 0 974 0 936 13.5 c 128,-1,42
 898 27 898 27 871 50 c 128,-1,43
 844 73 844 73 819 103.5 c 128,-1,44
 794 134 794 134 775.5 168 c 128,-1,45
 757 202 757 202 737 238.5 c 128,-1,46
 717 275 717 275 699.5 309 c 128,-1,47
 682 343 682 343 658.5 373.5 c 128,-1,48
 635 404 635 404 609 427 c 128,-1,49
 583 450 583 450 547.5 463.5 c 128,-1,50
 512 477 512 477 471 477 c 0,51,52
 377 477 377 477 341 392 c 1,53,54
 358 400 358 400 373 403.5 c 128,-1,55
 388 407 388 407 400.5 408 c 128,-1,56
 413 409 413 409 436 409 c 1,57,58
 522 401 522 401 575.5 349.5 c 128,-1,59
 629 298 629 298 629 218 c 0,60,61
 629 113 629 113 558.5 56.5 c 128,-1,62
 488 0 488 0 369 0 c 0,63,64
 292 0 292 0 235 36.5 c 128,-1,65
 178 73 178 73 147 143 c 128,-1,66
 116 213 116 213 116 307 c 0,67,68
 116 392 116 392 160.5 459 c 128,-1,69
 205 526 205 526 286 563 c 128,-1,70
 367 600 367 600 471 600 c 0,71,72
 543 600 543 600 608 579 c 128,-1,73
 673 558 673 558 719.5 524.5 c 128,-1,74
 766 491 766 491 805.5 450.5 c 128,-1,75
 845 410 845 410 872.5 369.5 c 128,-1,76
 900 329 900 329 920.5 295.5 c 128,-1,77
 941 262 941 262 956.5 241 c 128,-1,78
 972 220 972 220 982 220 c 0,79,80
 996 220 996 220 1006 225.5 c 128,-1,81
 1016 231 1016 231 1022 242 c 128,-1,82
 1028 253 1028 253 1031.5 264 c 128,-1,83
 1035 275 1035 275 1035.5 293 c 128,-1,84
 1036 311 1036 311 1036 324 c 128,-1,85
 1036 337 1036 337 1035.5 357 c 128,-1,86
 1035 377 1035 377 1035 387 c 2,87,-1
 1035 660 l 2,13,14
EndSplineSet
EndChar

StartChar: uni0EA7
Encoding: 3751 3751 228
Width: 1310
GlyphClass: 2
Flags: W
LayerCount: 2
Fore
SplineSet
349 587 m 0,0,1
 458 587 458 587 528.5 530.5 c 128,-1,2
 599 474 599 474 599 373 c 0,3,4
 599 293 599 293 548.5 241 c 128,-1,5
 498 189 498 189 420 189 c 1,6,-1
 364 198 l 1,7,8
 462 161 462 161 645 161 c 0,9,10
 819 161 819 161 900 237.5 c 128,-1,11
 981 314 981 314 981 483 c 2,12,-1
 981 660 l 2,13,14
 981 755 981 755 966.5 815.5 c 128,-1,15
 952 876 952 876 916 916.5 c 128,-1,16
 880 957 880 957 820.5 974 c 128,-1,17
 761 991 761 991 668 991 c 0,18,19
 526 991 526 991 451.5 943.5 c 128,-1,20
 377 896 377 896 360 782 c 1,21,-1
 130 782 l 1,22,23
 130 843 130 843 144.5 894.5 c 128,-1,24
 159 946 159 946 185.5 985 c 128,-1,25
 212 1024 212 1024 250.5 1055.5 c 128,-1,26
 289 1087 289 1087 335 1108 c 128,-1,27
 381 1129 381 1129 436 1143 c 128,-1,28
 491 1157 491 1157 549.5 1163.5 c 128,-1,29
 608 1170 608 1170 673 1170 c 0,30,31
 789 1170 789 1170 879.5 1154.5 c 128,-1,32
 970 1139 970 1139 1043.5 1103 c 128,-1,33
 1117 1067 1117 1067 1165 1010 c 128,-1,34
 1213 953 1213 953 1239 869 c 128,-1,35
 1265 785 1265 785 1265 674 c 2,36,-1
 1265 477 l 2,37,38
 1265 354 1265 354 1222 262 c 128,-1,39
 1179 170 1179 170 1100 113 c 128,-1,40
 1021 56 1021 56 914 28 c 128,-1,41
 807 0 807 0 673 0 c 0,42,43
 603 0 603 0 537 7 c 128,-1,44
 471 14 471 14 404.5 28.5 c 128,-1,45
 338 43 338 43 283 69 c 128,-1,46
 228 95 228 95 185 130 c 128,-1,47
 142 165 142 165 118 216.5 c 128,-1,48
 94 268 94 268 94 330 c 0,49,50
 94 455 94 455 159 521 c 128,-1,51
 224 587 224 587 349 587 c 0,0,1
422 359 m 128,-1,53
 422 397 422 397 405 419.5 c 128,-1,54
 388 442 388 442 354 442 c 1,55,56
 286 439 286 439 286 322 c 0,57,58
 286 293 286 293 290 286 c 1,59,-1
 320 286 l 2,60,61
 366 286 366 286 394 303.5 c 128,-1,52
 422 321 422 321 422 359 c 128,-1,53
EndSplineSet
EndChar

StartChar: uni0EAA
Encoding: 3754 3754 229
Width: 1423
GlyphClass: 2
Flags: W
LayerCount: 2
Fore
SplineSet
1035 0 m 0,0,1
 985 0 985 0 943.5 13 c 128,-1,2
 902 26 902 26 873 49 c 128,-1,3
 844 72 844 72 818.5 102 c 128,-1,4
 793 132 793 132 775 166 c 128,-1,5
 757 200 757 200 738 236 c 128,-1,6
 719 272 719 272 702.5 306 c 128,-1,7
 686 340 686 340 663.5 370 c 128,-1,8
 641 400 641 400 617 423 c 128,-1,9
 593 446 593 446 558 459 c 128,-1,10
 523 472 523 472 482 472 c 0,11,12
 434 472 434 472 394.5 450.5 c 128,-1,13
 355 429 355 429 337 393 c 1,14,15
 396 409 396 409 425 409 c 0,16,17
 485 409 485 409 532 384 c 128,-1,18
 579 359 579 359 604.5 316 c 128,-1,19
 630 273 630 273 630 218 c 0,20,21
 630 113 630 113 555.5 56.5 c 128,-1,22
 481 0 481 0 365 0 c 0,23,24
 286 0 286 0 228.5 40.5 c 128,-1,25
 171 81 171 81 143.5 148 c 128,-1,26
 116 215 116 215 116 298 c 0,27,28
 116 435 116 435 212.5 512 c 128,-1,29
 309 589 309 589 464 589 c 0,30,31
 515 589 515 589 561 580 c 128,-1,32
 607 571 607 571 642 558.5 c 128,-1,33
 677 546 677 546 711.5 521.5 c 128,-1,34
 746 497 746 497 768.5 477.5 c 128,-1,35
 791 458 791 458 819 422.5 c 128,-1,36
 847 387 847 387 863 365 c 128,-1,37
 879 343 879 343 906 302 c 0,38,39
 909 297 909 297 915 287 c 128,-1,40
 921 277 921 277 924 271.5 c 128,-1,41
 927 266 927 266 933 257 c 128,-1,42
 939 248 939 248 943 243.5 c 128,-1,43
 947 239 947 239 953 233 c 128,-1,44
 959 227 959 227 964.5 223.5 c 128,-1,45
 970 220 970 220 976.5 218 c 128,-1,46
 983 216 983 216 991 216 c 0,47,48
 1035 216 1035 216 1035 314 c 2,49,-1
 1035 700 l 1,50,51
 1012 691 1012 691 968.5 682.5 c 128,-1,52
 925 674 925 674 877 669 c 128,-1,53
 829 664 829 664 783.5 661 c 128,-1,54
 738 658 738 658 707 658 c 0,55,56
 650 658 650 658 601 660 c 128,-1,57
 552 662 552 662 498.5 666.5 c 128,-1,58
 445 671 445 671 400.5 679 c 128,-1,59
 356 687 356 687 313 699.5 c 128,-1,60
 270 712 270 712 237.5 730 c 128,-1,61
 205 748 205 748 180 771.5 c 128,-1,62
 155 795 155 795 142 826 c 128,-1,63
 129 857 129 857 129 895 c 0,64,65
 129 1170 129 1170 707 1170 c 0,66,67
 1089 1170 1089 1170 1189 1015 c 1,68,69
 1211 1088 1211 1088 1211 1159 c 2,70,-1
 1211 1242 l 1,71,-1
 1416 1242 l 1,72,-1
 1416 1167 l 2,73,74
 1416 947 1416 947 1312 852 c 1,75,76
 1319 799 1319 799 1319 616 c 2,77,-1
 1319 425 l 2,78,79
 1319 355 1319 355 1310 295 c 128,-1,80
 1301 235 1301 235 1280.5 179.5 c 128,-1,81
 1260 124 1260 124 1228 85 c 128,-1,82
 1196 46 1196 46 1146.5 23 c 128,-1,83
 1097 0 1097 0 1035 0 c 0,0,1
385 137 m 0,84,85
 429 137 429 137 452 161 c 128,-1,86
 475 185 475 185 476 226 c 1,87,88
 471 298 471 298 363 300 c 1,89,-1
 325 300 l 1,90,-1
 325 280 l 2,91,92
 325 254 325 254 325.5 238 c 128,-1,93
 326 222 326 222 329 200.5 c 128,-1,94
 332 179 332 179 338 167 c 128,-1,95
 344 155 344 155 356 146 c 128,-1,96
 368 137 368 137 385 137 c 0,84,85
707 819 m 0,97,98
 821 819 821 819 903 832 c 128,-1,99
 985 845 985 845 1051 878 c 1,100,101
 1049 907 1049 907 1026 928.5 c 128,-1,102
 1003 950 1003 950 970 961.5 c 128,-1,103
 937 973 937 973 888.5 980 c 128,-1,104
 840 987 840 987 799 989 c 128,-1,105
 758 991 758 991 707 991 c 0,106,107
 677 991 677 991 656.5 990.5 c 128,-1,108
 636 990 636 990 606 989 c 128,-1,109
 576 988 576 988 555.5 985 c 128,-1,110
 535 982 535 982 511 977.5 c 128,-1,111
 487 973 487 973 471 966 c 128,-1,112
 455 959 455 959 440.5 949.5 c 128,-1,113
 426 940 426 940 419.5 926 c 128,-1,114
 413 912 413 912 413 895 c 0,115,116
 413 881 413 881 419.5 869.5 c 128,-1,117
 426 858 426 858 438.5 850.5 c 128,-1,118
 451 843 451 843 468 837 c 128,-1,119
 485 831 485 831 505 828 c 128,-1,120
 525 825 525 825 547 822.5 c 128,-1,121
 569 820 569 820 592 819.5 c 128,-1,122
 615 819 615 819 637 818.5 c 128,-1,123
 659 818 659 818 680 819 c 0,124,125
 698 819 698 819 707 819 c 0,97,98
EndSplineSet
EndChar

StartChar: uni0EAB
Encoding: 3755 3755 230
Width: 1966
GlyphClass: 2
Flags: W
LayerCount: 2
Fore
SplineSet
219 740 m 1,0,1
 126 740 126 740 71 799.5 c 128,-1,2
 16 859 16 859 16 955 c 0,3,4
 16 1170 16 1170 302 1170 c 0,5,6
 377 1170 377 1170 439.5 1147 c 128,-1,7
 502 1124 502 1124 543 1074 c 128,-1,8
 584 1024 584 1024 584 955 c 0,9,10
 584 897 584 897 559 822 c 1,11,-1
 458 426 l 2,12,13
 447 385 447 385 447 354 c 0,14,15
 447 265 447 265 514.5 221 c 128,-1,16
 582 177 582 177 691 177 c 0,17,18
 824 177 824 177 883 239.5 c 128,-1,19
 942 302 942 302 942 439 c 2,20,-1
 942 754 l 1,21,22
 912 740 912 740 861 740 c 0,23,24
 755 740 755 740 698 797 c 128,-1,25
 641 854 641 854 641 960 c 0,26,27
 641 1032 641 1032 676 1079.5 c 128,-1,28
 711 1127 711 1127 770 1148.5 c 128,-1,29
 829 1170 829 1170 912 1170 c 0,30,31
 1099 1170 1099 1170 1183 1047 c 1,32,33
 1187 1050 1187 1050 1195 1056 c 0,34,35
 1239 1085 1239 1085 1262.5 1100 c 128,-1,36
 1286 1115 1286 1115 1324 1134.5 c 128,-1,37
 1362 1154 1362 1154 1398 1162 c 128,-1,38
 1434 1170 1434 1170 1474 1170 c 0,39,40
 1896 1170 1896 1170 1896 702 c 2,41,-1
 1896 0 l 1,42,-1
 1612 0 l 1,43,-1
 1612 697 l 2,44,45
 1612 752 1612 752 1611 780.5 c 128,-1,46
 1610 809 1610 809 1605 850 c 128,-1,47
 1600 891 1600 891 1589 911 c 128,-1,48
 1578 931 1578 931 1559.5 952.5 c 128,-1,49
 1541 974 1541 974 1511 982.5 c 128,-1,50
 1481 991 1481 991 1439 991 c 0,51,52
 1404 991 1404 991 1365.5 979 c 128,-1,53
 1327 967 1327 967 1303.5 954.5 c 128,-1,54
 1280 942 1280 942 1238 918 c 0,55,56
 1230 913 1230 913 1226 911 c 1,57,-1
 1226 443 l 2,58,59
 1226 324 1226 324 1186.5 237.5 c 128,-1,60
 1147 151 1147 151 1072 99.5 c 128,-1,61
 997 48 997 48 896 24 c 128,-1,62
 795 0 795 0 664 0 c 0,63,64
 573 0 573 0 490.5 20 c 128,-1,65
 408 40 408 40 340.5 78 c 128,-1,66
 273 116 273 116 230.5 177.5 c 128,-1,67
 188 239 188 239 181 317 c 0,68,69
 181 322 181 322 180 323 c 1,70,-1
 180 339 l 2,71,72
 180 376 180 376 193 426 c 2,73,-1
 283 752 l 1,74,75
 271 750 271 750 219 740 c 1,0,1
336 956 m 1,76,77
 336 985 336 985 314 1004 c 128,-1,78
 292 1023 292 1023 261 1023 c 0,79,80
 194 1021 194 1021 193 946 c 1,81,82
 197 870 197 870 286 870 c 2,83,-1
 315 870 l 1,84,85
 334 956 334 956 336 956 c 1,76,77
883 1032 m 0,86,87
 852 1032 852 1032 835 1014 c 128,-1,88
 818 996 818 996 818 965 c 0,89,90
 819 894 819 894 882 894 c 0,91,92
 922 894 922 894 942 904 c 1,93,-1
 942 937 l 2,94,95
 942 984 942 984 929.5 1008 c 128,-1,96
 917 1032 917 1032 883 1032 c 0,86,87
EndSplineSet
EndChar

StartChar: uni0EAD
Encoding: 3757 3757 231
Width: 1313
GlyphClass: 2
Flags: W
LayerCount: 2
Fore
SplineSet
377 895 m 0,0,1
 377 874 377 874 388.5 858 c 128,-1,2
 400 842 400 842 420 833 c 128,-1,3
 440 824 440 824 466 818.5 c 128,-1,4
 492 813 492 813 521.5 811.5 c 128,-1,5
 551 810 551 810 582 809 c 128,-1,6
 613 808 613 808 642 809 c 0,7,8
 665 809 665 809 675 809 c 0,9,10
 997 809 997 809 1000 895 c 1,11,12
 1000 991 1000 991 654 991 c 0,13,14
 621 991 621 991 598 990.5 c 128,-1,15
 575 990 575 990 543.5 988 c 128,-1,16
 512 986 512 986 490.5 982 c 128,-1,17
 469 978 469 978 446 971 c 128,-1,18
 423 964 423 964 409 954 c 128,-1,19
 395 944 395 944 386 929 c 128,-1,20
 377 914 377 914 377 895 c 0,0,1
337 566 m 0,21,22
 443 566 443 566 511.5 519.5 c 128,-1,23
 580 473 580 473 580 389 c 0,24,25
 580 311 580 311 533 261.5 c 128,-1,26
 486 212 486 212 374 190 c 1,27,28
 456 156 456 156 649 156 c 0,29,30
 698 156 698 156 739 160.5 c 128,-1,31
 780 165 780 165 812.5 176 c 128,-1,32
 845 187 845 187 871 200.5 c 128,-1,33
 897 214 897 214 916.5 236 c 128,-1,34
 936 258 936 258 950.5 280.5 c 128,-1,35
 965 303 965 303 974.5 336 c 128,-1,36
 984 369 984 369 990.5 400.5 c 128,-1,37
 997 432 997 432 1000 476 c 128,-1,38
 1003 520 1003 520 1004 560 c 128,-1,39
 1005 600 1005 600 1005 655 c 2,40,-1
 1005 717 l 1,41,42
 980 685 980 685 933.5 662.5 c 128,-1,43
 887 640 887 640 835 629.5 c 128,-1,44
 783 619 783 619 742.5 615 c 128,-1,45
 702 611 702 611 668 611 c 0,46,47
 94 611 94 611 94 895 c 0,48,49
 94 1170 94 1170 654 1170 c 0,50,51
 726 1170 726 1170 787 1165.5 c 128,-1,52
 848 1161 848 1161 908 1150.5 c 128,-1,53
 968 1140 968 1140 1017 1122.5 c 128,-1,54
 1066 1105 1066 1105 1109.5 1080.5 c 128,-1,55
 1153 1056 1153 1056 1185.5 1021.5 c 128,-1,56
 1218 987 1218 987 1242 944 c 128,-1,57
 1266 901 1266 901 1278 845 c 128,-1,58
 1290 789 1290 789 1290 723 c 2,59,-1
 1290 515 l 2,60,61
 1290 0 1290 0 686 0 c 0,62,63
 614 0 614 0 545.5 7 c 128,-1,64
 477 14 477 14 408 28.5 c 128,-1,65
 339 43 339 43 282.5 69 c 128,-1,66
 226 95 226 95 181.5 130 c 128,-1,67
 137 165 137 165 112 216.5 c 128,-1,68
 87 268 87 268 87 330 c 0,69,70
 87 442 87 442 152 504 c 128,-1,71
 217 566 217 566 337 566 c 0,21,22
353 442 m 0,72,73
 305 442 305 442 281.5 411.5 c 128,-1,74
 258 381 258 381 258 333 c 0,75,76
 258 331 258 331 264 286 c 1,77,78
 334 286 334 286 372 301 c 128,-1,79
 410 316 410 316 413 358 c 1,80,81
 413 442 413 442 353 442 c 0,72,73
EndSplineSet
EndChar

StartChar: uni0EAE
Encoding: 3758 3758 232
Width: 1285
GlyphClass: 2
Flags: W
LayerCount: 2
Fore
SplineSet
422 358 m 0,0,1
 422 382 422 382 415 400.5 c 128,-1,2
 408 419 408 419 393 430 c 128,-1,3
 378 441 378 441 357 441 c 0,4,5
 287 440 287 440 287 322 c 0,6,7
 287 304 287 304 290 288 c 1,8,-1
 334 288 l 2,9,10
 422 288 422 288 422 358 c 0,0,1
958 1049 m 0,11,12
 984 1049 984 1049 1002.5 1064.5 c 128,-1,13
 1021 1080 1021 1080 1021 1105 c 2,14,-1
 1021 1170 l 1,15,-1
 1224 1170 l 1,16,-1
 1224 1105 l 2,17,18
 1224 858 1224 858 1011 858 c 0,19,20
 942 858 942 858 821.5 889 c 128,-1,21
 701 920 701 920 588 951 c 128,-1,22
 475 982 475 982 423 982 c 0,23,24
 409 982 409 982 398.5 978 c 128,-1,25
 388 974 388 974 382 966 c 128,-1,26
 376 958 376 958 376 946 c 128,-1,27
 376 934 376 934 381.5 923 c 128,-1,28
 387 912 387 912 398 902 c 128,-1,29
 409 892 409 892 421.5 883 c 128,-1,30
 434 874 434 874 453.5 865.5 c 128,-1,31
 473 857 473 857 488.5 850 c 128,-1,32
 504 843 504 843 527 835.5 c 128,-1,33
 550 828 550 828 565 823 c 128,-1,34
 580 818 580 818 603 810.5 c 128,-1,35
 626 803 626 803 637 800 c 2,36,-1
 831 738 l 2,37,38
 877 723 877 723 912.5 710.5 c 128,-1,39
 948 698 948 698 991 678 c 128,-1,40
 1034 658 1034 658 1065.5 637.5 c 128,-1,41
 1097 617 1097 617 1128.5 588 c 128,-1,42
 1160 559 1160 559 1179.5 526.5 c 128,-1,43
 1199 494 1199 494 1211.5 451 c 128,-1,44
 1224 408 1224 408 1224 359 c 0,45,46
 1224 290 1224 290 1203.5 234 c 128,-1,47
 1183 178 1183 178 1144 139.5 c 128,-1,48
 1105 101 1105 101 1054 73.5 c 128,-1,49
 1003 46 1003 46 936 30 c 128,-1,50
 869 14 869 14 798.5 7 c 128,-1,51
 728 0 728 0 645 0 c 0,52,53
 558 0 558 0 482 9.5 c 128,-1,54
 406 19 406 19 333 42.5 c 128,-1,55
 260 66 260 66 208.5 103 c 128,-1,56
 157 140 157 140 125.5 199.5 c 128,-1,57
 94 259 94 259 94 335 c 0,58,59
 94 457 94 457 160.5 522 c 128,-1,60
 227 587 227 587 352 587 c 0,61,62
 457 587 457 587 528 529.5 c 128,-1,63
 599 472 599 472 599 374 c 0,64,65
 599 292 599 292 545 241 c 128,-1,66
 491 190 491 190 407 190 c 1,67,-1
 360 198 l 1,68,69
 454 161 454 161 653 161 c 0,70,71
 932 161 932 161 940 340 c 1,72,73
 939 370 939 370 929 396 c 128,-1,74
 919 422 919 422 905 441 c 128,-1,75
 891 460 891 460 866 478.5 c 128,-1,76
 841 497 841 497 820 508.5 c 128,-1,77
 799 520 799 520 765.5 533.5 c 128,-1,78
 732 547 732 547 710 554 c 128,-1,79
 688 561 688 561 652 572.5 c 128,-1,80
 616 584 616 584 599 590 c 2,81,-1
 539 611 l 2,82,83
 519 618 519 618 483 629.5 c 128,-1,84
 447 641 447 641 424.5 648.5 c 128,-1,85
 402 656 402 656 368 668.5 c 128,-1,86
 334 681 334 681 312.5 691.5 c 128,-1,87
 291 702 291 702 262.5 718 c 128,-1,88
 234 734 234 734 216 750 c 128,-1,89
 198 766 198 766 179 787.5 c 128,-1,90
 160 809 160 809 149 833 c 128,-1,91
 138 857 138 857 131 886.5 c 128,-1,92
 124 916 124 916 124 950 c 0,93,94
 124 1046 124 1046 194.5 1108 c 128,-1,95
 265 1170 265 1170 366 1170 c 0,96,97
 438 1170 438 1170 522 1151 c 128,-1,98
 606 1132 606 1132 669.5 1109.5 c 128,-1,99
 733 1087 733 1087 812.5 1068 c 128,-1,100
 892 1049 892 1049 958 1049 c 0,11,12
EndSplineSet
EndChar

StartChar: uni0EAF
Encoding: 3759 3759 233
Width: 1426
GlyphClass: 2
Flags: W
LayerCount: 2
Fore
SplineSet
781 977 m 0,0,1
 781 906 781 906 753.5 845.5 c 128,-1,2
 726 785 726 785 673 747.5 c 128,-1,3
 620 710 620 710 552 710 c 0,4,5
 471 710 471 710 422 755.5 c 128,-1,6
 373 801 373 801 373 880 c 1,7,8
 374 885 374 885 381 928 c 128,-1,9
 388 971 388 971 394 1004 c 1,10,11
 313 962 313 962 313 812 c 0,12,13
 313 745 313 745 340.5 696 c 128,-1,14
 368 647 368 647 418.5 621.5 c 128,-1,15
 469 596 469 596 537 596 c 0,16,17
 591 596 591 596 644.5 613 c 128,-1,18
 698 630 698 630 743 656.5 c 128,-1,19
 788 683 788 683 833.5 723 c 128,-1,20
 879 763 879 763 913.5 802 c 128,-1,21
 948 841 948 841 984 890 c 128,-1,22
 1020 939 1020 939 1044 976.5 c 128,-1,23
 1068 1014 1068 1014 1094 1058 c 2,24,-1
 1144 1144 l 1,25,-1
 1445 1021 l 1,26,-1
 826 -432 l 1,27,-1
 592 -334 l 1,28,-1
 1048 744 l 1,29,-1
 1014 691 l 2,30,31
 973 627 973 627 927.5 577.5 c 128,-1,32
 882 528 882 528 823.5 486.5 c 128,-1,33
 765 445 765 445 691.5 423 c 128,-1,34
 618 401 618 401 532 401 c 0,35,36
 431 401 431 401 344 426 c 128,-1,37
 257 451 257 451 191 499.5 c 128,-1,38
 125 548 125 548 87 624 c 128,-1,39
 49 700 49 700 49 796 c 0,40,41
 49 918 49 918 103 1015.5 c 128,-1,42
 157 1113 157 1113 254 1167.5 c 128,-1,43
 351 1222 351 1222 472 1222 c 0,44,45
 556 1222 556 1222 625 1195 c 128,-1,46
 694 1168 694 1168 737.5 1111.5 c 128,-1,47
 781 1055 781 1055 781 977 c 0,0,1
500 916 m 2,48,49
 500 888 500 888 516 873.5 c 128,-1,50
 532 859 532 859 561 859 c 1,51,52
 614 863 614 863 616 932 c 1,53,54
 613 1008 613 1008 502 1019 c 1,55,56
 500 943 500 943 500 930 c 2,57,-1
 500 916 l 2,48,49
EndSplineSet
EndChar

StartChar: uni0EB1
Encoding: 3761 3761 235
Width: 2
GlyphClass: 2
Flags: W
LayerCount: 2
Fore
SplineSet
-998 1567 m 0,0,1
 -1020 1567 -1020 1567 -1036.5 1560 c 128,-1,2
 -1053 1553 -1053 1553 -1062.5 1538 c 128,-1,3
 -1072 1523 -1072 1523 -1072 1503 c 0,4,5
 -1071 1436 -1071 1436 -982 1436 c 2,6,-1
 -917 1436 l 1,7,-1
 -917 1502 l 2,8,9
 -917 1533 -917 1533 -939 1550 c 128,-1,10
 -961 1567 -961 1567 -998 1567 c 0,0,1
-1001 1724 m 0,11,12
 -917 1724 -917 1724 -859 1680.5 c 128,-1,13
 -801 1637 -801 1637 -801 1562 c 0,14,15
 -801 1521 -801 1521 -814 1494 c 2,16,-1
 -840 1436 l 1,17,-1
 -620 1436 l 2,18,19
 -569 1436 -569 1436 -535 1438.5 c 128,-1,20
 -501 1441 -501 1441 -469.5 1449.5 c 128,-1,21
 -438 1458 -438 1458 -420 1472 c 128,-1,22
 -402 1486 -402 1486 -387.5 1510 c 128,-1,23
 -373 1534 -373 1534 -367 1567.5 c 128,-1,24
 -361 1601 -361 1601 -360 1649 c 1,25,-1
 -147 1649 l 1,26,27
 -147 1247 -147 1247 -644 1247 c 2,28,-1
 -817 1247 l 2,29,30
 -866 1247 -866 1247 -905.5 1249 c 128,-1,31
 -945 1251 -945 1251 -989.5 1257 c 128,-1,32
 -1034 1263 -1034 1263 -1068 1273 c 128,-1,33
 -1102 1283 -1102 1283 -1134 1300.5 c 128,-1,34
 -1166 1318 -1166 1318 -1187 1341 c 128,-1,35
 -1208 1364 -1208 1364 -1220.5 1397.5 c 128,-1,36
 -1233 1431 -1233 1431 -1233 1472 c 0,37,38
 -1233 1724 -1233 1724 -1001 1724 c 0,11,12
EndSplineSet
EndChar

StartChar: uni0EB2
Encoding: 3762 3762 236
Width: 957
GlyphClass: 2
Flags: W
LayerCount: 2
Fore
SplineSet
303 708 m 0,0,1
 193 708 193 708 125.5 762 c 128,-1,2
 58 816 58 816 58 918 c 0,3,4
 58 985 58 985 83.5 1034.5 c 128,-1,5
 109 1084 109 1084 156.5 1113.5 c 128,-1,6
 204 1143 204 1143 265.5 1157.5 c 128,-1,7
 327 1172 327 1172 403 1172 c 0,8,9
 635 1172 635 1172 754 1075.5 c 128,-1,10
 873 979 873 979 873 768 c 2,11,-1
 873 0 l 1,12,-1
 590 0 l 1,13,-1
 590 818 l 2,14,15
 590 907 590 907 567.5 952 c 128,-1,16
 545 997 545 997 483 1013 c 1,17,-1
 500 899 l 1,18,19
 500 708 500 708 303 708 c 0,0,1
318 858 m 0,20,21
 355 858 355 858 371.5 889.5 c 128,-1,22
 388 921 388 921 388 971 c 2,23,-1
 388 1021 l 1,24,25
 358 1021 358 1021 339.5 1020 c 128,-1,26
 321 1019 321 1019 298.5 1014.5 c 128,-1,27
 276 1010 276 1010 263.5 1001.5 c 128,-1,28
 251 993 251 993 242.5 976.5 c 128,-1,29
 234 960 234 960 234 937 c 0,30,31
 234 898 234 898 256 878 c 128,-1,32
 278 858 278 858 318 858 c 0,20,21
EndSplineSet
EndChar

StartChar: uni0EB3
Encoding: 3763 3763 237
Width: 1020
GlyphClass: 2
Flags: W
LayerCount: 2
Fore
SplineSet
328 728 m 0,0,1
 216 728 216 728 149.5 781.5 c 128,-1,2
 83 835 83 835 83 938 c 0,3,4
 83 1005 83 1005 108 1054.5 c 128,-1,5
 133 1104 133 1104 180 1133.5 c 128,-1,6
 227 1163 227 1163 288.5 1177.5 c 128,-1,7
 350 1192 350 1192 427 1192 c 0,8,9
 658 1192 658 1192 777.5 1096.5 c 128,-1,10
 897 1001 897 1001 897 791 c 2,11,-1
 897 0 l 1,12,-1
 614 0 l 1,13,-1
 614 838 l 2,14,15
 614 927 614 927 591.5 972.5 c 128,-1,16
 569 1018 569 1018 507 1034 c 1,17,-1
 525 921 l 1,18,19
 525 728 525 728 328 728 c 0,0,1
343 880 m 0,20,21
 408 880 408 880 412 992 c 1,22,-1
 411 1042 l 1,23,24
 380 1042 380 1042 362 1041 c 128,-1,25
 344 1040 344 1040 321 1035.5 c 128,-1,26
 298 1031 298 1031 286.5 1022.5 c 128,-1,27
 275 1014 275 1014 266.5 998 c 128,-1,28
 258 982 258 982 258 958 c 0,29,30
 258 920 258 920 280.5 900 c 128,-1,31
 303 880 303 880 343 880 c 0,20,21
-183 1518 m 0,32,33
 -183 1419 -183 1419 -251 1354 c 128,-1,34
 -319 1289 -319 1289 -419 1289 c 0,35,36
 -484 1289 -484 1289 -538.5 1318.5 c 128,-1,37
 -593 1348 -593 1348 -624.5 1401 c 128,-1,38
 -656 1454 -656 1454 -656 1518 c 0,39,40
 -656 1616 -656 1616 -587.5 1682 c 128,-1,41
 -519 1748 -519 1748 -419 1748 c 0,42,43
 -353 1748 -353 1748 -299 1719 c 128,-1,44
 -245 1690 -245 1690 -214 1637 c 128,-1,45
 -183 1584 -183 1584 -183 1518 c 0,32,33
-419 1428 m 0,46,47
 -378 1428 -378 1428 -351 1453 c 128,-1,48
 -324 1478 -324 1478 -324 1520 c 0,49,50
 -324 1560 -324 1560 -351.5 1586.5 c 128,-1,51
 -379 1613 -379 1613 -419.5 1613 c 128,-1,52
 -460 1613 -460 1613 -486.5 1586.5 c 128,-1,53
 -513 1560 -513 1560 -513 1520 c 0,54,55
 -513 1482 -513 1482 -486 1455 c 128,-1,56
 -459 1428 -459 1428 -419 1428 c 0,46,47
EndSplineSet
MultipleSubs2: "'ccmp' Glyph Composition/Decomposition in Lao lookup 2 subtable" uni0ECD uni0EB2
Substitution2: "'liga' Standard Ligatures lookup 0 subtable" uni0EB3.liga
EndChar

StartChar: uni0EB4
Encoding: 3764 3764 238
Width: 3
GlyphClass: 2
Flags: W
LayerCount: 2
Fore
SplineSet
-665 1782 m 0,0,1
 -591 1782 -591 1782 -525 1773.5 c 128,-1,2
 -459 1765 -459 1765 -395 1744.5 c 128,-1,3
 -331 1724 -331 1724 -284.5 1692 c 128,-1,4
 -238 1660 -238 1660 -209.5 1609.5 c 128,-1,5
 -181 1559 -181 1559 -181 1494 c 0,6,7
 -181 1428 -181 1428 -207.5 1379.5 c 128,-1,8
 -234 1331 -234 1331 -282 1302.5 c 128,-1,9
 -330 1274 -330 1274 -392.5 1260.5 c 128,-1,10
 -455 1247 -455 1247 -532 1247 c 2,11,-1
 -575 1247 l 1,12,-1
 -575 1404 l 1,13,-1
 -529 1404 l 1,14,15
 -401 1411 -401 1411 -395 1494 c 1,16,17
 -395 1522 -395 1522 -404.5 1543.5 c 128,-1,18
 -414 1565 -414 1565 -434 1578 c 128,-1,19
 -454 1591 -454 1591 -476.5 1599.5 c 128,-1,20
 -499 1608 -499 1608 -533 1612 c 128,-1,21
 -567 1616 -567 1616 -595.5 1617.5 c 128,-1,22
 -624 1619 -624 1619 -665 1619 c 0,23,24
 -705 1619 -705 1619 -735 1617.5 c 128,-1,25
 -765 1616 -765 1616 -798 1611.5 c 128,-1,26
 -831 1607 -831 1607 -854 1598.5 c 128,-1,27
 -877 1590 -877 1590 -896.5 1576.5 c 128,-1,28
 -916 1563 -916 1563 -926 1542 c 128,-1,29
 -936 1521 -936 1521 -937 1494 c 1,30,31
 -935 1404 -935 1404 -800 1404 c 2,32,-1
 -752 1404 l 1,33,-1
 -752 1247 l 1,34,-1
 -798 1247 l 2,35,36
 -872 1247 -872 1247 -933 1260 c 128,-1,37
 -994 1273 -994 1273 -1044 1301 c 128,-1,38
 -1094 1329 -1094 1329 -1122 1378 c 128,-1,39
 -1150 1427 -1150 1427 -1150 1494 c 0,40,41
 -1150 1557 -1150 1557 -1120.5 1607.5 c 128,-1,42
 -1091 1658 -1091 1658 -1044 1690 c 128,-1,43
 -997 1722 -997 1722 -932.5 1743.5 c 128,-1,44
 -868 1765 -868 1765 -802 1773.5 c 128,-1,45
 -736 1782 -736 1782 -665 1782 c 0,0,1
EndSplineSet
EndChar

StartChar: uni0EB5
Encoding: 3765 3765 239
Width: 3
GlyphClass: 2
Flags: W
LayerCount: 2
Fore
SplineSet
-832 1782 m 128,-1,1
 -761 1782 -761 1782 -695.5 1773.5 c 128,-1,2
 -630 1765 -630 1765 -566 1744.5 c 128,-1,3
 -502 1724 -502 1724 -455 1693 c 128,-1,4
 -408 1662 -408 1662 -379 1613 c 128,-1,5
 -350 1564 -350 1564 -349 1503 c 1,6,7
 -351 1441 -351 1441 -404 1404 c 1,8,-1
 -189 1404 l 1,9,-1
 -189 1247 l 1,10,-1
 -742 1247 l 1,11,-1
 -742 1404 l 1,12,-1
 -698 1404 l 2,13,14
 -564 1404 -564 1404 -564 1494 c 0,15,16
 -564 1619 -564 1619 -832 1619 c 0,17,18
 -862 1619 -862 1619 -885 1618.5 c 128,-1,19
 -908 1618 -908 1618 -935 1616 c 128,-1,20
 -962 1614 -962 1614 -982 1609.5 c 128,-1,21
 -1002 1605 -1002 1605 -1022.5 1599 c 128,-1,22
 -1043 1593 -1043 1593 -1057 1583.5 c 128,-1,23
 -1071 1574 -1071 1574 -1082.5 1561.5 c 128,-1,24
 -1094 1549 -1094 1549 -1099.5 1532 c 128,-1,25
 -1105 1515 -1105 1515 -1105 1494 c 0,26,27
 -1105 1404 -1105 1404 -969 1404 c 2,28,-1
 -922 1404 l 1,29,-1
 -922 1247 l 1,30,-1
 -966 1247 l 2,31,32
 -1040 1247 -1040 1247 -1101.5 1260 c 128,-1,33
 -1163 1273 -1163 1273 -1212.5 1301 c 128,-1,34
 -1262 1329 -1262 1329 -1290 1378 c 128,-1,35
 -1318 1427 -1318 1427 -1318 1494 c 0,36,37
 -1318 1557 -1318 1557 -1289 1607.5 c 128,-1,38
 -1260 1658 -1260 1658 -1212.5 1690 c 128,-1,39
 -1165 1722 -1165 1722 -1100.5 1743 c 128,-1,40
 -1036 1764 -1036 1764 -969.5 1773 c 128,-1,0
 -903 1782 -903 1782 -832 1782 c 128,-1,1
EndSplineSet
EndChar

StartChar: uni0EB6
Encoding: 3766 3766 240
Width: 3
GlyphClass: 2
Flags: W
LayerCount: 2
Fore
SplineSet
-665 1619 m 128,-1,1
 -705 1619 -705 1619 -735 1617.5 c 128,-1,2
 -765 1616 -765 1616 -798 1611.5 c 128,-1,3
 -831 1607 -831 1607 -854 1598.5 c 128,-1,4
 -877 1590 -877 1590 -896.5 1576.5 c 128,-1,5
 -916 1563 -916 1563 -926 1542 c 128,-1,6
 -936 1521 -936 1521 -937 1494 c 1,7,8
 -935 1405 -935 1405 -800 1403 c 1,9,-1
 -788 1403 l 1,10,-1
 -788 1247 l 1,11,-1
 -798 1247 l 2,12,13
 -872 1247 -872 1247 -933 1260 c 128,-1,14
 -994 1273 -994 1273 -1044 1301 c 128,-1,15
 -1094 1329 -1094 1329 -1122 1378 c 128,-1,16
 -1150 1427 -1150 1427 -1150 1494 c 0,17,18
 -1150 1557 -1150 1557 -1120.5 1607.5 c 128,-1,19
 -1091 1658 -1091 1658 -1044 1690 c 128,-1,20
 -997 1722 -997 1722 -932.5 1743.5 c 128,-1,21
 -868 1765 -868 1765 -802 1773.5 c 128,-1,22
 -736 1782 -736 1782 -665 1782 c 0,23,24
 -591 1782 -591 1782 -525 1773.5 c 128,-1,25
 -459 1765 -459 1765 -395 1744.5 c 128,-1,26
 -331 1724 -331 1724 -284.5 1692 c 128,-1,27
 -238 1660 -238 1660 -209.5 1609.5 c 128,-1,28
 -181 1559 -181 1559 -181 1494 c 0,29,30
 -181 1428 -181 1428 -207.5 1379.5 c 128,-1,31
 -234 1331 -234 1331 -282 1302.5 c 128,-1,32
 -330 1274 -330 1274 -392.5 1260.5 c 128,-1,33
 -455 1247 -455 1247 -532 1247 c 2,34,-1
 -539 1247 l 1,35,-1
 -539 1403 l 1,36,-1
 -529 1403 l 1,37,38
 -399 1409 -399 1409 -395 1494 c 1,39,40
 -395 1522 -395 1522 -405 1543 c 128,-1,41
 -415 1564 -415 1564 -435 1577.5 c 128,-1,42
 -455 1591 -455 1591 -477.5 1599.5 c 128,-1,43
 -500 1608 -500 1608 -533 1612 c 128,-1,44
 -566 1616 -566 1616 -595.5 1617.5 c 128,-1,0
 -625 1619 -625 1619 -665 1619 c 128,-1,1
-661 1394 m 0,45,46
 -641 1394 -641 1394 -624 1399.5 c 128,-1,47
 -607 1405 -607 1405 -594.5 1415 c 128,-1,48
 -582 1425 -582 1425 -574.5 1440 c 128,-1,49
 -567 1455 -567 1455 -567 1473 c 0,50,51
 -567 1506 -567 1506 -594.5 1526.5 c 128,-1,52
 -622 1547 -622 1547 -661 1547 c 0,53,54
 -686 1547 -686 1547 -707 1538.5 c 128,-1,55
 -728 1530 -728 1530 -741.5 1513 c 128,-1,56
 -755 1496 -755 1496 -755 1473 c 0,57,58
 -755 1449 -755 1449 -742.5 1431 c 128,-1,59
 -730 1413 -730 1413 -708.5 1403.5 c 128,-1,60
 -687 1394 -687 1394 -661 1394 c 0,45,46
EndSplineSet
EndChar

StartChar: uni0EB7
Encoding: 3767 3767 241
Width: 3
GlyphClass: 2
Flags: W
LayerCount: 2
Fore
SplineSet
-832 1619 m 0,0,1
 -870 1619 -870 1619 -897 1618 c 128,-1,2
 -924 1617 -924 1617 -958.5 1613 c 128,-1,3
 -993 1609 -993 1609 -1016 1600.5 c 128,-1,4
 -1039 1592 -1039 1592 -1060.5 1579 c 128,-1,5
 -1082 1566 -1082 1566 -1093 1544.5 c 128,-1,6
 -1104 1523 -1104 1523 -1105 1494 c 1,7,8
 -1105 1404 -1105 1404 -969 1404 c 2,9,-1
 -957 1404 l 1,10,-1
 -957 1247 l 1,11,-1
 -966 1247 l 2,12,13
 -1040 1247 -1040 1247 -1101.5 1260 c 128,-1,14
 -1163 1273 -1163 1273 -1212.5 1301 c 128,-1,15
 -1262 1329 -1262 1329 -1290 1378 c 128,-1,16
 -1318 1427 -1318 1427 -1318 1494 c 0,17,18
 -1318 1557 -1318 1557 -1289 1607.5 c 128,-1,19
 -1260 1658 -1260 1658 -1212.5 1690 c 128,-1,20
 -1165 1722 -1165 1722 -1100.5 1743 c 128,-1,21
 -1036 1764 -1036 1764 -969.5 1773 c 128,-1,22
 -903 1782 -903 1782 -832 1782 c 0,23,24
 -762 1782 -762 1782 -696 1773.5 c 128,-1,25
 -630 1765 -630 1765 -565.5 1744.5 c 128,-1,26
 -501 1724 -501 1724 -454 1693 c 128,-1,27
 -407 1662 -407 1662 -377.5 1613 c 128,-1,28
 -348 1564 -348 1564 -348 1503 c 0,29,30
 -348 1436 -348 1436 -403 1403 c 1,31,-1
 -188 1403 l 1,32,-1
 -188 1247 l 1,33,-1
 -707 1247 l 1,34,-1
 -707 1404 l 1,35,-1
 -698 1404 l 2,36,37
 -632 1404 -632 1404 -598 1424 c 128,-1,38
 -564 1444 -564 1444 -564 1494 c 0,39,40
 -564 1619 -564 1619 -832 1619 c 0,0,1
-831 1394 m 0,41,42
 -791 1394 -791 1394 -765.5 1414.5 c 128,-1,43
 -740 1435 -740 1435 -737 1473 c 1,44,45
 -737 1506 -737 1506 -764.5 1526.5 c 128,-1,46
 -792 1547 -792 1547 -831 1547 c 0,47,48
 -871 1547 -871 1547 -896 1528 c 128,-1,49
 -921 1509 -921 1509 -924 1473 c 1,50,51
 -924 1438 -924 1438 -897 1416 c 128,-1,52
 -870 1394 -870 1394 -831 1394 c 0,41,42
EndSplineSet
EndChar

